<svg xmlns="http://www.w3.org/2000/svg" width="36.888" height="36.472" viewBox="0 0 36.888 36.472"><path fill="#FFF" d="M30.237 36.472c-.494 0-.988-.182-1.375-.547l-9.467-8.958-3.398 5.559a1.999 1.999 0 0 1-3.551-.274L.154 2.77A2 2 0 0 1 2.684.122l31.219 11.377a2 2 0 0 1 .33 3.603l-6.773 3.986 8.866 9.178a2 2 0 0 1 0 2.779l-4.65 4.817c-.392.406-.915.61-1.439.61zM18.976 21.817c.508 0 1.001.194 1.375.547l9.822 9.294 1.934-2.003-9.288-9.615a1.999 1.999 0 0 1 .424-3.114l5.307-3.123L5.601 5.442l9.027 21.654 2.642-4.321a1.996 1.996 0 0 1 1.706-.958z"/></svg>