<svg xmlns="http://www.w3.org/2000/svg" width="368.185" height="806.502" viewBox="0 0 368.185 806.502"><path fill="#FFF" d="M13.858 47.617h340.469v506.1H13.858z"/><path fill="none" stroke="#9B9FA7" stroke-width="8" stroke-miterlimit="10" d="M0 47.617h368.185M0 553.717h368.185"/><path fill="none" stroke="#9B9FA7" stroke-width="8" stroke-linecap="round" stroke-linejoin="round" stroke-miterlimit="10" d="M184.093 47.617V4"/><path fill="none" stroke="#9B9FA7" stroke-width="4" stroke-linecap="round" stroke-linejoin="round" stroke-miterlimit="10" d="M27.716 47.617L184.093 11.88m158.462 35.737L186.178 11.88"/><path fill="none" stroke="#9B9FA7" stroke-width="8" stroke-linecap="round" stroke-linejoin="round" stroke-miterlimit="10" d="M184.093 553.717v234.569m0-49.313l-78.188 49.313m78.188-49.313l78.188 49.313"/><path opacity=".1" fill="#1C1918" d="M54.414 793.717c0 7.06 59.71 12.784 133.371 12.784 73.658 0 133.368-5.724 133.368-12.784 0-7.062-59.71-12.782-133.368-12.782-73.662.001-133.371 5.72-133.371 12.782z"/><path fill="#1C2730" d="M128.461 405.562a6.772 6.772 0 0 0 0 13.545h1.877v-13.544h-1.877zm-35.354 0a6.772 6.772 0 0 0 0 13.545h1.879v-13.544h-1.879z"/><path fill="#1C2730" d="M128.461 405.562a6.772 6.772 0 0 0 0 13.545h1.877v-13.544h-1.877z"/><circle fill="#1C2730" cx="115.651" cy="411.07" r="6.772"/><path fill="#1C2730" d="M77.619 404.298a6.772 6.772 0 0 0 0 13.544h1.877v-13.543h-1.877z"/><circle fill="#1C2730" cx="79.497" cy="411.07" r="6.773"/><path fill="#DEBF7A" d="M81.093 380.047h27.786v27.786H81.093z"/><path fill="#C5A468" d="M81.093 391.806h27.786v4.269H81.093z"/><path fill="#9F7A45" d="M92.087 391.806h5.799v4.269h-5.799z"/><path fill="#C5A468" d="M92.852 380.047h4.268v27.786h-4.268z"/><path fill="#C5A46A" d="M60.254 380.047h20.839v27.786H60.254z"/><path fill="#9F7A45" d="M60.254 391.806h20.839v4.269H60.254z"/><path fill="#8E6E3F" d="M67.859 391.806h5.799v4.269h-5.799z"/><path fill="#9F7A45" d="M68.624 380.047h4.268v27.786h-4.268z"/><path fill="#2E435A" d="M143.436 412.333H81.093v-4.5h62.344c.426 0 .772.346.772.772v2.956a.773.773 0 0 1-.773.772z"/><path fill="#3E6779" d="M142.872 407.833h-33.993v-27.786h17.034c3.325 0 6.434 1.651 8.296 4.406l6.949 10.284a10.015 10.015 0 0 1 1.715 5.605v7.491z"/><path fill="#F2F2F2" d="M117.038 396.489v-13.314h8.875a6.873 6.873 0 0 1 5.704 3.03l6.949 10.284h-21.528z"/><path fill="#282B48" d="M108.879 380.047h4.094v27.786h-4.094z"/><path fill="#1C2730" d="M95.299 404.298a8.035 8.035 0 0 0-8.036 8.035h16.071a8.034 8.034 0 0 0-8.035-8.035zm35.351 0a8.036 8.036 0 0 0-8.036 8.035h16.073a8.035 8.035 0 0 0-8.037-8.035z"/><circle fill="#282B48" cx="94.986" cy="412.333" r="6.772"/><circle fill="#F2F2F2" cx="94.986" cy="412.333" r="3.332"/><circle fill="#282B48" cx="130.338" cy="412.333" r="6.772"/><circle fill="#F2F2F2" cx="130.339" cy="412.333" r="3.333"/><path fill="#B53834" d="M78.19 402.916h2.903v2.762H78.19z"/><path fill="#E2504B" d="M81.093 402.916h2.903v2.762h-2.903z"/><path fill="#B53834" d="M60.254 402.916h2.901v2.762h-2.901zm60.661-3.856h-3.387a.49.49 0 0 1-.49-.49v-.966h4.367v.966a.49.49 0 0 1-.49.49z"/><path fill="#282B48" d="M120.915 398.699h-3.387a.49.49 0 0 1-.49-.49v-.605h4.367v.605a.49.49 0 0 1-.49.49z"/><path fill="#F2F2F2" d="M140.235 404.298a2.638 2.638 0 0 1 2.637-2.639v5.277a2.638 2.638 0 0 1-2.637-2.638z"/><path fill="#273543" d="M60.254 407.833h20.839c.738 0 1.336.597 1.336 1.335v1.828c0 .738-.598 1.336-1.336 1.336H60.254a1.336 1.336 0 0 1-1.336-1.336v-1.828c0-.737.598-1.335 1.336-1.335z"/><circle fill="#F2F2F2" cx="79.642" cy="410.083" r=".956"/><circle fill="#F2F2F2" cx="77.517" cy="410.083" r=".479"/><circle fill="#F2F2F2" cx="61.705" cy="410.083" r=".955"/><circle fill="#F2F2F2" cx="63.829" cy="410.083" r=".478"/><path fill="#4A4A4A" d="M125.991 499.589h25.034v6.037h-25.034z"/><path fill="#4E4E4E" d="M61.807 498.708h58.357v2.318H61.807z"/><path fill="#4A4A4A" d="M150.589 498.193h23.034v7.434h-23.034z"/><path fill="#383838" d="M75.385 500.489h5.465v3.162h-5.465z"/><path fill="#4E4E4E" d="M132.68 505.627h-13.256l1.505-3.019 3.037-2.29h3.249l2.817 1.361z"/><path fill="#333" d="M149.819 503.312H131.42l-1.302-1.845h19.701z"/><path fill="#961424" d="M138.829 500.318h2.187v2.29h-2.187z"/><path fill="#E0E0E0" d="M56.025 495.02h90.295v3.688H56.025z"/><path fill="#4E4E4E" d="M146.32 505.627h-13.256l1.507-3.019 3.037-2.29h3.248l2.816 1.361z"/><circle fill="#363636" cx="125.988" cy="506.317" r="5.059"/><circle fill="#E0E0E0" cx="125.988" cy="506.317" r="3.392"/><path fill="#C7C7C7" d="M125.991 501.679a4.638 4.638 0 1 0 0 9.275 4.638 4.638 0 0 0 0-9.275zm0 7.478a2.84 2.84 0 1 1 0-5.681 2.84 2.84 0 1 1 0 5.681z"/><circle fill="#4E4E4E" cx="125.988" cy="506.317" r="1.375"/><path fill="#666" d="M132.716 506.317h-1.092a5.643 5.643 0 0 0-.169-1.38 5.64 5.64 0 0 0-8.035-3.637 5.653 5.653 0 0 0-2.895 3.636c-.111.442-.17.904-.17 1.38v2.128h-1.093v-2.128a6.745 6.745 0 0 1 4.158-6.219 6.69 6.69 0 0 1 2.991-.494 6.727 6.727 0 0 1 6.164 5.333c.047.225.082.455.105.69.026.229.036.458.036.691z"/><path fill="#919191" d="M128.813 505.999a3.27 3.27 0 0 0-2.824-1.612 3.27 3.27 0 0 0-2.824 1.617 2.84 2.84 0 0 1 5.648-.005z"/><path fill="#4E4E4E" d="M78.685 505.627H65.429l1.507-3.019 3.036-2.29h3.249l2.817 1.361z"/><circle fill="#363636" cx="71.995" cy="506.317" r="5.059"/><circle fill="#E0E0E0" cx="71.994" cy="506.317" r="3.391"/><path fill="#C7C7C7" d="M71.993 501.679a4.638 4.638 0 0 0 0 9.275 4.637 4.637 0 0 0 0-9.275zm0 7.478a2.838 2.838 0 0 1-2.838-2.839 2.84 2.84 0 1 1 2.838 2.839z"/><circle fill="#4E4E4E" cx="71.994" cy="506.317" r="1.374"/><path fill="#666" d="M78.722 506.317H77.63a5.643 5.643 0 0 0-.17-1.38 5.641 5.641 0 0 0-8.036-3.637 5.653 5.653 0 0 0-2.895 3.636c-.11.442-.17.904-.17 1.38v2.128h-1.093v-2.128a6.743 6.743 0 0 1 4.158-6.219 6.696 6.696 0 0 1 2.99-.494 6.724 6.724 0 0 1 6.308 6.714z"/><path fill="#919191" d="M74.818 505.999a3.273 3.273 0 0 0-2.825-1.612 3.274 3.274 0 0 0-2.824 1.617 2.842 2.842 0 0 1 5.649-.005z"/><path d="M162.813 485.609l.516 6.36c.136.019.27.033.405.052.536.058 1.066.107 1.566.136 1.118.077 2.115.096 2.78.144h.006c.212.015.384.03.525.054.428.067.843.119 1.252.163l.019-1.325.072-5.585h-7.141zm.497.343h6.222l-.136 5.541-.478.294h-3.656l-.356-3.276h-1.026l-.135 3.276-.435-5.835zm9.087 5.666l.014.193c.006.015.006.024.006.038.015.164.029.318.039.462l.014.145c.005.096.014.182.019.269.004.083.01.159.015.227.163.044.318.096.477.154.077.03.153.058.231.092.059.02.115.044.173.067l-.274-1.479-.714-.168z" fill="#818795"/><path fill="#4E4E4E" d="M77.676 505.627h13.256l-1.506-3.019-3.035-2.29h-3.249l-2.819 1.361z"/><circle fill="#363636" cx="84.367" cy="506.317" r="5.058"/><circle fill="#E0E0E0" cx="84.367" cy="506.317" r="3.391"/><path fill="#C7C7C7" d="M79.731 506.318a4.638 4.638 0 0 0 4.636 4.636 4.638 4.638 0 0 0 0-9.275 4.638 4.638 0 0 0-4.636 4.639zm1.795 0a2.84 2.84 0 1 1 5.681-.003 2.84 2.84 0 0 1-5.681.003z"/><circle fill="#4E4E4E" cx="84.367" cy="506.317" r="1.374"/><path fill="#666" d="M77.64 506.317h1.092a5.643 5.643 0 0 1 .17-1.38 5.64 5.64 0 0 1 10.931-.001c.11.442.17.904.17 1.38v2.128h1.093v-2.128c0-.474-.048-.933-.142-1.38a6.742 6.742 0 0 0-4.015-4.839 6.7 6.7 0 0 0-2.991-.494 6.726 6.726 0 0 0-6.165 5.333 5.973 5.973 0 0 0-.105.69 5.67 5.67 0 0 0-.038.691z"/><path fill="#919191" d="M81.543 505.999a3.273 3.273 0 0 1 2.825-1.612 3.27 3.27 0 0 1 2.824 1.617 2.84 2.84 0 0 0-5.649-.005z"/><circle fill="#363636" cx="139.691" cy="506.317" r="5.058"/><circle fill="#E0E0E0" cx="139.692" cy="506.317" r="3.391"/><path fill="#C7C7C7" d="M139.692 501.679a4.639 4.639 0 0 0 0 9.275 4.637 4.637 0 0 0 0-9.275zm0 7.478a2.84 2.84 0 0 1 0-5.681 2.84 2.84 0 1 1 0 5.681z"/><circle fill="#4E4E4E" cx="139.691" cy="506.317" r="1.374"/><path fill="#919191" d="M142.518 505.999a3.275 3.275 0 0 0-2.826-1.612 3.27 3.27 0 0 0-2.824 1.617 2.84 2.84 0 1 1 5.65-.005z"/><circle fill="#363636" cx="161.834" cy="506.106" r="4.848"/><circle fill="#E0E0E0" cx="161.834" cy="506.106" r="3.25"/><path fill="#C7C7C7" d="M161.834 501.662a4.446 4.446 0 1 0 4.445 4.446 4.446 4.446 0 0 0-4.445-4.446zm0 7.166a2.722 2.722 0 0 1 0-5.445 2.723 2.723 0 1 1 0 5.445z"/><circle fill="#4E4E4E" cx="161.834" cy="506.106" r="1.317"/><path fill="#919191" d="M164.541 505.802a3.136 3.136 0 0 0-2.707-1.546 3.138 3.138 0 0 0-2.707 1.55 2.723 2.723 0 0 1 5.414-.004z"/><path fill="#666" d="M146.42 506.317h-1.092a5.85 5.85 0 0 0-.041-.69 5.64 5.64 0 0 0-8.163-4.327 5.65 5.65 0 0 0-2.895 3.636 5.658 5.658 0 0 0-.171 1.38v2.128h-1.093v-2.128a6.746 6.746 0 0 1 4.159-6.219 6.692 6.692 0 0 1 2.988-.494 6.727 6.727 0 0 1 6.166 5.333c.047.225.082.455.105.69.026.229.037.458.037.691z"/><path fill="#323232" d="M133.659 498.708h10.379v.881h-10.379z"/><path fill="#9DBC33" d="M56.025 473.218h90.295v21.803H56.025z"/><path opacity=".63" fill="#A1C8C0" d="M171.333 485.609c.853 3.373 1.107 6.24 1.174 7.343.415.116.824.27 1.23.482-.227-2.848-.689-5.873-1.585-7.825h-.819zm-8.52 0l.521 6.36c2.242.299 4.462.255 5.276.386.434.067.853.119 1.263.163l.086-6.909h-7.146z"/><path opacity=".53" fill="#FFF" d="M163.106 485.942l.194 2.354c.011-.006.027-.01.037-.016.469-.17.814-.556 1.37-.428.386.087.603.516 1.076.516.774 0 1.458-.685 2.231-.387.474.17.731.644 1.328.732.098.015.191.025.284.025l.035-2.796h-6.555z"/><path fill="#666" d="M154.918 498.961v1.287l2.349 2.347 2.047-1.717 3.363-.492 1.878.722 2.6 2.602v-5.071h-12.237z"/><path fill="#FFF" d="M151.393 482.738v16.223h12.832l3.21 1.918h6.505s.11-3.55-.202-7.439a5.916 5.916 0 0 0-1.23-.487c-.067-1.103-.321-3.97-1.174-7.343h.819a6.626 6.626 0 0 0-.419-.78c-.438-.689-1.85-1.162-3.749-1.48-5.104-.862-13.713-.635-16.266-.617-.123.005-.233.005-.326.005zm6.135 5.344c0-2.501 1.716-2.472 2.501-2.472h9.931l-.092 6.909a26.296 26.296 0 0 1-1.257-.163c-.82-.131-3.035-.087-5.276-.386-2.887-.376-5.807-1.311-5.807-3.888z"/><path fill="#C7C7C7" d="M171.415 496.893h.423v3.985h-.423zm-9.671-2.093a.623.623 0 0 0-.622.622v.822c0 .342.28.623.622.623h2.143c.342 0 .458-.227.256-.505l-.769-1.059c-.201-.277-.647-.504-.988-.504h-.642z"/><path fill="#666" d="M157.528 488.082c0 2.577 2.921 3.512 5.806 3.888l-.521-6.36h-2.784c-.785-.001-2.501-.029-2.501 2.472z"/><path fill="none" d="M162.813 485.609l.521 6.36c2.242.299 4.457.255 5.276.386.428.067.848.119 1.257.163l.092-6.909h-7.146z"/><path fill="#EDEDED" d="M151.718 479.505v3.228c2.553-.019 11.163-.246 16.266.617-.627-.848-1.966-1.05-1.966-1.05l-4.304-.482c-3.433-4.038-8.595-5.242-8.595-5.242l-1.401 2.929z"/><path opacity=".3" fill="#FFF" d="M152.607 479.735l7.227 2.444.963-.361z"/><path fill="#666" d="M150.589 482.94v17.308h4.034v-1.287h-3.23V482.94z"/><path fill="#7F7F7F" d="M155.884 504.753c.008-.036.01-.074.018-.109a5.73 5.73 0 0 1 .225-.788c.152-.428.35-.832.588-1.209l.065-.099a6.04 6.04 0 0 1 .945-1.111 6.178 6.178 0 0 1 1.066-.789c.043-.024.085-.049.128-.072a6.332 6.332 0 0 1 .599-.293c.031-.013.062-.021.094-.033.13-.051.262-.101.398-.144.075-.022.152-.042.229-.063a4.74 4.74 0 0 1 .55-.123 5.582 5.582 0 0 1 .555-.07c.036-.003.072-.009.109-.011.127-.008.252-.013.378-.013h.001c.127 0 .254.004.379.013.038.002.073.008.109.011a5.856 5.856 0 0 1 .555.07c.085.015.172.03.255.049.101.022.198.047.296.074.077.021.153.041.229.063.135.043.267.092.397.144.031.012.064.021.095.033a5.986 5.986 0 0 1 .599.293c.043.023.085.048.128.072.386.224.742.489 1.067.789l.088.082a6.183 6.183 0 0 1 .922 1.128 5.91 5.91 0 0 1 .635 1.34c.07.214.135.432.18.657.009.035.011.073.018.109.071.369.111.746.111 1.134v1.916h-.984v-1.916a5.045 5.045 0 0 0-.305-1.73l-.041-.107a5.133 5.133 0 0 0-.159-.364l-.055-.111a4.787 4.787 0 0 0-.245-.43 5.413 5.413 0 0 0-.294-.408c-.019-.024-.04-.048-.061-.072a6.817 6.817 0 0 0-.265-.299l-.096-.096a5.001 5.001 0 0 0-.285-.259l-.084-.073c-.128-.103-.26-.2-.397-.291-.021-.013-.042-.024-.062-.038a5.227 5.227 0 0 0-.358-.208c-.042-.023-.088-.044-.134-.067a4.68 4.68 0 0 0-.383-.169l-.109-.045a4.949 4.949 0 0 0-.506-.156l-.107-.022a4.848 4.848 0 0 0-.433-.079l-.146-.02a5.33 5.33 0 0 0-.553-.033 5.295 5.295 0 0 0-1.131.132l-.108.022c-.173.044-.34.095-.505.156a1.805 1.805 0 0 0-.11.045c-.13.051-.258.107-.384.169l-.134.067a5.18 5.18 0 0 0-.356.208c-.021.014-.043.025-.063.038a5.94 5.94 0 0 0-.397.291l-.085.073a4.636 4.636 0 0 0-.284.259l-.096.096a5.774 5.774 0 0 0-.265.299c-.019.024-.041.048-.061.072a5.39 5.39 0 0 0-.292.408l-.024.042c-.08.126-.153.256-.221.388l-.056.112c-.057.118-.11.24-.157.363-.015.035-.028.071-.042.107a5.093 5.093 0 0 0-.305 1.73v1.916h-.985v-1.916a6.15 6.15 0 0 1 .112-1.134z"/><path fill="#48464D" d="M169.626 484.998v3.243a.394.394 0 0 0 .393-.393v-2.456a.395.395 0 0 0-.393-.394z"/><path fill="#605E67" d="M169.401 484.998h.225v3.243h-.225zm.618.566v.966h1.466a.48.48 0 0 0 .481-.484.48.48 0 0 0-.481-.481h-1.466z"/><path opacity=".53" fill="#FFF" d="M168.912 492.884l-.723.522-6.242-.964z"/><path opacity=".53" fill="#E0E0E0" d="M173.112 493.434v4.157h.511l-.238-3.84zm0 4.759h.511v2.409h-.511z"/><path fill="#7F7F7F" d="M171.627 505.857c0 .266.215.482.482.482h1.214a.482.482 0 0 0 .482-.482v-2.515a.482.482 0 0 0-.482-.482h-1.214a.481.481 0 0 0-.482.482v2.515z"/><path fill="#7F7F7F" d="M173.448 506.321c-1.541.439-3.738.906-5.093.906v-1.6h4.757l.336.694zm-5.093-3.46h4.005v1.566h-4.005z"/><path fill="#7F7F7F" d="M168.355 504.156h2.831v1.972h-2.831zm-1.2-2.981h6.65v.415h-6.65z"/><path fill="#D9882E" d="M172.715 501.59h1.336v2.053h-1.336z"/><path fill="#EDEDED" d="M172.063 501.59h.652v2.053h-.652z"/><path fill="#E0E0E0" d="M154.917 493.661v4.534h4.982v-4.534h-4.982zm.309.322h4.35v3.932h-4.35v-3.932zm-.308-10.36h.282v9.642h-.282z"/><path fill="#666" d="M94.811 498.708h19.274v5.309H94.811z"/><circle fill="#D9882E" cx="96.719" cy="502.209" r=".763"/><circle fill="#D9882E" cx="112.136" cy="502.209" r=".763"/><path fill="#BBBDC2" d="M94.811 498.708h19.274v1.61H94.811z"/><path opacity=".17" fill="#FFF" d="M144.038 475.534H58.482v2.104l85.556-1.403z"/><g fill="#A3C32A"><path d="M99.65 140.79c.41-.242.859-.33 1.289-.267.101-.029 1.706-.47 3.365-.926.003-.128.011-.255.011-.382 0-2.02-.306-3.969-.87-5.804l-3.497.037c-1.053.483-2.421-.099-3.188-1.405a3.492 3.492 0 0 1-.462-1.289 2.716 2.716 0 0 1 .052-1.078c.119-.46.379-.837.719-1.097.058-.095.88-1.544 1.728-3.04a19.744 19.744 0 0 0-4.979-3.761l-2.441 2.495c-.405 1.087-1.787 1.643-3.252 1.264-.861-.224-1.577-.728-1.965-1.389a2.13 2.13 0 0 1-.275-.771 1.97 1.97 0 0 1 .01-.515c-.03-.104-.47-1.71-.928-3.368-.129-.002-.252-.01-.38-.01-2.02 0-3.967.305-5.805.868.021 1.72.038 3.381.038 3.497.075.165.133.33.155.506.134.958-.458 2.035-1.561 2.686-1.304.766-2.784.615-3.475-.318-.101-.057-1.541-.875-3.03-1.723a19.788 19.788 0 0 0-3.761 4.984c1.23 1.203 2.421 2.37 2.498 2.447.405.153.758.444 1 .855.175.303.296.65.346 1.02.061.438.035.903-.086 1.371-.223.86-.729 1.574-1.385 1.962a1.98 1.98 0 0 1-1.291.266c-.105.029-1.708.472-3.366.928-.003.127-.009.252-.009.381 0 2.018.303 3.968.87 5.803l3.494-.039c1.056-.48 2.423.101 3.19 1.405.25.426.404.872.464 1.303.127.887-.149 1.709-.781 2.173l-1.723 3.031a19.773 19.773 0 0 0 4.983 3.763 2202.22 2202.22 0 0 0 2.444-2.501c.155-.403.446-.757.86-.997.656-.389 1.528-.482 2.389-.261 1.236.319 2.109 1.192 2.242 2.149.023.173.015.35-.013.526l.926 3.367c.128.001.257.009.384.009 2.02 0 3.968-.307 5.804-.869-.021-1.72-.037-3.384-.038-3.5a1.894 1.894 0 0 1-.159-.504c-.134-.955.458-2.033 1.563-2.684 1.307-.766 2.787-.614 3.475.318.101.058 1.541.878 3.033 1.724a19.977 19.977 0 0 0 3.762-4.983L99.522 146a1.966 1.966 0 0 1-.998-.857 2.81 2.81 0 0 1-.346-1.019 3.52 3.52 0 0 1 .084-1.37c.226-.861.728-1.576 1.388-1.964zm-22.487-.53a7.51 7.51 0 0 1 6.394-8.481 7.518 7.518 0 0 1 8.485 6.391 7.517 7.517 0 0 1-6.396 8.483c-4.109.575-7.909-2.284-8.483-6.393z"/><path d="M84.438 139.247h.095c.066-.023.132-.035.196-.063l-.291.063z"/><path d="M84.438 139.247h.095c.066-.023.132-.035.196-.063l-.291.063z"/><path d="M84.438 139.247h.095c.066-.023.132-.035.196-.063l-.291.063z"/><path d="M84.438 139.247h.095c.066-.023.132-.035.196-.063l-.291.063zm37.577-21.636c.291-.173.611-.235.918-.19.072-.021 1.215-.335 2.396-.66.002-.091.006-.182.006-.272 0-1.438-.217-2.825-.617-4.132-1.226.014-2.41.025-2.49.026-.751.345-1.724-.07-2.271-1a2.457 2.457 0 0 1-.329-.918 1.953 1.953 0 0 1 .036-.768c.085-.327.272-.595.512-.78.041-.068.627-1.1 1.23-2.165a14.055 14.055 0 0 0-3.546-2.678l-1.737 1.776c-.29.773-1.273 1.169-2.315.9-.614-.159-1.123-.519-1.398-.988a1.509 1.509 0 0 1-.197-.549 1.408 1.408 0 0 1 .007-.367l-.661-2.398c-.091-.001-.179-.006-.27-.006-1.438 0-2.825.216-4.134.617.016 1.225.026 2.408.026 2.49.055.118.096.235.111.361.096.682-.326 1.449-1.111 1.912-.928.545-1.98.438-2.473-.227l-2.158-1.227a14.095 14.095 0 0 0-2.678 3.548l1.778 1.742c.289.11.54.317.712.609.124.216.212.463.247.726.042.312.024.642-.063.976-.157.613-.518 1.122-.986 1.398a1.403 1.403 0 0 1-.919.189l-2.397.661c-.001.09-.005.179-.005.271a14 14 0 0 0 .619 4.133c1.223-.015 2.409-.027 2.488-.028.752-.341 1.726.072 2.271 1.001.179.303.288.621.329.927.091.632-.104 1.218-.556 1.547-.04.073-.623 1.097-1.227 2.159a14.104 14.104 0 0 0 3.549 2.679l1.74-1.78c.11-.288.318-.54.612-.71.469-.277 1.089-.343 1.702-.186.879.228 1.501.849 1.597 1.53.015.124.01.25-.009.375.02.076.335 1.217.658 2.398.09.001.183.006.273.006 1.439 0 2.824-.219 4.133-.619-.016-1.225-.027-2.409-.028-2.492a1.286 1.286 0 0 1-.113-.358c-.095-.681.327-1.448 1.113-1.912.931-.545 1.983-.437 2.474.227.072.042 1.096.625 2.159 1.228a14.227 14.227 0 0 0 2.68-3.549 514.018 514.018 0 0 1-1.781-1.742 1.393 1.393 0 0 1-.71-.61 1.935 1.935 0 0 1-.246-.726 2.474 2.474 0 0 1 .059-.975c.162-.615.521-1.125.99-1.4zm-16.011-.379a5.347 5.347 0 0 1 4.552-6.039 5.355 5.355 0 0 1 6.043 4.55 5.354 5.354 0 0 1-4.555 6.041 5.345 5.345 0 0 1-6.04-4.552z"/><path d="M111.184 116.512h.066c.048-.016.095-.025.14-.045l-.206.045z"/><path d="M111.184 116.512h.066c.048-.016.095-.025.14-.045l-.206.045z"/><path d="M111.184 116.512h.066c.048-.016.095-.025.14-.045l-.206.045z"/><path d="M111.184 116.512h.066c.048-.016.095-.025.14-.045l-.206.045z"/></g><g fill="#E9AD3E"><path d="M120.161 203.797a11.85 11.85 0 0 1-1.959-4.886L81.83 224.147a11.44 11.44 0 0 1 3.926 3.521 11.47 11.47 0 0 1 1.86 4.524l36.095-25.044a11.847 11.847 0 0 1-3.55-3.351z"/><path d="M141.733 195.443l-6.534 4.535c-1.148.796-3.364-.415-5.055-2.705.013.023.024.045.038.067a7.495 7.495 0 0 1-.242-.332c-1.709-2.465-2.13-5.137-.939-5.965l6.537-4.532a11.903 11.903 0 0 0-12.383.719c-3.89 2.698-5.659 7.299-4.953 11.681.274 1.702.91 3.374 1.959 4.886a11.863 11.863 0 0 0 3.55 3.352c3.902 2.395 9.008 2.419 13.013-.36 3.793-2.63 5.579-7.063 5.009-11.346zm-13.023 4.983c.634.922.462 2.148-.396 2.742a1.67 1.67 0 0 1-.334.182c-.817.341-1.816.036-2.375-.77l-2.376-3.419c-.558-.806-.492-1.849.109-2.496.085-.091.18-.174.287-.25a1.83 1.83 0 0 1 .334-.18c.818-.338 1.816-.037 2.377.769l2.374 3.422zm7.882 6.174c-5.287 3.669-12.573 2.35-16.24-2.939a11.661 11.661 0 0 1-2.017-5.45c.29 1.588.911 3.137 1.887 4.541 3.667 5.288 10.953 6.605 16.237 2.935 3.232-2.237 5.056-5.891 4.989-9.762a.737.737 0 0 0 .082-.057c.417 4.224-1.443 8.304-4.938 10.732z"/><path d="M129.939 197.009c.077.115.161.227.242.332l-.038-.067c-1.48-2.346-1.8-4.772-.675-5.554l6.535-4.537c-.276-.148-.179-.548-.465-.67L129 191.044c-1.191.828-.77 3.5.939 5.965z"/><path d="M141.448 195.925c.067 3.871-1.757 7.525-4.989 9.762-5.284 3.67-12.57 2.353-16.237-2.935a11.578 11.578 0 0 1-1.887-4.541 11.661 11.661 0 0 0 2.017 5.45c3.667 5.289 10.953 6.608 16.24 2.939 3.495-2.428 5.354-6.508 4.938-10.732a.494.494 0 0 1-.082.057z"/><path d="M123.96 196.234c.808-.33 1.802-.025 2.362.784l2.372 3.416c.639.921.467 2.144-.379 2.733.859-.594 1.03-1.82.396-2.742l-2.373-3.422c-.562-.805-1.56-1.106-2.378-.769zm1.662 6.336l-2.372-3.42c-.561-.808-.5-1.845.089-2.485-.601.648-.667 1.69-.109 2.496l2.376 3.419c.559.806 1.558 1.111 2.375.77-.806.332-1.802.023-2.359-.78zM81.83 224.147c-3.703-2.027-8.381-1.943-12.089.627a11.498 11.498 0 0 0-4.844 10.967l6.319-4.386c1.11-.768 3.252.402 4.889 2.618-.014-.022-.024-.044-.038-.065.078.104.156.21.233.319 1.654 2.383 2.064 4.97.911 5.768l-6.321 4.385a11.506 11.506 0 0 0 11.969-.698c3.815-2.651 5.522-7.197 4.755-11.489a11.398 11.398 0 0 0-5.784-8.046zm-4.341 6.778c-.614-.89-.445-2.075.387-2.65.102-.072.211-.131.323-.176.787-.327 1.755-.037 2.294.744l2.294 3.304c.533.768.474 1.761-.088 2.387a1.6 1.6 0 0 1-.3.267c-.827.578-1.999.319-2.617-.567l-2.293-3.309zm10.03 2.14a11.165 11.165 0 0 0-1.824-4.39c-3.546-5.111-10.587-6.385-15.698-2.838-3.124 2.163-4.887 5.698-4.824 9.438-.032.021-.059.04-.079.055-.401-4.081 1.395-8.026 4.778-10.375 5.108-3.545 12.151-2.272 15.696 2.837a11.25 11.25 0 0 1 1.951 5.273z"/><path d="M76.301 234.226a13.847 13.847 0 0 0-.233-.319c.014.022.024.044.038.065 1.43 2.266 1.743 4.613.652 5.369l-6.318 4.386c.269.144.173.53.452.652l6.321-4.385c1.152-.798.742-3.384-.912-5.768z"/><path d="M69.873 224.956c-3.383 2.349-5.178 6.294-4.778 10.375a.857.857 0 0 1 .079-.055c-.063-3.74 1.7-7.275 4.824-9.438 5.11-3.547 12.152-2.274 15.698 2.838a11.165 11.165 0 0 1 1.824 4.39 11.252 11.252 0 0 0-1.95-5.272c-3.546-5.11-10.589-6.383-15.697-2.838z"/><path d="M82.399 234.801c-.815.571-1.981.307-2.599-.58l-2.295-3.303c-.615-.893-.45-2.076.37-2.643-.831.574-1.001 1.76-.387 2.65l2.293 3.309c.619.886 1.791 1.146 2.618.567zm-1.923-5.948l2.293 3.307c.536.77.484 1.754-.069 2.374.561-.627.621-1.619.088-2.387l-2.294-3.304c-.54-.78-1.507-1.07-2.294-.744.776-.32 1.738-.023 2.276.754z"/></g><path fill="#5D5E59" d="M94.434 274.561c-18.239 0-33.013 14.669-33.013 32.774 0 18.094 14.775 32.772 33.013 32.772 18.222 0 32.996-14.678 32.996-32.772 0-18.105-14.773-32.774-32.996-32.774zm22.596 32.929c0 12.398-10.119 22.448-22.604 22.448-12.481 0-22.603-10.05-22.603-22.448 0-.233.029-.459.036-.69l-.02.002c.007-.266.042-.53.06-.795.024-.359.041-.72.082-1.075.029-.242.074-.479.111-.72.119-.813.283-1.612.489-2.396.045-.174.081-.35.131-.521.001-.008.001-.014.004-.019l.034-.11c.07-.239.146-.474.224-.711.03-.088.054-.18.085-.269l.016-.004.044-.118.04-.121c0-.005-.001-.005-.004-.007.012-.029.026-.058.036-.089.035-.095.074-.188.112-.281a22.222 22.222 0 0 1 .715-1.678l.103-.203c.249-.506.512-1.003.798-1.487.188-.329.388-.654.594-.973.082-.125.159-.252.243-.373.018-.028.034-.055.053-.081a.022.022 0 0 0 .005.004 22.625 22.625 0 0 1 12.211-8.797c-.002-.004-.002-.008-.006-.011a21.38 21.38 0 0 1 1.606-.398 22.552 22.552 0 0 1 2.184-.356c.255-.029.513-.049.771-.071.115-.009.228-.024.343-.03l-.005-.018c.126-.01.25-.01.377-.011.295-.017.589-.028.886-.028h.156c.032 0 .061-.005.092-.005.03 0 .06.005.091.005.076 0 .153-.002.231 0a19.775 19.775 0 0 1 1.336.05c.17.012.338.036.509.053.107.01.213.023.32.034.176.019.352.034.529.056.041.002.079.009.12.016.385.052.766.128 1.148.201.116.022.234.036.349.06.603.123 1.203.267 1.798.442a.253.253 0 0 0-.007.016 22.634 22.634 0 0 1 12.2 8.801l.014-.013c.412.596.778 1.212 1.125 1.837.068.123.137.247.204.371.066.126.14.247.204.373l.001-.003c.026.048.046.1.071.151.163.329.311.658.457.99.067.155.137.307.201.462l.087.218c.072.179.152.356.221.539l-.015.014c.102.275.216.545.306.828.019.055.034.11.051.166.026.082.05.166.075.249.017.058.036.116.053.176l.013.003c.164.55.293 1.111.414 1.676.012.056.03.109.041.166.155.749.28 1.506.357 2.27l.035.408c.019.259.033.52.046.783.007.149.014.296.018.447-.01-.001-.021-.001-.031-.004.004.201.029.398.029.599z"/><path fill="#5D5E59" d="M104.121 310.607c-1.088 3.324 2.406 7.56 8.191 10.509a22.443 22.443 0 0 1-10.366 7.429c-1.052-6.302-4.015-10.845-7.51-10.845-3.496 0-6.46 4.546-7.512 10.854a22.63 22.63 0 0 1-10.373-7.434c5.095-2.59 8.41-6.181 8.394-9.273a4.016 4.016 0 0 0-.192-1.333c-1.091-3.333-6.447-4.72-12.894-3.713-.008.231-.036.457-.036.69 0 12.398 10.121 22.448 22.603 22.448 12.485 0 22.604-10.05 22.604-22.448 0-.202-.025-.399-.031-.6-6.44-1-11.789.393-12.878 3.716z"/><path d="M96.593 285.157l.32.034c-.107-.011-.213-.024-.32-.034zm-2.168-.108c-.031 0-.06.005-.092.005h.183c-.031 0-.061-.005-.091-.005zm4.284.416c.116.022.233.036.349.06-.115-.024-.233-.038-.349-.06zm-6.903-.253c.257-.028.513-.05.771-.071-.258.022-.516.042-.771.071z"/><path fill="#5D5E59" d="M88.454 299.309c2.856-2.059 2.528-7.555-.433-13.331a22.628 22.628 0 0 0-12.211 8.797c4.622 4.588 9.787 6.593 12.644 4.534zm11.965 0c2.854 2.06 8.015.056 12.631-4.525a22.63 22.63 0 0 0-12.2-8.801c-2.96 5.774-3.287 11.268-.431 13.326z"/><path fill="#FFF" d="M94.177 285.054c-.297 0-.59.011-.886.028-.127.001-.251.001-.377.011l.005.018c-.114.006-.228.021-.343.03a22.71 22.71 0 0 1 1.757-.087h-.156zm18.887 9.717l-.014.013a22.7 22.7 0 0 1 1.139 1.824 22.032 22.032 0 0 0-1.125-1.837zm-12.207-8.804a22.226 22.226 0 0 0-1.798-.442c.607.126 1.203.284 1.791.458a.253.253 0 0 1 .007-.016zm-4.773-.863a19.775 19.775 0 0 0-1.336-.05c-.078-.002-.155 0-.231 0 .7.002 1.392.039 2.076.103-.17-.017-.339-.041-.509-.053zm-5.948.361zm-2.12.502c.003.003.004.007.006.011a22.575 22.575 0 0 1 1.6-.409 20.79 20.79 0 0 0-1.606.398zm9.545-.703c-.041-.007-.079-.014-.12-.016-.177-.022-.353-.037-.529-.056.607.066 1.205.16 1.796.273-.381-.074-.762-.149-1.147-.201z"/><path fill="#5D5E59" d="M94.433 300.903c-3.581 0-6.483 2.882-6.483 6.437 0 3.557 2.902 6.44 6.483 6.44 3.58 0 6.484-2.883 6.484-6.44 0-3.556-2.904-6.437-6.484-6.437zm0 8.537a2.11 2.11 0 0 1-2.116-2.101c0-1.162.948-2.102 2.116-2.102 1.17 0 2.116.94 2.116 2.102a2.106 2.106 0 0 1-2.116 2.101z"/><path fill="#FFF" d="M91.192 303.296a1.13 1.13 0 0 0-1.133 1.125c0 .623.507 1.124 1.133 1.124a1.124 1.124 0 1 0 0-2.249zm-.658 4.701c-.626 0-1.131.5-1.131 1.122 0 .619.505 1.124 1.131 1.124a1.13 1.13 0 0 0 1.132-1.124 1.127 1.127 0 0 0-1.132-1.122zm4.701 2.172a1.13 1.13 0 0 0-1.132 1.126c0 .618.506 1.12 1.132 1.12.624 0 1.131-.503 1.131-1.12 0-.622-.506-1.126-1.131-1.126zm2.186-2.065c0 .619.507 1.121 1.131 1.121.625 0 1.13-.501 1.13-1.121 0-.619-.505-1.124-1.13-1.124-.625 0-1.131.505-1.131 1.124zm-1.288-5.574c-.625 0-1.132.504-1.132 1.126 0 .618.507 1.121 1.132 1.121.624 0 1.131-.504 1.131-1.121 0-.623-.507-1.126-1.131-1.126z"/><path fill="#FFF" d="M94.426 335.167c-15.347 0-27.833-12.486-27.833-27.833s12.486-27.833 27.833-27.833c15.347 0 27.833 12.486 27.833 27.833s-12.486 27.833-27.833 27.833zm0-55.117c-15.045 0-27.284 12.24-27.284 27.284s12.24 27.284 27.284 27.284c15.045 0 27.284-12.24 27.284-27.284s-12.24-27.284-27.284-27.284z"/><path fill="#A3C32A" d="M202.397 119.485h119.675v19.699H202.397zm0 83.458h82.675v19.699h-82.675zm0 89.861h41.337v19.699h-41.337zm0 94.421h82.675v19.699h-82.675zm0 92.447h71.437v19.699h-71.437z"/></svg>