<svg xmlns="http://www.w3.org/2000/svg" width="273.583" height="88.449" viewBox="-95.058 16.406 273.583 88.449"><path fill="#4A4A4A" d="M67.121 77.535h58.028V91.53H67.121z"/><path fill="#4E4E4E" d="M-81.656 75.492H53.616v5.373H-81.656z"/><path fill="#4A4A4A" d="M124.141 74.299h53.393V91.53h-53.393z"/><path fill="#383838" d="M-50.183 79.62h12.668v7.331h-12.668z"/><path fill="#4E4E4E" d="M82.626 91.53H51.9l3.489-6.999 7.038-5.307h7.533l6.53 3.155z"/><path fill="#333" d="M122.354 86.164H79.706l-3.017-4.277h45.665z"/><path fill="#961424" d="M96.881 79.224h5.069v5.308h-5.069z"/><path fill="#E0E0E0" d="M-95.058 66.944h209.303v8.548H-95.058z"/><path fill="#4E4E4E" d="M114.245 91.53H83.517l3.494-6.999 7.038-5.307h7.529l6.53 3.155z"/><circle fill="#363636" cx="67.115" cy="93.129" r="11.727"/><circle fill="#E0E0E0" cx="67.116" cy="93.129" r="7.861"/><path fill="#C7C7C7" d="M67.121 82.379c-5.938 0-10.752 4.813-10.752 10.753 0 5.932 4.814 10.747 10.752 10.747 5.928 0 10.742-4.814 10.742-10.747 0-5.94-4.813-10.753-10.742-10.753zm0 17.333a6.582 6.582 0 0 1-6.586-6.58 6.585 6.585 0 1 1 6.586 6.58z"/><circle fill="#4E4E4E" cx="67.116" cy="93.129" r="3.187"/><path fill="#666" d="M82.71 93.13h-2.531c0-.539-.031-1.071-.094-1.6a15.002 15.002 0 0 0-.298-1.6c-1.431-5.667-6.561-9.862-12.666-9.862-2.148 0-4.175.517-5.959 1.433a13.095 13.095 0 0 0-6.71 8.429 13.136 13.136 0 0 0-.395 3.199v4.932h-2.532V93.13c0-1.098.111-2.163.331-3.199 1.061-5.089 4.605-9.27 9.307-11.217a15.496 15.496 0 0 1 6.933-1.145c7.079.436 12.877 5.591 14.287 12.362.108.522.189 1.055.244 1.6.06.527.083 1.059.083 1.599z"/><path fill="#919191" d="M73.663 92.392a7.58 7.58 0 0 0-6.547-3.737 7.588 7.588 0 0 0-6.547 3.748 6.585 6.585 0 0 1 6.547-5.879 6.581 6.581 0 0 1 6.547 5.868z"/><path fill="#4E4E4E" d="M-42.532 91.53H-73.26l3.493-6.999 7.038-5.307h7.531l6.529 3.155z"/><path fill="#363636" d="M-46.314 93.129c0 6.477-5.251 11.726-11.731 11.726-6.475 0-11.723-5.249-11.723-11.726 0-6.478 5.248-11.726 11.723-11.726 6.481 0 11.731 5.248 11.731 11.726z"/><path fill="#E0E0E0" d="M-50.183 93.129a7.86 7.86 0 1 1-15.72 0 7.858 7.858 0 0 1 7.858-7.86 7.858 7.858 0 0 1 7.862 7.86z"/><path fill="#C7C7C7" d="M-58.044 82.379c-5.931 0-10.746 4.813-10.746 10.753 0 5.932 4.815 10.747 10.746 10.747 5.936 0 10.75-4.814 10.75-10.747-.001-5.94-4.814-10.753-10.75-10.753zm0 17.333a6.579 6.579 0 0 1-6.579-6.58 6.58 6.58 0 0 1 6.579-6.588 6.583 6.583 0 0 1 6.588 6.588 6.582 6.582 0 0 1-6.588 6.58z"/><path fill="#4E4E4E" d="M-54.858 93.129a3.182 3.182 0 0 1-3.187 3.186 3.184 3.184 0 0 1-3.183-3.186 3.186 3.186 0 1 1 6.37 0z"/><path fill="#666" d="M-42.448 93.13h-2.532c0-.539-.032-1.071-.096-1.6a14.514 14.514 0 0 0-.296-1.6c-1.43-5.667-6.562-9.862-12.673-9.862-2.141 0-4.168.517-5.955 1.433a13.1 13.1 0 0 0-6.711 8.429 13.233 13.233 0 0 0-.393 3.199v4.932h-2.534V93.13c0-1.098.113-2.163.333-3.199 1.06-5.089 4.607-9.27 9.305-11.217a15.503 15.503 0 0 1 6.93-1.145c7.086.436 12.887 5.591 14.293 12.362.108.522.189 1.055.244 1.6.061.527.085 1.059.085 1.599z"/><path fill="#919191" d="M-51.495 92.392a7.589 7.589 0 0 0-6.549-3.737 7.587 7.587 0 0 0-6.545 3.748 6.585 6.585 0 1 1 13.094-.011z"/><path d="M152.475 45.13l1.197 14.743c.315.045.627.077.938.121 1.242.135 2.47.247 3.631.314 2.592.178 4.902.223 6.445.333h.013c.491.034.891.069 1.216.126.993.156 1.953.277 2.903.378l.045-3.071.167-12.945h-16.555zm1.152.793h14.422l-.315 12.844-1.108.681h-8.475l-.825-7.594h-2.378l-.314 7.594-1.007-13.525zm21.064 13.134l.032.448c.013.034.013.056.013.089.034.38.066.738.09 1.072.011.112.02.224.033.336.011.224.033.423.045.624.009.194.024.369.034.526.377.102.736.224 1.105.357.179.069.354.135.535.213.136.046.267.102.402.156l-.635-3.428-1.654-.393z" fill="#818795"/><path fill="#4E4E4E" d="M-44.871 91.53h30.728l-3.493-6.999-7.034-5.307h-7.532l-6.532 3.155z"/><circle fill="#363636" cx="-29.361" cy="93.129" r="11.725"/><circle fill="#E0E0E0" cx="-29.361" cy="93.129" r="7.86"/><path fill="#C7C7C7" d="M-40.108 93.133c0 5.932 4.814 10.747 10.747 10.747 5.934 0 10.748-4.814 10.748-10.747 0-5.94-4.814-10.753-10.748-10.753-5.932-.001-10.747 4.812-10.747 10.753zm4.161 0a6.586 6.586 0 0 1 13.171 0c0 3.634-2.95 6.58-6.585 6.58a6.584 6.584 0 0 1-6.586-6.58z"/><circle fill="#4E4E4E" cx="-29.361" cy="93.129" r="3.185"/><path fill="#666" d="M-44.955 93.13h2.532c0-.539.032-1.071.096-1.6a16.07 16.07 0 0 1 .296-1.6c1.43-5.667 6.558-9.862 12.671-9.862 2.143 0 4.169.517 5.957 1.433a13.092 13.092 0 0 1 6.71 8.429c.256 1.026.395 2.095.395 3.199v4.932h2.533V93.13c0-1.098-.112-2.163-.33-3.199-1.06-5.089-4.607-9.27-9.307-11.217a15.516 15.516 0 0 0-6.932-1.145c-7.081.436-12.881 5.591-14.291 12.362a13.704 13.704 0 0 0-.244 1.6 13.663 13.663 0 0 0-.086 1.599z"/><path fill="#919191" d="M-35.909 92.392a7.589 7.589 0 0 1 6.548-3.737 7.582 7.582 0 0 1 6.547 3.748 6.585 6.585 0 0 0-13.095-.011z"/><circle fill="#363636" cx="98.879" cy="93.129" r="11.725"/><circle fill="#E0E0E0" cx="98.881" cy="93.129" r="7.86"/><path fill="#C7C7C7" d="M98.88 82.379c-5.933 0-10.749 4.813-10.749 10.753 0 5.932 4.816 10.747 10.749 10.747 5.936 0 10.748-4.814 10.748-10.747 0-5.94-4.811-10.753-10.748-10.753zm0 17.333a6.582 6.582 0 0 1-6.581-6.58 6.583 6.583 0 0 1 6.581-6.588 6.585 6.585 0 0 1 6.59 6.588 6.582 6.582 0 0 1-6.59 6.58z"/><path fill="#4E4E4E" d="M102.064 93.129a3.186 3.186 0 1 1-3.184-3.187 3.183 3.183 0 0 1 3.184 3.187z"/><path fill="#919191" d="M105.432 92.392a7.593 7.593 0 0 0-6.55-3.737 7.579 7.579 0 0 0-6.545 3.748 6.586 6.586 0 0 1 13.095-.011z"/><circle fill="#363636" cx="150.206" cy="92.641" r="11.238"/><circle fill="#E0E0E0" cx="150.206" cy="92.641" r="7.534"/><path fill="#C7C7C7" d="M150.205 82.339c-5.686 0-10.302 4.612-10.302 10.306 0 5.687 4.616 10.302 10.302 10.302 5.691 0 10.302-4.615 10.302-10.302.001-5.694-4.611-10.306-10.302-10.306zm0 16.612a6.311 6.311 0 0 1 0-12.621 6.31 6.31 0 1 1 0 12.621z"/><circle fill="#4E4E4E" cx="150.207" cy="92.641" r="3.052"/><path fill="#919191" d="M156.481 91.936a7.267 7.267 0 0 0-6.276-3.583 7.269 7.269 0 0 0-6.274 3.593 6.313 6.313 0 0 1 12.55-.01z"/><path fill="#666" d="M114.476 93.13h-2.531c0-.539-.033-1.071-.095-1.6a14.068 14.068 0 0 0-.3-1.6c-1.43-5.667-6.559-9.862-12.668-9.862-2.142 0-4.167.517-5.956 1.433a13.094 13.094 0 0 0-6.711 8.429 13.087 13.087 0 0 0-.397 3.199v4.932h-2.533V93.13c0-1.098.114-2.163.332-3.199 1.061-5.089 4.608-9.27 9.308-11.217a15.496 15.496 0 0 1 6.928-1.145c7.081.436 12.884 5.591 14.293 12.362.109.522.19 1.055.244 1.6.061.527.086 1.059.086 1.599z"/><path fill="#323232" d="M84.897 75.492h24.058v2.043H84.897z"/><path fill="#9DBC33" d="M-95.058 16.406h209.303v50.538H-95.058z"/><path opacity=".63" fill="#A1C8C0" d="M172.225 45.13c1.977 7.818 2.566 14.464 2.721 17.02.962.268 1.911.626 2.85 1.117-.526-6.601-1.597-13.614-3.674-18.138h-1.897zm-19.75 0l1.208 14.743c5.196.693 10.342.59 12.231.894 1.006.156 1.978.277 2.927.378l.2-16.016h-16.566z"/><path opacity=".53" fill="#FFF" d="M153.154 45.9l.451 5.457c.026-.014.062-.023.086-.037 1.086-.394 1.887-1.29 3.176-.991.894.202 1.397 1.196 2.494 1.196 1.793 0 3.379-1.589 5.172-.898 1.099.395 1.695 1.492 3.078 1.697.227.036.443.057.658.057l.081-6.481h-15.196z"/><path fill="#666" d="M134.175 76.078v2.983l5.444 5.442 4.746-3.982 7.794-1.14 4.355 1.675 6.026 6.029V75.332h-28.365z"/><path fill="#FFF" d="M126.005 38.474v37.604h29.744l7.44 4.445h15.077s.255-8.23-.469-17.244a13.823 13.823 0 0 0-2.85-1.13c-.155-2.557-.744-9.202-2.721-17.02h1.897a15.55 15.55 0 0 0-.971-1.809c-1.016-1.598-4.289-2.692-8.689-3.43-11.83-1.999-31.786-1.472-37.705-1.429-.282.013-.54.013-.753.013zm14.219 12.386c0-5.796 3.978-5.73 5.797-5.73h23.02l-.214 16.016a60.22 60.22 0 0 1-2.913-.378c-1.9-.304-7.035-.201-12.231-.894-6.689-.872-13.459-3.04-13.459-9.014z"/><path fill="#C7C7C7" d="M172.415 71.284h.98v9.237h-.98zm-22.417-4.85c-.794 0-1.442.65-1.442 1.443v1.906c0 .793.648 1.444 1.442 1.444h4.967c.793 0 1.061-.527.594-1.17l-1.782-2.455c-.466-.642-1.5-1.167-2.291-1.167h-1.488z"/><path fill="#666" d="M140.224 50.86c0 5.974 6.771 8.142 13.459 9.013l-1.208-14.743h-6.454c-1.819 0-5.797-.066-5.797 5.73z"/><path fill="none" d="M152.475 45.13l1.208 14.743c5.196.693 10.331.59 12.231.894.993.156 1.965.277 2.913.378l.214-16.016h-16.566z"/><path fill="#EDEDED" d="M126.757 30.98v7.482c5.919-.043 25.875-.57 37.705 1.429-1.453-1.965-4.558-2.434-4.558-2.434l-9.977-1.117c-7.959-9.359-19.922-12.152-19.922-12.152l-3.248 6.792z"/><path opacity=".3" fill="#FFF" d="M128.818 31.514l16.752 5.663 2.232-.836z"/><path fill="#666" d="M124.141 38.942v40.119h9.349v-2.983h-7.485V38.942z"/><path fill="#7F7F7F" d="M136.414 89.505c.018-.084.024-.172.042-.253.107-.521.253-1.027.417-1.523.034-.101.067-.203.104-.304.352-.992.811-1.929 1.364-2.803.049-.077.101-.153.151-.229a14.156 14.156 0 0 1 1.989-2.385c.07-.063.133-.125.201-.189a14.2 14.2 0 0 1 2.472-1.828c.1-.055.198-.113.297-.167a14.454 14.454 0 0 1 1.389-.678c.072-.029.144-.05.218-.077.301-.119.606-.233.922-.333.173-.051.352-.098.53-.146a12.094 12.094 0 0 1 1.276-.285 15.035 15.035 0 0 1 1.288-.165c.083-.007.167-.021.253-.026.293-.019.585-.029.877-.029h.002c.293 0 .588.01.879.029.088.005.17.019.253.026.205.017.407.038.609.064.23.028.456.062.677.101.198.034.398.07.592.113.233.05.46.11.686.172.179.049.355.095.531.146.312.099.62.214.92.333.071.027.148.048.22.077a14.114 14.114 0 0 1 1.388.678c.1.054.198.112.296.167a14.14 14.14 0 0 1 2.474 1.828c.069.064.132.126.203.189a14.447 14.447 0 0 1 1.989 2.385l.148.229a13.748 13.748 0 0 1 1.471 3.107c.163.497.312 1.002.416 1.523.02.08.027.169.041.253a13.9 13.9 0 0 1 .258 2.629v4.442h-2.282v-4.442c0-.994-.124-1.959-.356-2.882a11.043 11.043 0 0 0-.351-1.129l-.095-.247a12.437 12.437 0 0 0-.368-.844l-.126-.257c-.158-.307-.328-.61-.512-.9-.021-.032-.039-.066-.057-.098a12.256 12.256 0 0 0-.681-.946c-.045-.056-.094-.112-.14-.167a14.316 14.316 0 0 0-.614-.692l-.223-.224a11.435 11.435 0 0 0-.661-.601c-.065-.055-.127-.114-.194-.169a12.293 12.293 0 0 0-.921-.675c-.049-.03-.098-.056-.144-.088a12.22 12.22 0 0 0-.829-.483c-.098-.054-.205-.103-.31-.155a10.666 10.666 0 0 0-.888-.391c-.084-.035-.168-.07-.254-.103a11.97 11.97 0 0 0-1.172-.361c-.08-.019-.167-.034-.248-.052-.33-.076-.667-.137-1.004-.183l-.338-.046a12.339 12.339 0 0 0-1.281-.077c-.431 0-.859.033-1.279.077-.111.015-.224.029-.338.046-.338.046-.675.107-1.003.183-.084.018-.169.033-.25.052-.4.102-.789.22-1.17.361a9.004 9.004 0 0 0-.255.103c-.301.117-.598.248-.889.391-.103.052-.209.101-.311.155-.285.151-.559.313-.826.483-.049.033-.099.059-.147.088-.316.211-.623.437-.919.675-.065.055-.13.114-.196.17-.226.191-.446.391-.659.6-.076.074-.149.15-.224.224-.212.224-.419.456-.615.692-.044.055-.094.111-.142.167-.239.304-.465.619-.678.946-.02.032-.035.065-.055.096-.185.292-.355.593-.513.899-.045.087-.085.174-.129.261-.132.274-.255.555-.364.841-.034.081-.065.165-.096.248-.133.367-.255.742-.351 1.129a11.758 11.758 0 0 0-.356 2.882v4.442h-2.284v-4.442c-.003-.9.093-1.773.255-2.628z"/><path fill="#48464D" d="M168.267 43.713v7.517a.915.915 0 0 0 .912-.912v-5.694a.913.913 0 0 0-.912-.911z"/><path fill="#605E67" d="M167.746 43.713h.521v7.517h-.521zm1.433 1.311v2.238h3.397c.624 0 1.115-.501 1.115-1.123a1.11 1.11 0 0 0-1.115-1.115h-3.397z"/><path opacity=".53" fill="#FFF" d="M166.613 61.991l-1.675 1.211-14.471-2.234z"/><path opacity=".53" fill="#E0E0E0" d="M176.349 63.267v9.635h1.185l-.554-8.9zm0 11.032h1.185v5.584h-1.185z"/><path fill="#7F7F7F" d="M172.905 92.063c0 .617.498 1.117 1.118 1.117h2.815c.617 0 1.117-.5 1.117-1.117v-5.829c0-.619-.5-1.117-1.117-1.117h-2.815c-.62 0-1.118.498-1.118 1.117v5.829z"/><path fill="#7F7F7F" d="M177.127 93.139c-3.571 1.019-8.665 2.1-11.806 2.1V91.53h11.027l.779 1.609zm-11.805-8.021h9.282v3.63h-9.282z"/><path fill="#7F7F7F" d="M165.322 88.12h6.561v4.571h-6.561zm-2.782-6.91h15.415v.963H162.54z"/><path fill="#D9882E" d="M175.429 82.173h3.096v4.759h-3.096z"/><path fill="#EDEDED" d="M173.916 82.173h1.512v4.759h-1.512z"/><path fill="#E0E0E0" d="M134.172 63.792v10.509h11.548V63.792h-11.548zm.717.748h10.082v9.114h-10.082V64.54zm-.714-24.014h.653v22.35h-.653z"/><path fill="#666" d="M-5.154 75.492h44.676v12.306H-5.154z"/><circle fill="#D9882E" cx="-.73" cy="83.607" r="1.769"/><circle fill="#D9882E" cx="35.007" cy="83.607" r="1.769"/><path fill="#BBBDC2" d="M-5.154 75.492h44.676v3.732H-5.154z"/><path opacity=".17" fill="#FFF" d="M108.954 21.774H-89.362v4.878L108.954 23.4z"/></svg>