<svg xmlns="http://www.w3.org/2000/svg" width="51.015" height="35.286" viewBox="32.822 47.773 51.015 35.286"><g fill="#A3C32A"><path d="M82.087 83.059H34.572a1.75 1.75 0 0 1-1.75-1.75V53.574c0-.966.784-1.75 1.75-1.75h5.918a1.75 1.75 0 0 1 0 3.5h-4.168v24.235h44.015V55.324h-4.272a1.75 1.75 0 1 1 0-3.5h6.022c.967 0 1.75.784 1.75 1.75v27.735a1.75 1.75 0 0 1-1.75 1.75z"/><path d="M40.529 78.097a1.75 1.75 0 0 1-1.751-1.749V50.861c0-.789.528-1.48 1.289-1.688 3.398-.929 6.559-1.399 9.396-1.399 7.015 0 9.865 2.827 10.167 3.149.304.324.473.752.473 1.196v23.354c0 .581-.288 1.124-.77 1.449a1.74 1.74 0 0 1-1.631.175c-1.962-.785-4.167-1.185-6.554-1.185-5.35 0-9.851 2.009-9.896 2.029a1.743 1.743 0 0 1-.723.156zm1.749-25.88V73.84c2.08-.657 5.28-1.427 8.87-1.427 1.913 0 3.739.221 5.455.656V52.962c-.895-.585-3.115-1.688-7.14-1.688-2.171-.001-4.583.317-7.185.943z"/><path d="M76.132 78.098c-.247 0-.494-.052-.726-.157-.103-.046-4.58-2.028-9.894-2.028-2.388 0-4.593.399-6.555 1.185a1.75 1.75 0 0 1-2.401-1.624V52.119c0-.444.169-.872.473-1.196.302-.322 3.153-3.149 10.167-3.149 2.836 0 5.997.471 9.396 1.399a1.749 1.749 0 0 1 1.289 1.688v25.488a1.75 1.75 0 0 1-1.749 1.749zm-10.619-5.685c3.589 0 6.789.77 8.869 1.427V52.217c-2.603-.626-5.014-.944-7.185-.944-4.011 0-6.23 1.096-7.14 1.692v20.104a22.175 22.175 0 0 1 5.456-.656z"/></g></svg>