<svg xmlns="http://www.w3.org/2000/svg" width="68.24" height="84.621" viewBox="0 0 68.24 84.621"><path fill="#5D5E59" d="M53.84 84.58L4.364 78.232a5.015 5.015 0 0 1-4.323-5.596L8.805 4.363A5.015 5.015 0 0 1 14.401.04l49.476 6.348a5.015 5.015 0 0 1 4.323 5.596l-8.764 68.273c-.351 2.728-2.869 4.673-5.596 4.323z"/><path fill="#EEF5F3" d="M57.898 26.221L15.177 20.74a3.009 3.009 0 0 1-2.594-3.358l.988-7.699a3.01 3.01 0 0 1 3.357-2.594l42.721 5.481a3.009 3.009 0 0 1 2.594 3.358l-.988 7.699a3.009 3.009 0 0 1-3.357 2.594z"/><path fill="#56A0E0" d="M58.078 25.26l-42.833-5.496a2.006 2.006 0 0 1-1.729-2.238l.994-7.747a2.006 2.006 0 0 1 2.238-1.729l42.833 5.496a2.006 2.006 0 0 1 1.729 2.238l-.994 7.747a2.006 2.006 0 0 1-2.238 1.729z"/><path fill="#F2F2F2" d="M19.881 38.965l-8.237-1.057a2.006 2.006 0 0 1-1.729-2.238l1.057-8.236a2.006 2.006 0 0 1 2.238-1.729l8.237 1.057A2.006 2.006 0 0 1 23.176 29l-1.057 8.236a2.006 2.006 0 0 1-2.238 1.729zm18.55 2.38l-8.237-1.057a2.006 2.006 0 0 1-1.729-2.238l1.057-8.236a2.006 2.006 0 0 1 2.238-1.729l8.237 1.057a2.006 2.006 0 0 1 1.729 2.238l-1.057 8.236a2.006 2.006 0 0 1-2.238 1.729zM36.243 58.39l-8.237-1.057a2.006 2.006 0 0 1-1.729-2.238l1.057-8.236a2.006 2.006 0 0 1 2.238-1.729l8.237 1.057a2.006 2.006 0 0 1 1.729 2.238l-1.057 8.236a2.006 2.006 0 0 1-2.238 1.729zm-2.079 17.059l-8.237-1.057a2.006 2.006 0 0 1-1.729-2.238l1.057-8.236a2.006 2.006 0 0 1 2.238-1.729l8.237 1.057a2.006 2.006 0 0 1 1.729 2.238l-1.057 8.236a2.006 2.006 0 0 1-2.238 1.729z"/><path d="M56.554 43.67l-8.237-1.057a2.006 2.006 0 0 1-1.729-2.238l1.057-8.236a2.006 2.006 0 0 1 2.238-1.729l8.237 1.057a2.006 2.006 0 0 1 1.729 2.238l-1.057 8.236a2.006 2.006 0 0 1-2.238 1.729zm-2.188 17.045l-8.237-1.057A2.006 2.006 0 0 1 44.4 57.42l1.057-8.236a2.006 2.006 0 0 1 2.238-1.729l8.237 1.057a2.006 2.006 0 0 1 1.729 2.238l-1.057 8.236a2.006 2.006 0 0 1-2.238 1.729zm-2.078 17.059l-8.237-1.057a2.006 2.006 0 0 1-1.729-2.238l1.057-8.236a2.006 2.006 0 0 1 2.238-1.729l8.237 1.057a2.006 2.006 0 0 1 1.729 2.238l-1.057 8.236a2.006 2.006 0 0 1-2.238 1.729z" fill="#D44B4A"/><path fill="#F2F2F2" d="M17.638 56.002l-8.237-1.057a2.006 2.006 0 0 1-1.729-2.238l1.057-8.236a2.006 2.006 0 0 1 2.238-1.729l8.237 1.057a2.006 2.006 0 0 1 1.729 2.238l-1.057 8.236a2.006 2.006 0 0 1-2.238 1.729zM15.56 73.061l-8.237-1.057a2.006 2.006 0 0 1-1.729-2.238l1.057-8.236a2.006 2.006 0 0 1 2.238-1.729l8.237 1.057a2.006 2.006 0 0 1 1.729 2.238l-1.057 8.236a2.006 2.006 0 0 1-2.238 1.729z"/></svg>