<svg id="Слой_1" xmlns="http://www.w3.org/2000/svg" viewBox="0 0 446.6 632"><style>.st0{fill:#76797f}.st1{fill:#92949b}.st2{fill:#fff}.st3{fill:#9b9fa7}.st4,.st5{stroke:#000}.st4,.st5,.st6{stroke-miterlimit:10}.st4{fill:none;stroke-width:2}.st5{stroke-width:.75}.st6{fill:none;stroke:#c53b2e;stroke-width:6;stroke-linecap:round;stroke-linejoin:round}</style><path class="st0" d="M53 340.6h11.4v253.6H53zM18.9 594.2h75.7v11.4H18.9z"/><path class="st0" d="M26.5 598h15.1v34.1H26.5zm45.4 0h11.4v34.1H71.9zM386 340.6h7.6v253.6H386zm-34 253.6h75.7v11.4H352z"/><path class="st0" d="M359.5 598h11.3v34.1h-11.3zm45.5 0h15.1v34.1H405z"/><path class="st1" d="M18.9 7.6h412.5v348.2H18.9z"/><path class="st2" d="M26.5 22.7h393.6v317.9H26.5z"/><path class="st3" d="M0 0h446.6v22.7H0zm0 333h446.6v22.7H0z"/><path class="st0" d="M53 405h336.8v7.6H53z"/><path d="M75.2 141.4h-2v-6.5l.1-5.7h-.1l-4.5 7.4h-1.2l-4.5-7.3.1 5.6v6.6h-2V126h2.2l4.9 8.1 4.9-8.1h2.1v15.4zm3.3-7.6c0-4.6 2.4-8.2 7.3-8.1 4.8 0 7.2 3.4 7.2 8s-2.4 8.1-7.2 8.1c-5 0-7.3-3.3-7.3-8zm12.3-.1c0-3.5-1.6-6.3-5.1-6.2-3.5 0-5.1 2.8-5.1 6.2 0 3.6 1.6 6.3 5.1 6.2 3.5.1 5.1-2.7 5.1-6.2zm7.5-4.4v12.2h-2.1V126h2.2l7.8 11.7V126h2.1v15.5h-1.9l-8.1-12.2zm46.2 12.1h-2.1v-13.6h-4.7v-1.9h11.5v1.9h-4.7v13.6zm18.8-5.4c0 1.9-.5 3.3-1.6 4.2-1.1 1-2.5 1.5-4.4 1.5-3.7 0-5.8-1.9-5.8-5.7v-10.1h2.1v10.2c0 2.5 1.4 3.8 3.9 3.8 2.6 0 3.9-1.2 3.9-3.7v-10.3h2.1V136zm4-10.1h9v1.9h-6.9v4.7h6.1v1.9h-6.1v5.2h7v1.9h-9.1v-15.6zm37.2 0h2.2l2.8 12.8 3.4-12.8h2.1l3.4 12.8 2.8-12.8h2l-3.7 15.5H217l-3.3-11.9-3.3 11.9h-2.5l-3.4-15.5zm21.7 0h9v1.9h-6.9v4.7h6.1v1.9h-6.1v5.2h7v1.9h-9.1v-15.6zm17.2 15.5h-4.6v-15.5h4.7c4.9 0 7.7 2.8 7.7 7.6 0 5.3-2.6 7.9-7.8 7.9zm-.1-13.6h-2.4v11.8h2.3c4.1 0 5.9-1.9 5.9-6 0-3.8-2.1-5.8-5.8-5.8zm37.3 13.6h-2.1v-13.6h-4.7v-1.9h11.5v1.9h-4.7v13.6zm16.7-7h-7.6v7h-2.1v-15.5h2.1v6.6h7.6v-6.6h2.1v15.5h-2.1v-7zm18 1.6c0 1.9-.5 3.3-1.6 4.2-1.1 1-2.5 1.5-4.4 1.5-3.7 0-5.8-1.9-5.8-5.7v-10.1h2.1v10.2c0 2.5 1.4 3.8 3.9 3.8 2.6 0 3.9-1.2 3.9-3.7v-10.3h2.1V136zm12.8 5.4l-4.1-6.6h-2.6v6.6h-2.1v-15.5h4.5c3.7 0 5.6 1.3 5.6 4.2 0 1.9-1.4 3.4-3.5 4l4.5 7.2h-2.3zm-4.2-8.4c2.1 0 3.5-1 3.5-2.7 0-1.8-1.3-2.6-3.6-2.6h-2.4v5.3h2.5zm34.6-.1h5.9v1.9h-5.9v6.6h-2.1v-15.5h8.6v1.9h-6.5v5.1zm18.3 8.5l-4.1-6.6h-2.6v6.6H368v-15.5h4.5c3.7 0 5.6 1.3 5.6 4.2 0 1.9-1.4 3.4-3.5 4l4.5 7.2h-2.3zm-4.2-8.4c2.1 0 3.5-1 3.5-2.7 0-1.8-1.3-2.6-3.6-2.6h-2.4v5.3h2.5zm11.2-7.1v15.5h-2.1v-15.5h2.1z"/><path class="st4" d="M402.5 158.9H52.1"/><path class="st5" d="M123.8 110.4v109.3m65.9-109.3v109.3m73.4-109.3v109.3m75.8-109.3v109.3"/><path class="st6" d="M74.1 193.1l8.2 8 17.4-21.9m41.4 13.9l8.2 8 17.4-21.9m43.8 13.9l8.2 8 17.4-21.9m49.2 13.9l8.2 8 17.4-21.9m44.6 13.9l8.3 8 17.3-21.9"/></svg>