<svg xmlns="http://www.w3.org/2000/svg" width="273.049" height="280.259" viewBox="0 0 273.049 280.259"><path fill="#F0D964" d="M126.818 252.265a.39.39 0 0 1 .214-.299l-.388-.067.024.355.15.011zm-31.952-5.881l-.856-.149c.282.084.565.166.848.248a3.3 3.3 0 0 0 .008-.099zm-45.133-.149l-.143.025.001.017.142-.042z"/><path fill="none" stroke="#5D5E59" stroke-width="2" stroke-miterlimit="10" d="M8 58.677L140.263 6.215l124.786 52.462"/><circle fill="#5D5E59" cx="142.395" cy="5.939" r="5.939"/><path fill="#FFF" d="M4 54.677h265.049v207.858H4z"/><path fill="#5D5E59" d="M265.049 58.677v199.858H8V58.677h257.049m8-8H0v215.858h273.049V50.677z"/><path fill="none" d="M10.689 91.439H262.36v45.64H10.689z"/><text transform="translate(58.271 117.708)" font-family="'Ingra-Regular'" font-size="37">CERTIFIED</text><g fill="#A3C32A"><path d="M49.966 254.075c-2.108 0-3.903-1.215-5.333-3.612-2.033-3.398-4.935-5.073-8.871-5.119-4.335-.051-6.659-2.381-6.72-6.739-.06-3.94-1.734-6.836-5.118-8.852-3.741-2.224-4.591-5.4-2.46-9.186 1.932-3.438 1.932-6.786 0-10.234-2.156-3.825-1.328-6.911 2.46-9.171 3.379-2.031 5.054-4.937 5.119-8.882.061-4.344 2.385-6.667 6.72-6.718 3.942-.051 6.843-1.726 8.865-5.118 1.431-2.397 3.228-3.613 5.341-3.613 1.182 0 2.473.388 3.839 1.152 1.702.952 3.424 1.435 5.118 1.435s3.416-.483 5.118-1.435c1.363-.766 2.653-1.154 3.835-1.154 2.112 0 3.909 1.216 5.341 3.615 2.027 3.389 4.929 5.063 8.87 5.119 4.33.051 6.658 2.374 6.729 6.718.051 3.946 1.722 6.851 5.109 8.883 3.784 2.254 4.611 5.34 2.459 9.171-1.922 3.447-1.922 6.796.001 10.235 2.15 3.837 1.322 6.927-2.461 9.185-3.382 2.015-5.053 4.911-5.108 8.852-.071 4.358-2.398 6.688-6.73 6.739-3.935.046-6.836 1.72-8.87 5.119-1.426 2.395-3.22 3.609-5.331 3.609h-.001c-1.184 0-2.478-.391-3.844-1.16-1.699-.941-3.422-1.419-5.117-1.419s-3.418.478-5.12 1.421c-1.363.768-2.656 1.159-3.84 1.159zm8.971-64.399c-14.216 0-25.781 11.561-25.781 25.77 0 14.216 11.565 25.781 25.781 25.781 14.209 0 25.77-11.565 25.77-25.781-.001-14.21-11.561-25.77-25.77-25.77z"/><path d="M67.879 177.33c1.935 0 3.57 1.125 4.911 3.371 2.103 3.514 5.194 5.305 9.294 5.362 4.1.048 6.169 2.136 6.236 6.226.053 4.109 1.839 7.196 5.353 9.303 3.528 2.103 4.287 4.925 2.28 8.497-1.997 3.581-1.997 7.153 0 10.724 2.007 3.581 1.243 6.409-2.28 8.511-3.514 2.093-5.295 5.185-5.353 9.275-.067 4.109-2.136 6.197-6.236 6.245s-7.191 1.848-9.294 5.362c-1.336 2.244-2.969 3.366-4.902 3.366-1.102 0-2.302-.365-3.599-1.096-1.786-.989-3.574-1.483-5.362-1.483s-3.576.494-5.362 1.483c-1.297.732-2.496 1.098-3.598 1.098-1.932 0-3.565-1.124-4.904-3.368-2.103-3.514-5.194-5.314-9.294-5.362-4.09-.048-6.169-2.141-6.226-6.245-.062-4.09-1.848-7.182-5.362-9.275-3.528-2.098-4.296-4.93-2.28-8.511 2.007-3.572 2.007-7.143 0-10.724-2.016-3.576-1.243-6.394 2.28-8.497 3.514-2.112 5.295-5.194 5.362-9.303.058-4.09 2.136-6.178 6.226-6.226 4.095-.053 7.191-1.843 9.289-5.362 1.34-2.246 2.975-3.369 4.911-3.369 1.101 0 2.299.363 3.595 1.089 1.786.999 3.574 1.498 5.362 1.498 1.788 0 3.576-.499 5.362-1.498 1.295-.728 2.491-1.092 3.591-1.091m-8.942 64.397c14.507 0 26.27-11.763 26.27-26.281 0-14.507-11.763-26.27-26.27-26.27-14.518 0-26.281 11.763-26.281 26.27-.001 14.518 11.762 26.281 26.281 26.281m8.943-65.397v1-1c-1.268 0-2.641.41-4.081 1.219-1.625.908-3.265 1.37-4.872 1.37-1.608 0-3.248-.461-4.874-1.371-1.441-.807-2.815-1.216-4.083-1.216-2.302 0-4.243 1.297-5.77 3.856-1.927 3.232-4.689 4.826-8.443 4.875-4.653.055-7.148 2.549-7.213 7.212-.061 3.756-1.657 6.524-4.877 8.46-4.006 2.391-4.919 5.796-2.636 9.845 1.839 3.281 1.839 6.469-.001 9.743-2.288 4.063-1.374 7.473 2.641 9.861 3.222 1.919 4.816 4.677 4.873 8.43.066 4.675 2.56 7.175 7.214 7.23 3.747.044 6.511 1.639 8.447 4.876 1.526 2.558 3.465 3.855 5.762 3.855 1.271 0 2.647-.413 4.089-1.227 1.62-.897 3.261-1.354 4.871-1.354 1.609 0 3.25.457 4.878 1.358 1.436.809 2.812 1.221 4.084 1.221 2.3 0 4.239-1.297 5.762-3.855 1.936-3.235 4.699-4.83 8.446-4.874 4.65-.054 7.148-2.554 7.224-7.229.053-3.756 1.644-6.514 4.864-8.432 4.003-2.389 4.916-5.798 2.641-9.859-1.831-3.275-1.831-6.464.001-9.748 2.276-4.052 1.363-7.456-2.642-9.843-3.224-1.934-4.816-4.701-4.865-8.457-.077-4.666-2.575-7.159-7.224-7.213-3.752-.053-6.516-1.648-8.447-4.876-1.528-2.559-3.469-3.857-5.769-3.857zm-8.943 64.397c-13.94 0-25.281-11.341-25.281-25.281 0-13.934 11.341-25.27 25.281-25.27 13.934 0 25.27 11.336 25.27 25.27-.001 13.94-11.337 25.281-25.27 25.281z"/></g><path fill="#A3C32A" stroke="#A3C32A" stroke-linecap="round" stroke-linejoin="round" stroke-miterlimit="10" d="M43.47 243.488v36.271l16.926-9.049 13.982 9.049v-36.271"/><path fill="none" stroke="#C53B2E" stroke-width="6" stroke-linecap="round" stroke-linejoin="round" stroke-miterlimit="10" d="M50.113 217.289l6.01 5.858 12.664-15.96"/><path fill="none" stroke="#ACADAB" stroke-width="5" stroke-linecap="round" stroke-linejoin="round" stroke-miterlimit="10" d="M43.47 148.387h187m-187 17.423h187m-111.734 20.689H230.47m-111.734 18.762H230.47m-111.734 18.761h55.867"/></svg>