<svg xmlns="http://www.w3.org/2000/svg" width="234.147" height="240.394" viewBox="186.026 17.497 234.147 240.394"><path fill="none" stroke="#5C5E59" stroke-width="2" stroke-miterlimit="10" d="M192.887 67.843l113.472-45.029 106.952 45.029"/><circle fill="#5C5E59" cx="308.16" cy="22.557" r="5.06"/><path fill="#FFF" d="M189.457 64.412h227.286v178.312H189.457z"/><path fill="#5C5E59" d="M413.311 67.843v171.451H192.887V67.843h220.424m6.862-6.862H186.026v185.173h234.146V60.981h.001z"/><path d="M243.576 99.491c-4.889 0-8.062 3.259-8.062 8.663 0 5.06 2.487 8.748 8.234 8.748 1.887 0 3.431-.257 5.403-.943v2.487a19.43 19.43 0 0 1-5.832.858c-7.548 0-10.807-4.717-10.807-10.978 0-7.719 4.803-11.321 10.464-11.321 2.23 0 4.117.343 5.661.858v2.573c-1.544-.516-3.26-.945-5.061-.945zm9.349-1.973h12.522v2.487h-9.606v6.604h8.405v2.487h-8.405v7.29h9.692v2.487h-12.608V97.518zm29.676 21.442l-5.661-9.177h-3.602v9.177h-2.916V97.433h6.261c4.975 0 7.805 1.715 7.805 5.832 0 2.659-1.973 4.889-4.803 5.661l6.175 9.949h-3.259v.085zm-.944-15.438c0-2.659-2.058-3.602-4.975-3.602h-3.345v7.376h3.516c2.918.086 4.804-1.287 4.804-3.774zm14.409 15.438h-2.916v-18.955h-6.518v-2.487h15.953v2.487h-6.518v18.955zm12.608-21.442v21.528h-2.916V97.518h2.916zm8.577 9.692h8.148v2.573h-8.148v9.263h-2.916V97.518h11.922v2.487h-9.006v7.205zm16.125-9.692v21.528h-2.916V97.518h2.916zm5.66 0h12.522v2.487h-9.606v6.604h8.405v2.487h-8.405v7.29h9.692v2.487h-12.608V97.518zm23.844 21.442h-6.433V97.433h6.518c6.861 0 10.721 3.774 10.721 10.464.086 7.461-3.516 11.063-10.806 11.063zm-.172-18.954h-3.259v16.553h3.259c5.575 0 8.148-2.659 8.148-8.405-.086-5.318-2.916-8.148-8.148-8.148z"/><g fill="#96C500"><path d="M228.91 235.434c-1.801 0-3.345-1.029-4.546-3.088-1.715-2.916-4.203-4.374-7.633-4.374-3.688-.086-5.746-2.058-5.746-5.746-.086-3.345-1.458-5.832-4.374-7.633-3.173-1.887-3.945-4.631-2.144-7.891 1.63-2.916 1.63-5.832 0-8.748-1.887-3.259-1.115-5.918 2.144-7.891 2.916-1.715 4.374-4.203 4.374-7.633.086-3.688 2.058-5.746 5.746-5.746 3.345-.086 5.832-1.458 7.633-4.374 1.201-2.058 2.745-3.088 4.546-3.088 1.029 0 2.144.343 3.259 1.029 1.458.858 2.916 1.201 4.374 1.201s2.916-.429 4.374-1.201c1.201-.686 2.316-1.029 3.259-1.029 1.801 0 3.345 1.029 4.546 3.088 1.715 2.916 4.203 4.374 7.633 4.374 3.688.086 5.746 2.058 5.746 5.746.086 3.345 1.458 5.918 4.374 7.633 3.259 1.973 3.945 4.546 2.144 7.891-1.63 2.916-1.63 5.832 0 8.748 1.887 3.259 1.115 5.918-2.144 7.891-2.916 1.715-4.374 4.203-4.374 7.633-.086 3.774-2.058 5.746-5.746 5.746-3.345 0-5.832 1.458-7.633 4.374-1.201 2.058-2.745 3.088-4.546 3.088-1.029 0-2.144-.343-3.259-1.029-1.458-.772-2.916-1.201-4.374-1.201s-2.916.429-4.374 1.201c-1.201.685-2.23 1.029-3.259 1.029zm7.633-55.235c-12.179 0-22.128 9.949-22.128 22.128s9.949 22.128 22.128 22.128 22.128-9.949 22.128-22.128c.001-12.265-9.949-22.128-22.128-22.128z"/><path d="M244.262 169.564c1.63 0 3.088.943 4.203 2.916 1.801 3.002 4.46 4.546 7.976 4.631 3.517 0 5.318 1.801 5.318 5.318.086 3.516 1.544 6.175 4.631 7.976 3.002 1.801 3.688 4.203 1.973 7.29-1.715 3.088-1.715 6.175 0 9.177 1.715 3.088 1.029 5.489-1.973 7.29-3.002 1.801-4.546 4.46-4.631 7.976-.086 3.517-1.801 5.318-5.318 5.318-3.516 0-6.175 1.544-7.976 4.631-1.115 1.887-2.573 2.916-4.203 2.916-.943 0-1.973-.343-3.088-.943-1.544-.858-3.088-1.287-4.631-1.287-1.544 0-3.088.429-4.631 1.287-1.115.6-2.144.943-3.088.943-1.63 0-3.088-.943-4.203-2.916-1.801-3.002-4.46-4.546-7.976-4.631-3.516 0-5.318-1.801-5.318-5.318-.086-3.516-1.544-6.175-4.631-7.976-3.002-1.801-3.688-4.203-1.973-7.29s1.715-6.09 0-9.177c-1.715-3.088-1.029-5.489 1.973-7.29 3.002-1.801 4.546-4.46 4.631-7.976.086-3.516 1.801-5.318 5.318-5.318 3.516-.086 6.175-1.544 7.976-4.631 1.115-1.887 2.573-2.916 4.203-2.916.943 0 1.973.343 3.088.943 1.544.858 3.088 1.287 4.631 1.287 1.544 0 3.088-.429 4.631-1.287 1.116-.6 2.145-.943 3.088-.943m-7.719 55.234c12.436 0 22.557-10.121 22.557-22.557 0-12.436-10.121-22.557-22.557-22.557-12.436 0-22.557 10.121-22.557 22.557.086 12.437 10.121 22.557 22.557 22.557m7.719-56.092v.858-.858c-1.115 0-2.23.343-3.516 1.029-1.372.772-2.83 1.201-4.203 1.201s-2.745-.429-4.203-1.201c-1.201-.686-2.402-1.029-3.516-1.029-1.973 0-3.602 1.115-4.975 3.345-1.63 2.745-4.031 4.117-7.205 4.203-4.031.086-6.09 2.144-6.175 6.175-.086 3.259-1.458 5.575-4.203 7.29-3.431 2.058-4.203 4.975-2.23 8.405 1.544 2.83 1.544 5.575 0 8.32-1.973 3.516-1.201 6.433 2.23 8.491 2.745 1.63 4.117 4.031 4.203 7.205.086 4.031 2.23 6.175 6.175 6.175 3.173 0 5.575 1.372 7.205 4.203 1.287 2.23 3.002 3.345 4.975 3.345 1.115 0 2.23-.343 3.516-1.029 1.372-.772 2.83-1.201 4.203-1.201s2.83.429 4.203 1.201c1.201.686 2.402 1.029 3.516 1.029 1.973 0 3.602-1.115 4.975-3.345 1.63-2.745 4.031-4.117 7.205-4.203 3.945-.086 6.09-2.23 6.175-6.175.086-3.259 1.372-5.575 4.203-7.205 3.431-2.058 4.203-4.975 2.23-8.491-1.544-2.83-1.544-5.575 0-8.32 1.973-3.516 1.201-6.433-2.23-8.405-2.745-1.63-4.117-4.031-4.203-7.29-.086-4.031-2.23-6.175-6.175-6.175-3.259-.086-5.575-1.372-7.205-4.203-1.372-2.23-3.002-3.345-4.975-3.345zm-7.719 55.235c-11.922 0-21.699-9.692-21.699-21.699 0-11.922 9.692-21.699 21.699-21.699 11.922 0 21.699 9.692 21.699 21.699.001 12.007-9.691 21.699-21.699 21.699z"/><path stroke="#96C500" stroke-linecap="round" stroke-linejoin="round" stroke-miterlimit="10" d="M223.335 226.342v31.048l14.495-7.719 12.007 7.719v-31.048"/></g><path fill="none" stroke="#E43929" stroke-width="6" stroke-linecap="round" stroke-linejoin="round" stroke-miterlimit="10" d="M228.996 203.871l5.146 4.974 10.892-13.637"/><path fill="none" stroke="#ACADAA" stroke-width="5" stroke-linecap="round" stroke-linejoin="round" stroke-miterlimit="10" d="M223.335 144.777h160.386M223.335 159.7h160.386m-95.888 17.754h95.888m-95.888 16.039h95.888m-95.888 16.124h47.944"/></svg>