<svg xmlns="http://www.w3.org/2000/svg" width="595.947" height="604.895" viewBox="0 0 595.947 604.895"><path fill="#F0D964" d="M320.472 140.33a.39.39 0 0 1 .214-.299l-.388-.067.024.355c.051.002.1.007.15.011zm-31.952-5.882l-.856-.149c.282.084.565.166.848.248a3.3 3.3 0 0 0 .008-.099zm-45.133-.149l-.143.025.001.017c.047-.014.095-.027.142-.042z"/><path fill="#D6D7D6" d="M595.81 1l-4.227 603.895-31.035-31.927 2.691-544.384z"/><path fill="#E4E4E4" d="M0 1l29.417 27.735 237.401.531L300.351 1zm298.351 603.308l-33.417-30.735-229.4.47L5 604.308z"/><path fill="#D6D7D6" d="M0 1l4.091 603.895 31.823-31.927-3.636-544.384zm298.214-1l-.227 604.895-35.034-31.927 2.691-544.384z"/><path fill="#E4E4E4" d="M297.595 1l29.417 27.735 237.401.531L595.947 1zm294.352 603.308l-29.417-29.735-229.401-2.53-34.534 32.265z"/><path fill="#D6D7D6" d="M297.595 0l.092 604.895 35.823-32.927-3.637-543.384z"/><path fill="none" stroke="#5D5E59" stroke-miterlimit="10" d="M297.595 0v604.895"/><path fill="#CCE2F6" d="M32.278 28.584h233.385v545.497H32.278zm297.045-.585h233.628v546.082H329.323z"/><path fill="#959595" d="M280.584 334.064c2.826 0 5.138-2.312 5.138-5.138v-77.431c0-2.826-2.312-5.138-5.138-5.138s-5.138 2.312-5.138 5.138v77.431c0 2.826 2.312 5.138 5.138 5.138zm34.969 0c2.826 0 5.138-2.312 5.138-5.138v-77.431c0-2.826-2.312-5.138-5.138-5.138s-5.138 2.312-5.138 5.138v77.431c0 2.826 2.312 5.138 5.138 5.138z"/><path opacity=".61" fill="#EEF5FC" d="M265.663 71.875L32.278 307.392v103.441l233.385-227.758zm297.801 0L330.078 307.392v103.441l233.386-227.758z"/></svg>