<svg xmlns="http://www.w3.org/2000/svg" width="106.436" height="255.614" viewBox="0 0 106.436 255.614"><linearGradient id="a" gradientUnits="userSpaceOnUse" x1="112.717" y1="208.513" x2="-61.278" y2="324.51"><stop offset="0" stop-color="#4d4bbd" stop-opacity=".02"/><stop offset="1" stop-color="#4745c8" stop-opacity=".64"/></linearGradient><path opacity=".5" fill="url(#a)" d="M106.436 248.179c0 4.107-23.828 7.434-53.221 7.434-29.39 0-53.215-3.327-53.215-7.434 0-4.106 23.825-7.434 53.215-7.434 29.393.001 53.221 3.328 53.221 7.434z"/><path fill="#78B297" d="M11.931 17.892s-16.515 72.947 9.634 122.493l26.15 49.547s6.882-123.867-35.784-172.04z"/><path fill="#FFF" d="M13.046 208.327c1.59 8.945 3.626 17.969 8.054 25.901 4.425 7.934 11.578 14.746 20.408 16.884 4.002.968 8.173.953 12.29.844 4.52-.12 9.238-.406 13.131-2.7 5.077-2.989 7.74-8.761 9.801-14.278a166.816 166.816 0 0 0 7.905-28.798c1.018-5.665 1.677-11.804-.968-16.914-3.581-6.924-11.974-9.709-19.669-10.966-12.782-2.085-30.386-3.151-42.633 2.056-10.698 4.544-10.051 18.205-8.319 27.971z"/><path fill="#524F63" d="M42.041 190.169c10.147.595 21.14-.961 27.526-4.4 1.277-.689 2.414-1.57 1.809-2.414-.714-.995-3.415-1.406-5.771-1.648-12.195-1.259-25.699-1.827-37.636.197-17.486 2.966 4.791 7.722 14.072 8.265z"/><path fill="#77A18C" d="M36.705 0s-8.258 139.009 11.01 189.932c0 0 12.387-123.867-11.01-189.932z"/><path fill="#78B297" d="M45.281 188.916h4.47c6.58-27.521 26.257-116.657 15.856-158.26 0 0-33.031 116.986-24.773 143.138 2.018 6.857 3.439 11.693 4.447 15.122z"/></svg>