<svg xmlns="http://www.w3.org/2000/svg" width="219.319" height="212.437" viewBox="0 0 219.319 212.437"><path fill="#F0D964" d="M151.563 200.48a.39.39 0 0 1 .214-.299l-.388-.067.024.355c.051.002.101.007.15.011zm-31.951-5.882l-.856-.149c.282.084.565.166.847.248l.009-.099zm-45.133-.149l-.143.025.001.017.142-.042z"/><path fill="#EFEFED" d="M3.763 21.041h211.223v164.343H3.763z"/><path fill="#9B9FA7" d="M0 17.652h218.953v6.779H0z"/><path fill="#9B9FA7" d="M212.533 18.641L105.926 3.156 13.144 18.638l-.329-1.973 93.089-15.534L212.82 16.662z"/><circle fill="#9B9FA7" cx="106.651" cy="2.048" r="2.048"/><path fill="#56A0E0" d="M47.696 145.746a3.5 3.5 0 0 1-2.066-6.328l107.049-78.116a3.5 3.5 0 0 1 4.127 5.654l-107.05 78.116a3.48 3.48 0 0 1-2.06.674z"/><path fill="#56A0E0" d="M159.549 77.473l11.019-24.89-27.066 2.899z"/><path fill="#FFF" d="M181.623 158.599H33.311a3.5 3.5 0 0 1-3.5-3.5V46.531a3.5 3.5 0 1 1 7 0v105.068h144.812a3.5 3.5 0 1 1 0 7z"/><g fill="#9B9FA7"><path d="M.367 181.995H219.32v6.779H.367z"/><path d="M106.343 185.384h7v13.768h-7z"/><path d="M109.862 212.437c-4.628 0-8.394-3.765-8.394-8.393s3.766-8.393 8.394-8.393 8.393 3.765 8.393 8.393-3.765 8.393-8.393 8.393zm0-9.785c-.769 0-1.394.625-1.394 1.393s.625 1.393 1.394 1.393c.768 0 1.393-.625 1.393-1.393s-.625-1.393-1.393-1.393z"/></g></svg>