<svg xmlns="http://www.w3.org/2000/svg" width="635.935" height="609.331" viewBox="-9 0 635.935 609.331"><path fill="#EFEFED" d="M1.91 61.01h612.458v476.527H1.91z"/><path fill="#9B9FA7" d="M-9 51.183h634.872v19.655H-9z"/><path fill="#9B9FA7" d="M607.529 52.173L298.121 7.227 28.8 52.169l-.329-1.972L298.099 5.203l.155.022 309.561 44.968z"/><circle fill="#9B9FA7" cx="300.242" cy="5.939" r="5.939"/><path fill="#56A0E0" d="M129.295 417.953a5.5 5.5 0 0 1-3.246-9.943l331.416-241.841a5.5 5.5 0 1 1 6.485 8.886l-331.416 241.84a5.48 5.48 0 0 1-3.239 1.058z"/><path fill="#56A0E0" d="M468.259 191.58l17.316-39.112-42.532 4.556z"/><path fill="#FFF" d="M517.631 455.722H87.588a6 6 0 0 1-6-6V134.92a6 6 0 0 1 12 0v308.801h424.043a6 6 0 0 1 0 12.001z"/><g fill="#9B9FA7"><path d="M-7.937 527.709h634.872v19.655H-7.937z"/><path d="M305.999 537.537h7v39.92h-7z"/><path d="M309.553 609.331c-9.753 0-17.688-7.935-17.688-17.688 0-9.752 7.935-17.687 17.688-17.687 9.752 0 17.687 7.935 17.687 17.687 0 9.753-7.935 17.688-17.687 17.688zm0-28.374c-5.894 0-10.688 4.794-10.688 10.687 0 5.894 4.794 10.688 10.688 10.688 5.893 0 10.687-4.794 10.687-10.688 0-5.893-4.794-10.687-10.687-10.687z"/></g></svg>