<svg xmlns="http://www.w3.org/2000/svg" width="153.697" height="244.096" viewBox="224.107 18.44 153.697 244.096"><path fill="#C7CFD6" d="M369.45 239.67l-136.972.302-.458-208.246 136.972-.302z"/><path fill="#FFF" d="M312.312 240.076l-23.844.145-1.273-208.764 23.844-.145z"/><path fill="none" stroke="#FFF" stroke-width="7" stroke-miterlimit="10" d="M310.475 79.507l59.695.172"/><path fill="none" stroke="#E43929" stroke-width="9" stroke-linecap="round" stroke-miterlimit="10" d="M299.24 112.271l.343-80.966"/><path fill="none" stroke="#FFF" stroke-width="7" stroke-miterlimit="10" d="M310.819 127.108l59.78.172"/><path fill="#ECEFF4" d="M373.575 72.07l-17.669.13-.129-17.67 17.67-.128zm.599 79.85l-17.669.13-.129-17.67 17.67-.128z"/><path fill="#FFF" d="M289.72 157.47l-57.465-68.271-.172-32.935 60.038 68.357z"/><path fill="none" stroke="#93C200" stroke-width="8" stroke-miterlimit="10" d="M301.47 239.808l-1.973-73.932s1.63-14.409-10.292-27.36L250.18 94.345"/><path fill="#93C200" d="M259.786 89.885l-19.383-6.518 4.031 20.069z"/><path fill="#FFF" d="M369.325 240.51l-139.374-.362.137-53.005 139.374.363z"/><path fill="#ECEFF4" d="M348.07 119.531l-32.679.239-.238-32.68 32.679-.238z"/><path fill="#32425B" d="M372.229 262.279l-142.032.257c-3.088 0-5.575-2.487-5.575-5.489l-.515-232.775c0-3.088 2.487-5.575 5.489-5.575l142.118-.257c3.088 0 5.575 2.487 5.575 5.489l.515 232.689c-.001 3.174-2.488 5.661-5.575 5.661zm-3.174-230.888l-136.972.257.429 208.245 136.972-.257-.429-208.245z"/><path fill="#FFF" d="M309.352 253.27l-16.382.036-.008-3.774 16.382-.036z"/><path fill="#ECEFF4" d="M333.264 151.92l-17.67.13-.128-17.67 17.669-.128zm20.24-.171l-17.669.129-.129-17.67 17.67-.128zm-20.497-79.335l-17.669.129-.129-17.67 17.67-.128zm20.327-.429l-17.669.129-.129-17.67 17.67-.128zm-20.499 101.549l-17.67.13-.128-17.67 17.669-.129zm-49.317.342l-17.67.129-.128-17.669 17.669-.129z"/><path d="M255.841 204.986l4.546-.086v1.372l-4.546.086.086 5.146h-1.63l-.172-11.922 6.604-.086v1.372l-4.975.086.087 4.032zm13.809 5.489h.429v.943c-.257.086-.6.172-1.029.172-.772 0-1.201-.343-1.372-1.115-.686.686-1.63 1.115-2.83 1.115-1.801 0-2.83-.943-2.916-2.573 0-1.887 1.201-2.916 3.517-2.916h1.973v-.6c0-1.372-.6-1.973-2.058-1.887-.6 0-1.372.086-2.573.429v-1.201c.943-.257 1.973-.429 2.83-.429 2.316 0 3.345.858 3.345 3.088l.086 4.374c-.003.428.255.6.598.6zm-4.289 0a3.29 3.29 0 0 0 2.144-.772v-2.487h-1.63c-1.544 0-2.316.515-2.316 1.715.001 1.029.516 1.544 1.802 1.544zm8.577 1.115c-.686 0-1.715-.086-2.487-.429v-1.201c.686.343 1.458.515 2.316.515.943 0 1.715-.343 1.715-1.544 0-1.887-4.031-1.029-4.031-4.117 0-1.715 1.201-2.487 3.002-2.573.943 0 1.63.172 2.144.343v1.201c-.6-.257-1.201-.429-1.887-.429-1.029 0-1.715.429-1.715 1.372 0 1.973 4.031 1.029 4.117 4.117 0 1.973-1.458 2.659-3.174 2.745zm8.834-1.372c.515 0 1.029-.086 1.372-.257v1.201c-.343.086-1.029.257-1.801.257-1.458 0-2.487-.6-2.573-2.487l-.086-5.403h-1.544v-1.115h1.544v-2.402h1.544v2.402h2.745v1.115h-2.745l.086 5.403c.086.943.601 1.286 1.458 1.286zm10.121-3.86v.772l-5.918.086c.086 1.973 1.115 3.002 3.002 3.002a5.99 5.99 0 0 0 2.573-.6v1.201c-.686.343-1.801.6-2.83.686-2.487 0-4.374-1.458-4.374-4.546 0-2.745 1.372-4.631 3.86-4.717 2.401-.172 3.601 1.457 3.687 4.116zm-5.918-.343l4.46-.086c0-1.715-.772-2.659-2.144-2.659-1.458.086-2.23 1.201-2.316 2.745zm9.692-1.286l.086 6.261h-1.544l-.086-8.92h1.458v1.63c1.115-1.287 1.973-1.801 3.173-1.801v1.544c-1.029-.001-2.144.428-3.087 1.286zm11.321-.172l.086 6.261h-1.544l-.086-8.92h1.458v1.63c1.115-1.287 1.973-1.801 3.173-1.801v1.544c-1.114 0-2.143.514-3.087 1.286zm8.491 6.433c-2.487 0-4.288-1.801-4.288-4.631 0-2.745 1.715-4.631 4.288-4.717 2.659 0 4.374 1.801 4.374 4.631 0 2.744-1.801 4.717-4.374 4.717zm0-8.063c-1.63 0-2.745 1.372-2.659 3.431 0 2.144 1.115 3.431 2.745 3.431 1.63 0 2.745-1.372 2.659-3.431 0-2.058-1.201-3.431-2.745-3.431zm8.062 4.632c0 1.287.858 2.058 2.144 2.058.772 0 1.63-.343 2.23-.943l-.086-6.947h1.544l.086 8.92h-1.458v-1.115c-.772.772-1.887 1.287-2.916 1.287-1.973 0-3.088-1.115-3.173-3.173l-.086-5.832h1.544l.171 5.745zm12.265 1.887c.515 0 1.029-.086 1.372-.257v1.201c-.343.086-1.029.257-1.801.257-1.458 0-2.487-.6-2.573-2.487l-.086-5.403h-1.544v-1.115h1.544v-2.402h1.544v2.402h2.745v1.115h-2.745l.086 5.403c.086.943.686 1.372 1.458 1.286zm10.121-3.86v.772l-5.918.086c.086 1.973 1.115 3.002 3.002 3.002a5.99 5.99 0 0 0 2.573-.6v1.201c-.686.343-1.715.6-2.83.686-2.487 0-4.288-1.458-4.374-4.546 0-2.745 1.372-4.631 3.86-4.717 2.4-.172 3.687 1.457 3.687 4.116zm-5.918-.257l4.46-.086c0-1.715-.772-2.659-2.144-2.659s-2.23 1.115-2.316 2.745zm-67.157 21.957h.429v.943c-.257.086-.6.172-1.029.172-.772 0-1.201-.343-1.372-1.115-.686.686-1.63 1.115-2.83 1.115-1.801 0-2.83-.943-2.916-2.573 0-1.887 1.201-2.916 3.516-2.916h1.973v-.6c0-1.372-.6-1.973-2.058-1.887-.6 0-1.372.086-2.573.429v-1.201c.943-.257 1.973-.429 2.83-.429 2.316 0 3.345.858 3.345 3.088l.086 4.374c-.001.514.256.685.599.6zm-4.374 0a3.29 3.29 0 0 0 2.144-.772v-2.487h-1.63c-1.544 0-2.316.515-2.316 1.715.001 1.029.602 1.544 1.802 1.544zm5.489-7.977h1.544l2.745 7.29 2.573-7.29h1.458l-3.173 8.92h-1.715l-3.432-8.92zm16.811 7.805h.429v.943c-.257.086-.6.172-1.029.172-.772 0-1.201-.343-1.372-1.115-.686.686-1.63 1.115-2.83 1.115-1.801 0-2.83-.943-2.916-2.573 0-1.887 1.201-2.916 3.517-2.916h1.973v-.6c0-1.372-.6-1.973-2.058-1.887-.6 0-1.372.086-2.573.429v-1.201c.943-.257 1.973-.429 2.83-.429 2.316 0 3.345.858 3.345 3.088l.086 4.374c-.002.429.255.6.598.6zm-4.288-.086a3.29 3.29 0 0 0 2.144-.772v-2.487h-1.63c-1.544 0-2.316.515-2.316 1.715 0 1.03.515 1.544 1.802 1.544zm6.604-9.606v-1.887h1.544v1.887h-1.544zm0 1.63h1.544l.086 8.92h-1.544l-.086-8.92zm5.832-4.031l.172 10.893c0 .772.343.858.858.858.172 0 .429 0 .686-.086v1.115c-.429.172-.858.172-1.201.172-1.372 0-1.887-.772-1.887-1.715l-.172-11.321 1.544.084zm10.549 11.836h.429v.943c-.257.086-.6.172-1.029.172-.772 0-1.201-.343-1.372-1.115-.686.686-1.63 1.115-2.83 1.115-1.801 0-2.83-.943-2.916-2.573 0-1.887 1.201-2.916 3.517-2.916h1.973v-.6c0-1.372-.6-1.973-2.058-1.887-.6 0-1.372.086-2.573.429v-1.201c.943-.257 1.973-.429 2.83-.429 2.316 0 3.345.858 3.345 3.088l.086 4.374c-.002.428.17.6.598.6zm-4.374-.086a3.29 3.29 0 0 0 2.144-.772v-2.487h-1.63c-1.544 0-2.316.515-2.316 1.715.001 1.029.602 1.544 1.802 1.544zm8.234-6.947c.772-.772 1.715-1.201 2.745-1.201 2.23 0 3.688 1.63 3.688 4.374 0 2.916-1.458 4.889-3.774 4.889-.943 0-1.887-.343-2.745-1.029v.858h-1.372l-.172-12.865h1.544l.086 4.974zm2.23 0c-.772 0-1.544.343-2.23.943l.086 5.06c.772.515 1.458.772 2.23.772 1.544 0 2.487-1.372 2.487-3.602 0-1.972-1.029-3.173-2.573-3.173zm7.891-5.146l.086 10.893c0 .772.343.858.858.858.172 0 .429 0 .686-.086v1.115c-.429.172-.858.172-1.201.172-1.372 0-1.887-.772-1.887-1.715l-.172-11.321 1.63.084zm10.292 7.976v.772l-5.918.086c.086 1.973 1.115 3.002 3.002 3.002a5.99 5.99 0 0 0 2.573-.6v1.201c-.686.343-1.715.6-2.83.686-2.487 0-4.374-1.458-4.374-4.546 0-2.745 1.372-4.631 3.86-4.717 2.4-.172 3.601 1.457 3.687 4.116zm-5.918-.257l4.46-.086c0-1.715-.772-2.659-2.144-2.659-1.458 0-2.23 1.115-2.316 2.745z"/></svg>