<svg xmlns="http://www.w3.org/2000/svg" width="124.917" height="154.418" viewBox="0 0 124.917 154.418"><path fill="#F1F0F8" d="M47.923 7.364l71.1 26.523L78.716 141.94l-71.1-26.523z"/><path fill="#3A445A" d="M75.717 154.224l-73.72-27.502a3.07 3.07 0 0 1-1.803-3.949L45.252 1.997A3.07 3.07 0 0 1 49.201.194l73.72 27.502a3.07 3.07 0 0 1 1.803 3.949L79.666 152.421a3.07 3.07 0 0 1-3.949 1.803zm43.308-120.333L47.923 7.365 7.611 115.42l71.102 26.526 40.312-108.055z"/><path fill="#FFF" d="M37.098 132.197l8.514 3.176-.733 1.964-8.514-3.176z"/></svg>