<svg xmlns="http://www.w3.org/2000/svg" width="126.297" height="154.418" viewBox="0 0 126.297 154.418"><path fill="#C8CED5" d="M49.302 7.364l71.1 26.523L80.095 141.94l-71.1-26.523z"/><path fill="#FFF" d="M77.957 17.969L90.36 22.54 50.38 131.025l-12.405-4.572z"/><path fill="none" stroke="#FFF" stroke-width="7" stroke-miterlimit="10" d="M80.639 47.425l30.953 11.738"/><path fill="#ECEEF4" stroke="#C53B2E" stroke-width="9" stroke-linecap="round" stroke-miterlimit="10" d="M68.443 62.244l15.953-41.9"/><path fill="none" stroke="#FFF" stroke-width="7" stroke-miterlimit="10" d="M71.576 72.166l30.953 11.738"/><path fill="#ECEEF4" d="M114.811 55.851l-9.166-3.366 3.361-9.169 9.167 3.366zM99.566 97.366L90.4 93.999l3.361-9.169 9.167 3.366z"/><path fill="#FFF" d="M54.706 83.805L38.227 37.227l6.31-17.09 17.806 47.124z"/><path fill="none" stroke="#A0C02A" stroke-width="8" stroke-miterlimit="10" d="M44.773 128.818L58.132 90.08s3.66-7.134 0-16.163l-8.429-22.05"/><path fill="#A0C02A" d="M62.13 50.865L43.554 35.781l-3.778 23.63z"/><path fill="#FFF" d="M18.002 87.603l72.209 27.333-10.398 27.468L7.605 115.07z"/><path fill="#ECEEF4" d="M92.349 75.496l-16.98-6.235 6.227-16.985 16.979 6.235z"/><path fill="#3A445A" d="M77.097 154.224l-73.72-27.502a3.07 3.07 0 0 1-1.803-3.949L46.631 1.997A3.07 3.07 0 0 1 50.58.194l73.72 27.502a3.07 3.07 0 0 1 1.803 3.949L81.045 152.421a3.07 3.07 0 0 1-3.948 1.803zm43.307-120.333L49.302 7.365 8.991 115.42l71.102 26.526 40.311-108.055z"/><path fill="#FFF" d="M38.477 132.197l8.514 3.175-.733 1.965-8.514-3.176z"/><path fill="#ECEEF4" d="M78.374 89.392l-9.166-3.366 3.361-9.169 9.166 3.366zm10.525 3.866l-9.166-3.367 3.361-9.169 9.166 3.366zm4.836-45.146l-9.166-3.366 3.361-9.17 9.167 3.366zm10.596 3.745l-9.167-3.367 3.362-9.169 9.166 3.366zM73.93 100.512l-9.166-3.366 3.361-9.169 9.167 3.366zm-25.636-9.414l-9.166-3.366 3.361-9.17 9.167 3.366z"/><path fill="none" d="M5.083 89.948l94.258 33.954-6.815 18.92-94.258-33.954z"/><text transform="rotate(19.814 -287.661 129.442)"><tspan x="0" y="0" font-family="'Ingra-Regular'" font-size="9.789">Faster route</tspan><tspan x="6.323" y="9.356" font-family="'Ingra-Regular'" font-size="9.789">available</tspan></text></svg>