<svg xmlns="http://www.w3.org/2000/svg" xmlns:xlink="http://www.w3.org/1999/xlink" width="240" height="810.632" viewBox="0 0 240 810.632"><image overflow="visible" width="264" height="264" xlink:href="9413DCF2.png" transform="translate(-11.333 562.299)"/><g opacity=".1"><circle fill="#E68282" cx="120.786" cy="694.063" r="68.406" opacity=".83"/><circle fill="#E03E3B" cx="120.786" cy="694.063" r="68.406"/></g><circle opacity=".2" fill="#E25856" cx="120.786" cy="694.063" r="55.796"/><circle opacity=".3" fill="#E36A68" cx="120.786" cy="694.063" r="44.444"/><path fill="#7F7F81" d="M166.383 664.522v-17.927c0-4.95-20.415-8.964-45.597-8.964s-45.597 4.013-45.597 8.964v17.927h91.194z"/><ellipse fill="#A1A1A1" cx="120.786" cy="664.522" rx="45.597" ry="8.964"/><path fill="#DF1D16" d="M81.726 664.26l8.583 64.987h60.954l8.583-64.987a.736.736 0 0 0 .022-.167c0-2.878-17.498-5.211-39.082-5.211s-39.082 2.333-39.082 5.211c0 .055.009.111.022.167z"/><ellipse fill="#E03E3B" cx="120.786" cy="729.247" rx="30.477" ry="4.064"/><circle fill="#E03E3B" cx="120.786" cy="694.064" r="29.541"/><circle fill="#E25856" cx="120.786" cy="694.064" r="24.096"/><circle fill="#E36A68" cx="120.786" cy="694.064" r="19.193"/><circle fill="#F7DFE4" cx="120.786" cy="694.064" r="10.078"/><path fill="none" stroke="#7F7F81" stroke-width="2" stroke-miterlimit="10" d="M120.786 0v637.632"/></svg>