<svg xmlns="http://www.w3.org/2000/svg" width="118.184" height="123.994" viewBox="-1.132 -0.051 118.184 123.994"><path fill="#7F7F81" d="M-1.132 89.094v23.233c0 6.415 26.456 11.616 59.092 11.617s59.092-5.2 59.092-11.616V89.094H-1.132z"/><ellipse fill="#A1A1A1" cx="57.96" cy="89.094" rx="59.092" ry="11.616"/><path fill="#DF1D16" d="M108.58 89.435L97.457 5.215H18.464L7.34 89.435a.944.944 0 0 0-.029.217c0 3.73 22.676 6.754 50.649 6.754 27.972 0 50.649-3.023 50.649-6.753a.945.945 0 0 0-.029-.218z"/><ellipse fill="#E03E3B" cx="57.96" cy="5.215" rx="39.496" ry="5.266"/><circle fill="#E03E3B" cx="57.96" cy="50.81" r="38.284"/><circle fill="#E25856" cx="57.96" cy="50.81" r="31.227"/><circle fill="#E36A68" cx="57.96" cy="50.81" r="24.873"/><circle fill="#F7DFE4" cx="57.96" cy="50.81" r="13.06"/></svg>