<svg xmlns="http://www.w3.org/2000/svg" width="147.088" height="226.369" viewBox="0 0 147.088 226.369"><path fill="#E8CDC6" d="M53.693 125.886l-7.215 41.798-38.244 7.805 45.127 40.296 67.493-36.872-30.01-7.449 3.928-56.727z"/><path fill="#F4D4CA" d="M74.882 35.4c26.954 7.697 25.211 26.407 25.211 26.407s1.113 11.053-.357 28.264c2.712-3.338 7.062-4.558 11.344-2.446 9.075 4.476.632 33.369-13.354 30.076-1.049 8.138-4.935 17.834-6.102 19.98-4.414 8.111-22.54 19.853-38.107 21.001-15.566 1.148-35.06-10.733-35.531-28.987-.654-25.285 9.446-94.328 9.446-94.328s2.818-12.713 47.45.033z"/><path fill="#FFF" d="M70.584 123.711l-38.083-.689c.001 0 10.269 22.294 38.083.689z"/><path fill="#EBA655" d="M86.264 44.289c7.363.376 16.999 7.648 24.37 7.874-.027.051-.063.096-.087.148-1.394 3.127-1.611 34.759-1.611 34.759-7.423-.049-8.967 6.104-8.967 6.104l-1.702 13.199-7.312-1.164 1.087-28.093c-4.842-2.902-6.239-7.495-6.239-7.495s1.326-20.269.461-25.332z"/><path fill="#C27E79" d="M46.855 82.379c-.53 1.296-1.101 2.571-1.666 3.849a157.911 157.911 0 0 1-1.723 3.82 337.248 337.248 0 0 1-3.609 7.556 217.628 217.628 0 0 1-1.863 3.748l-1.892 3.732c-1.286 2.476-2.569 4.954-3.899 7.407l-.437-.99c2.481.725 4.955 1.472 7.419 2.259 1.235.382 2.461.797 3.688 1.209 1.228.408 2.455.817 3.673 1.262-1.276-.231-2.542-.499-3.808-.767-1.267-.265-2.534-.526-3.793-.82a301.75 301.75 0 0 1-7.543-1.799l-.817-.205.38-.785c1.215-2.512 2.478-5 3.737-7.49l1.926-3.716c.639-1.24 1.292-2.473 1.955-3.701a339.323 339.323 0 0 1 4.027-7.341c.681-1.218 1.38-2.428 2.095-3.629.705-1.204 1.407-2.412 2.15-3.599z" opacity=".7"/><path fill="#D5825F" d="M79.882 69.832l-1.01-.452a52.318 52.318 0 0 0-2.623-1.068 45.353 45.353 0 0 0-1.748-.603c-.61-.227-1.285-.355-1.952-.559-.681-.15-1.38-.318-2.092-.434-.718-.086-1.436-.24-2.166-.241-.363-.02-.726-.064-1.088-.07-.361.021-.721.024-1.079.034-.721-.023-1.412.122-2.099.187-.694.037-1.329.258-1.963.368-.638.109-1.21.321-1.756.491-.532.198-1.078.284-1.502.491-.43.191-.825.337-1.149.464-.651.251-1.052.376-1.052.376s.259-.306.761-.811c.252-.25.558-.563.932-.897.355-.364.848-.636 1.361-.985.519-.341 1.079-.737 1.756-.98.665-.26 1.345-.653 2.126-.795.769-.178 1.565-.427 2.403-.45l1.26-.097c.422-.001.845.035 1.268.054.851.024 1.678.203 2.491.368.412.062.795.216 1.182.331.383.129.771.228 1.128.389.719.309 1.408.611 2.018.979.631.325 1.18.712 1.678 1.072.506.346.926.731 1.3 1.054.367.338.673.643.91.913.485.522.705.871.705.871zm-36.293 1.667l-.845-.532-.956-.579c-.368-.215-.794-.439-1.238-.692-.464-.226-.946-.489-1.478-.708-.513-.257-1.081-.443-1.648-.66-.577-.18-1.171-.361-1.776-.481-.305-.051-.611-.093-.915-.156-.304-.065-.616-.033-.923-.057-.618-.088-1.227.033-1.836.063-.61.042-1.187.261-1.777.352-.57.171-1.11.411-1.65.583-.28.07-.512.228-.757.343l-.712.347c-.459.226-.904.415-1.251.659-.357.229-.69.412-.963.568-.549.311-.892.475-.892.475s.174-.319.53-.852c.18-.265.396-.595.67-.954.25-.385.606-.747 1.024-1.121.42-.369.83-.846 1.386-1.193.561-.337 1.144-.736 1.806-1.042l1.056-.379c.361-.122.721-.271 1.115-.302.774-.118 1.568-.254 2.366-.173.396.036.801.021 1.186.105.387.077.768.173 1.146.26.386.067.729.241 1.081.373.344.15.705.253 1.011.448.634.348 1.234.694 1.741 1.104.534.372.963.813 1.367 1.197 1.575 1.602 2.132 3.004 2.132 3.004z"/><path fill="#EBA655" d="M91.222 47.595s-32.061 8.924-57.511-2.644l18.84-4.297s-23.634-.497-32.06-8.924C9.254 20.492 18.533 0 18.533 0s12.89 14.213 23.797 15.865c0 0-10.907-4.151-13.882-14.212 0 0 52.221-8.593 60.484 15.534 0 0-5.949-12.56-8.263-13.551-2.313-.992 26.442 5.619 33.052 18.839 6.61 13.221-4.786 64.596-4.786 64.596L91.222 47.595z"/><path opacity=".5" fill="#D5825F" d="M59.396 50.74c18.442-7.869 34.899-24.835 30.806-44.42 8.356 3.023 19.677 8.47 23.52 16.155 6.61 13.221-4.786 64.596-4.786 64.596-7.423-.049-8.967 6.104-8.967 6.104l-1.702 13.199-7.312-1.164 1.087-28.093c-4.842-2.902-6.239-7.495-6.239-7.495s.863-13.203.741-20.958c-5.643 1.129-15.81 2.661-27.148 2.076z"/><path fill="#222129" d="M37.333 83.074c0 4.575-2.043 8.287-4.551 8.287-2.516 0-4.554-3.712-4.554-8.287 0-4.58 2.038-8.292 4.554-8.292 2.508 0 4.551 3.712 4.551 8.292zm35.549-.001c0 4.576-2.041 8.288-4.554 8.288-2.511 0-4.554-3.712-4.554-8.288 0-4.579 2.043-8.291 4.554-8.291 2.514 0 4.554 3.712 4.554 8.291z"/><path fill="#F1F1F1" d="M0 187.119l10.243 29.783s24.318 10.888 63.055 9.31c27.364-1.114 35.252-6.966 35.252-6.966l38.538-43.225s-19.73-9.571-61.429-9.52c0 0 .07-1.335-9.371 3.678-7.239 3.846-9.73 30.087-9.73 30.087s-1.414-26.363-5.504-28.527c-6.295-3.329-5.172-2.617-10.362-4.002-15.714 1.085-32.054 5.866-50.378 8.884L0 187.119z"/><path fill="#EAEAE8" d="M39.42 166.64l10.152 22.433 11.481-17.333-18.056-12.019z"/><path fill="#F0D964" d="M45.198 166.898a.371.371 0 0 0-.203-.284l.368-.064-.023.336c-.047.004-.094.009-.142.012zm30.292-5.576l.811-.141c-.267.08-.535.157-.803.235l-.008-.094zm42.79-.141l.136.024-.001.016-.135-.04z"/><path fill="#EAEAE8" d="M98.411 166.05l-13.655 22.007-9.588-17.832 19.95-12.929z"/><path opacity=".4" fill="#B4765F" d="M109.463 92.61c-4.832-2.446-9.106 5.336-9.308 13.644 3.956-.595 4.623 4.012 2.42 7.268 7.853 1.667 12.015-18.315 6.888-20.912z"/></svg>