<svg xmlns="http://www.w3.org/2000/svg" width="304.544" height="746.351" viewBox="0 0 304.544 746.351"><path fill="#F2CAAC" d="M286.225 363.852c-5.574-4.371-11.077-4.232-18.165-3.379-10.621-17.987-39.239-66.836-39.239-66.836l-6.681 18.471s-1.598 10.94 5.849 21.414c8.915 12.539 15.761 28.708 24.774 39.227-.143.226-.231.374-.231.374-.913 6.594 3.871 12.392 6.488 16.241 2.608 3.853 3.399 5.944 5.934 10.111 2.169 3.563 5.803 9.393 7.727 7.129 1.917-2.263-5.465-13.425-4.47-14.321 1.285-1.162 17.591 22.719 19.763 15.934.709-2.205-10.907-15.315-11.42-18.383-.516-3.067 18.177 18.257 21.514 13.856 2.018-2.66-17.842-20.306-14.604-19.011 4.156 1.659 16.149 10.946 18.625 10.963 2.477.016 5.563.335-4.615-9.143-7.454-6.947-13.927-11.282-13.963-13.781-.051-3.087 4.947.121 4.947.121 12.569 5.051 12.333-1.244 12.444-3.265.103-2.02-8.838-1.138-14.677-5.722z"/><path fill="#FFF" d="M269.7 353.81l-33.998-80.386-30.708-83.525c-12.441-2.006-37.823 2.468-18.097 47.256l25.2 62.494 29.212 70.425L269.7 353.81z"/><path opacity=".1" fill="#1C1918" d="M0 734.943c0 6.3 59.71 11.409 133.371 11.409 73.658 0 133.368-5.109 133.368-11.409 0-6.302-59.71-11.407-133.368-11.407C59.71 723.536 0 728.64 0 734.943z"/><path fill="#0C0A0A" d="M97.267 674.201l-6.674 40.085H75.034l5.207-43.599z"/><path fill="#6A5644" d="M70.315 695.292s-8.871 11.537-22.348 15.594c-13.473 4.052-25.645 9.209-24.656 17.318 0 0 20.054 9.814 52.592-1.102v3.43l21.363-.934v-28.38l-17.752 1.245 1.319-2.808-10.518-4.363z"/><path fill="#503F34" d="M61.746 727.497c-29.157 7.494-36.564-.83-38.264-1.406a5.507 5.507 0 0 0-.169 2.113s20.054 9.814 52.592-1.102v3.43l21.363-.934v-5.661c-7.625.458-14.024-1.971-35.522 3.56z"/><path fill="#1C1918" d="M73.275 711.824a.94.94 0 0 1-.779-.417c-4.378-6.532-9.267-8.35-9.318-8.367a.938.938 0 0 1-.564-1.204.945.945 0 0 1 1.194-.564c.229.082 5.526 2.055 10.246 9.091a.937.937 0 0 1-.258 1.3.909.909 0 0 1-.521.161zm-4.887 2.197a.943.943 0 0 1-.784-.417c-4.375-6.532-9.267-8.351-9.318-8.367a.942.942 0 0 1-.564-1.204.945.945 0 0 1 1.201-.565c.222.08 5.521 2.055 10.239 9.091a.938.938 0 0 1-.774 1.462zm-4.891 2.164a.945.945 0 0 1-.782-.412c-4.351-6.491-9.272-8.351-9.317-8.372a.936.936 0 1 1 .635-1.763c.222.08 5.526 2.052 10.239 9.091a.937.937 0 0 1-.251 1.3.974.974 0 0 1-.524.156z"/><path fill="#0C0A0A" d="M169.949 674.201l6.671 40.085h15.563l-5.21-43.599z"/><path fill="#6A5644" d="M196.898 695.292s8.871 11.537 22.347 15.594c13.476 4.052 27.121 9.209 26.137 17.318 0 0-21.537 9.814-54.075-1.102v3.43l-21.358-.934v-28.38l17.748 1.245-1.312-2.808 10.513-4.363z"/><path fill="#503F34" d="M209.899 728.973c20.471 3.22 33.607-2.306 35.314-2.882.186.702.253 1.406.169 2.113 0 0-21.537 9.814-54.075-1.102v3.43l-21.358-.934v-7.14c7.622.459 20.299 3.423 39.95 6.515z"/><path fill="#1C1918" d="M193.939 711.824a.928.928 0 0 0 .779-.417c4.38-6.532 9.272-8.35 9.317-8.367a.947.947 0 0 0 .569-1.204.953.953 0 0 0-1.201-.564c-.227.082-5.521 2.055-10.244 9.091a.941.941 0 0 0 .78 1.461zm4.891 2.197a.937.937 0 0 0 .777-.417c4.378-6.532 9.272-8.351 9.32-8.367a.939.939 0 0 0-.632-1.769c-.227.08-5.526 2.055-10.244 9.091a.938.938 0 0 0 .779 1.462zm4.89 2.164a.943.943 0 0 0 .779-.412c4.352-6.491 9.272-8.351 9.323-8.372a.937.937 0 1 0-.64-1.763c-.225.08-5.524 2.052-10.241 9.091a.941.941 0 0 0 .258 1.3c.159.105.34.156.521.156z"/><path fill="#D5CBA1" d="M135.677 357.046c-12.9-.526-34.62-3.114-34.62-3.114L84.853 547.48 68.61 689.235s7.875 10.83 37.408 5.905l22.149-138.8 17.719-131.911h9.841L164.1 695.14s12.798 9.843 36.422.984l-2.945-347.741c-6.301 2.423-28.887 10.012-61.9 8.663z"/><path d="M185.627 358.575c8.367-2.122 12.408-4.831 12.499-4.865 2.451-.938 2.156 1.717 2.458 4.52.4 3.702-.152 5.695-2.352 6.481-.405.147-2.32 2.431-10.652 4.781-.658-3.639-1.314-7.277-1.953-10.917zm-60.098 3.766c9.339.868 19.552.941 30.611.502a143.568 143.568 0 0 0 22.577-2.713c-.169 3.804.311 7.566.921 11.32a136.424 136.424 0 0 1-23.187 2.909c-3.601.142-7.12.198-10.565.174-7.709-.06-14.815-.434-21.489-1.208.7-3.611 1.103-7.263 1.132-10.984zm-27.36-.579c.446-2.791.724-5.265 3.186-4.373 5.516 1.985 11.544 3.367 18.052 4.274-.186 3.63-.632 7.231-1.088 10.83-6.758-1.107-13.054-2.706-18.946-5.036-1.717-.678-1.659-2.88-1.204-5.695z" fill="#6A5644"/><path fill="#A8A8A8" d="M140.846 361.402l-.109 14.761 21.691-1.512.102-13.695-21.684.446zm3.661 2.424l14.327-.294-.068 9.052-14.335.999.076-9.757z"/><path fill="#DAB8A0" d="M156.598 160.807l-1.324 54.878-33.081-14.786 1.04-56.516z"/><path fill="#F2CAAC" d="M129.043 24.115c-31.431 7.167-30.587 28.76-30.587 28.76s.974 16.67 1.599 36.522c-2.909-3.998-7.829-5.67-12.88-3.509-10.697 4.574-2.796 38.277 13.473 35.365.702 9.412 1.619 16.743 2.827 19.277 4.566 9.588 24.656 24.2 42.459 26.482 17.806 2.28 40.177-9.588 40.177-30.589 0-21.001.273-98.768.273-98.768s-5.294-25.411-57.341-13.54z"/><path fill="#222129" d="M138.974 87.802c0 4.575-2.043 8.287-4.551 8.287-2.516 0-4.554-3.712-4.554-8.287 0-4.58 2.038-8.292 4.554-8.292 2.508-.001 4.551 3.711 4.551 8.292zm38.349 1.826c0 4.576-2.041 8.288-4.554 8.288-2.511 0-4.554-3.712-4.554-8.288 0-4.579 2.043-8.291 4.554-8.291 2.513-.001 4.554 3.711 4.554 8.291z"/><path fill="#816539" d="M146.393 68.853c-2.318-.614-4.542-1.184-6.761-1.579-2.212-.398-4.405-.624-6.535-.514-2.12.137-4.185.58-6.07 1.579-1.929.938-3.595 2.459-5.29 4.168.648-2.301 2.022-4.511 4.067-6.061 2.015-1.597 4.616-2.405 7.137-2.547 2.539-.127 5.02.36 7.298 1.212 2.267.882 4.401 2.075 6.154 3.742zm18.718 0c1.271-1.62 2.965-2.849 4.848-3.749 1.888-.877 4.062-1.39 6.301-1.164 1.11.122 2.23.406 3.239.926a9.667 9.667 0 0 1 2.657 2.002 10.55 10.55 0 0 1 2.587 5.638c-1.35-1.541-2.654-2.933-4.091-3.96-1.456-.997-3.003-1.602-4.687-1.757-1.676-.174-3.458.029-5.268.435-1.817.409-3.649.991-5.586 1.629z"/><path opacity=".4" fill="#B4765F" d="M88.628 91.685c5.577-2.823 10.509 6.158 10.741 15.746-4.566-.686-5.336 4.63-2.793 8.388-9.063 1.923-13.865-21.137-7.948-24.134z"/><path fill="#D18F7F" d="M158.492 79.073c1.046 2.609 1.828 5.319 2.542 8.036a132.193 132.193 0 0 1 1.901 8.214 185.198 185.198 0 0 1 1.531 8.289c.441 2.774.881 5.549 1.228 8.336l.023.185-.159.079a538.932 538.932 0 0 1-10.148 4.924 529.8 529.8 0 0 1 9.915-5.378l-.136.264-1.387-8.298c-.507-2.757-.978-5.521-1.511-8.273a345.272 345.272 0 0 0-1.704-8.233c-.631-2.731-1.254-5.466-2.095-8.145z"/><path fill="#816539" d="M186.973 43.554c6.515-.859 18.587-13.866 13.864-27.432 0 0-1.179 7.374-11.508 7.374 0 0 5.902-2.359 7.079-5.899 0 0-7.374 4.424-24.771-6.195a86.6 86.6 0 0 0-5.27-2.951c-2.617-1.492-5.328-2.756-8.059-3.654-19.87-7.844-48.204-10.321-57.99 26.801-.425 1.292-.543 2.091-.543 2.091s-13.833-1.504-13.833 21.955c0 8.866 3.307 18.044 7.595 29.319 4.209.602 6.862 6.373 6.862 6.373l1.963 15.16c-.007 4.133-.256 11.06-1.715 14.756-2.168 5.485-5.116 31.145 28.513 44.125 33.624 12.976 64.596-.593 56.929-44.247 0 0 .668 11.768-4.638 10.295-5.311-1.478-.338-16.7-25.724-13.863-8.013-1.002-18.872-7.512-27.748 7.698-6.949 11.91-19.697 3.737-20.686-26.402V91.19c.017-.443.019-.876.039-1.325l-.039.092V69.481s9.426-8.114 10.545-19.595c61.76 23.754 80.641-6.33 80.641-6.33s-4.376 1.44-11.506-.002zm-52.799 84.065c13.198 4.02 22.892-1.371 22.892-1.371 7.685 6.01 17.811 5.5 17.811 5.5 1.478 1.768 5.608 15.042-8.551 20.354-14.159 5.307-10.62-10.324-10.62-10.324l-5.601-.884s2.171 12.122-10.328 10.913c-18.283-1.771-5.603-24.188-5.603-24.188z"/><path fill="#FFF" d="M133.872 129.102s19.803 27.18 38.404 6.351l-38.404-6.351m73.044 70.719s-3.191 98.198-9.547 148.038c0 0-24.318 10.888-63.055 9.31-27.364-1.114-35.252-6.966-35.252-6.966L69.371 185.378s10.187-6.226 51.886-6.175c0 0-.07-1.335 9.371 3.678 7.239 3.846 9.73 30.087 9.73 30.087s1.414-26.363 5.504-28.527c6.295-3.329 5.172-2.617 10.362-4.001 15.714 1.085 32.054 5.866 50.378 8.884l.314 10.497z"/><path fill="#EAEAE8" d="M108.505 178.752l13.655 22.007 9.587-17.832-19.95-12.929z"/><path fill="#F2CAAC" d="M89.306 359.237s4.131 55.705 10.611 58.091c0 0 2.004 3.172 6.612 1.752 0 0 2.675 4.258 7.386.781 0 0 1.893 3.082 4.11 4.064 3.448 1.528 7.992-2.584 2.879-14.226 0 0 2.984 2.988 7.181 2.799 5.707-.257.311-6.22.311-6.22s-3.167-6.475-8.105-14.971c-4.938-8.496-8.621-9.092-8.621-9.092L86.306 311.99l3 47.247z"/><path fill="#FFF" d="M69.371 185.378l-.717 121.954 14.896 78.91 28.203-18.411-11.871-63.518-8.509-122.895z"/><path fill="#EAEAE8" d="M167.496 179.342l-10.152 22.433-11.481-17.333 18.056-12.019z"/><path fill="#FFF" d="M69.371 185.378s-18.081 3.293-7.511 54.175l6.525 65.09h30.984l6.489-48.839-19.914-52.031-16.573-18.395z"/></svg>