<svg xmlns="http://www.w3.org/2000/svg" width="711.864" height="503.627" viewBox="0 0 711.864 503.627"><path fill="#56A0E0" d="M6 6h704.523v253.813H6z"/><path fill="#A3C32A" d="M6 251.813h699.864v248.1H6z"/><path fill="#F2F2F2" d="M700.864 491.627L380.735 251.813h-43.896L11 491.627"/><path fill="none" stroke="#959595" stroke-width="11" stroke-linecap="round" stroke-miterlimit="10" d="M355.932 497.627v-65.57"/><path fill="#5D5E59" d="M250.993 10.973s-.338 51.221 53.058 51.221H413.05s51.834-6.34 47.571-51.221H250.993z"/><path fill="none" stroke="#959595" stroke-width="12" stroke-miterlimit="10" d="M6 6h699.864v491.627H6z"/><path fill="none" stroke="#929292" stroke-width="8" stroke-linecap="round" stroke-miterlimit="10" d="M355.932 401.144v-36.785"/><path fill="none" stroke="#959595" stroke-width="6" stroke-linecap="round" stroke-miterlimit="10" d="M355.932 341.2v-24.785"/><path fill="none" stroke="#5D5E59" stroke-width="4" stroke-linecap="round" stroke-miterlimit="10" d="M355.932 296.852v-14.785"/><path fill="none" stroke="#5D5E59" stroke-width="3" stroke-linecap="round" stroke-miterlimit="10" d="M355.932 265.206v-10.785"/><path fill="#5D5E59" d="M330.012 59.9h51.783v42.37h-51.783z"/><path fill="#3A445A" d="M336.872 429.594l-25.054.224a4.034 4.034 0 0 1-4.07-3.997l-.404-45.083 33.121-.297.404 45.083a4.033 4.033 0 0 1-3.997 4.07zm-185.568 1.663l-21.847.196a5.638 5.638 0 0 1-5.688-5.587l-.39-43.48 33.121-.297.389 43.48a5.635 5.635 0 0 1-5.585 5.688z"/><path fill="#D44B4A" d="M291.04 237.476l-116.71 1.045c-8.937.08-16.835 6.234-19.665 15.323l-18.995 61h-.032l-19.431 36.497a9.955 9.955 0 0 0-1.168 4.768l.348 38.831c.049 5.463 4.49 9.866 9.953 9.867l212.576.07c5.535.002 10.009-4.511 9.96-10.046l-.335-37.391a9.952 9.952 0 0 0-.849-3.934l-17.843-40.394-.604.005-16.972-59.706c-2.708-9.53-10.946-16.018-20.233-15.935z"/><path fill="#A6D5DA" d="M294.346 313.423l-126.24 1.131c-6.58.059-11.25-6.873-9.13-13.552l14.387-45.326c1.306-4.115 4.893-6.893 8.947-6.929l98.804-.885c4.216-.038 7.959 2.895 9.21 7.215l13.049 45.08c1.896 6.555-2.632 13.209-9.027 13.266z"/><path d="M300.227 290.05c-8.928-4.932-18.129-9.373-27.234-13.963-11.41-5.752-22.65-11.877-34.039-17.682-5.959-3.038-11.905-6.104-17.8-9.264l-38.849.348a9.034 9.034 0 0 0-4.648 1.352l.201.108c5.944 3.234 11.91 6.426 17.862 9.644 10.65 5.757 21.263 11.592 31.627 17.854 10.3 6.223 20.325 12.868 30.711 18.957 9.742 5.712 19.601 11.221 29.406 16.822l6.878-.062c6.396-.057 10.923-6.712 9.026-13.266l-3.141-10.848zm-51.145 9.006c-10.635-6.375-20.935-13.275-31.652-19.516-10.608-6.178-21.423-11.991-32.23-17.812a2597.56 2597.56 0 0 1-11.499-6.228c-.126.299-.243.603-.343.918l-6.642 20.925c3.026 1.864 6.098 3.663 9.086 5.541 17.632 11.081 35.246 22.299 53.743 31.861l45.982-.412c-8.855-5.022-17.713-10.042-26.445-15.277z" opacity=".14" fill="#FDF9EB"/><path fill="#D44B4A" d="M324.179 304.118l6.762-3.466a5.811 5.811 0 0 1 3.95-.493l8.513 1.95a5.814 5.814 0 0 1 1.079 10.972l-9.205 4.125a5.814 5.814 0 0 1-2.655.502l-5.467-.261a5.816 5.816 0 0 1-5.354-4.362l-.603-2.349a5.814 5.814 0 0 1 2.98-6.618z"/><path fill="#425D7B" d="M138.297 305.783l-6.823-3.344a5.81 5.81 0 0 0-3.958-.422l-8.477 2.103a5.814 5.814 0 0 0-.883 10.99l9.277 3.96c.84.358 1.753.514 2.664.454l5.461-.359a5.814 5.814 0 0 0 5.275-4.457l.561-2.359a5.813 5.813 0 0 0-3.097-6.566z"/><path opacity=".1" fill="#FFF" d="M347.666 371.382l.21 23.452c.05 5.535-4.424 10.048-9.96 10.046l-212.576-.07a9.957 9.957 0 0 1-9.953-9.868l.553-20.903 231.726-2.657z"/><path opacity=".1" d="M123.58 404.65l33.125.169.094 10.412-33.185-6.72zm183.983.501l33.126.17.093 10.412-33.184-6.72z"/><circle fill="#F3F3F3" cx="318.838" cy="361.842" r="14.652"/><path opacity=".1" d="M325.002 370.374c2.521-1.233 4.778-3.193 5.882-5.774.14 2.698-1.133 5.431-3.289 7.06-.732.553-1.55.981-2.378 1.377-.877.419-1.775.806-2.72 1.033-2.545.612-5.362-.038-7.381-1.704.659.538 3.521-.038 4.232-.181 1.942-.392 3.869-.938 5.654-1.811z"/><circle fill="#F3F3F3" cx="141.863" cy="367.519" r="14.652"/><path opacity=".1" d="M148.027 376.052c2.521-1.233 4.778-3.193 5.882-5.774.14 2.698-1.133 5.43-3.289 7.06-.732.553-1.55.981-2.378 1.377-.877.419-1.775.806-2.72 1.033-2.545.612-5.362-.038-7.381-1.704.659.538 3.521-.038 4.232-.181 1.942-.392 3.869-.938 5.654-1.811z"/><g fill="#5D5E59"><path d="M355.932 320.627H174.365c-29.929 1.995-31.924-14.109-31.924-14.109-23.943-87.934 0-192.864 0-192.864s1.995-14.498 21.948-12.503H373.89"/><path d="M355.932 320.627h181.567c29.929 1.995 31.924-14.109 31.924-14.109 23.943-87.934 0-192.864 0-192.864s-1.995-14.498-21.948-12.503H373.889"/><path d="M513.987 306.224h-316.11a4 4 0 0 1-4-4V119.535a4 4 0 0 1 4-4h316.109a4 4 0 0 1 4 4v182.689c.001 2.209-1.79 4-3.999 4z"/></g><path fill="#56A0E0" d="M514.987 204.55H196.324a3 3 0 0 1-3-3v-84.29a3 3 0 0 1 3-3h318.662a3 3 0 0 1 3 3v84.289a3 3 0 0 1-2.999 3.001z"/><path fill="#A3C32A" d="M193.324 190.338h324.662V306.88H193.324z"/><path fill="#F2F2F2" d="M518.729 306.988l-149.377-117.65h-20.62l-153.059 117.65"/><path fill="none" stroke="#959595" stroke-width="6" stroke-linecap="round" stroke-miterlimit="10" d="M356.701 300.806v-25.8"/><path fill="none" stroke="#959595" stroke-width="5" stroke-linecap="round" stroke-miterlimit="10" d="M356.701 260.485v-17.28"/><path fill="none" stroke="#959595" stroke-width="3" stroke-linecap="round" stroke-miterlimit="10" d="M356.701 232.327v-11.643"/><path fill="none" stroke="#959595" stroke-width="2" stroke-linecap="round" stroke-miterlimit="10" d="M356.701 211.495v-6.945"/><path fill="none" stroke="#959595" stroke-linecap="round" stroke-miterlimit="10" d="M356.701 196.629v-5.066"/><path fill="#3A445A" d="M344.289 259.728l-4.004.036a4.034 4.034 0 0 1-4.07-3.997l-.124-13.867 12.071-.108.124 13.867a4.034 4.034 0 0 1-3.997 4.069zm-65.066.583l-7.962.071a2.054 2.054 0 0 1-2.073-2.036l-.142-15.846 12.071-.108.142 15.846a2.054 2.054 0 0 1-2.036 2.073z"/><path fill="#D44B4A" d="M330.149 189.689l-42.534.381c-3.257.029-6.135 2.272-7.167 5.584l-6.923 22.231h-.012l-7.081 13.301a3.631 3.631 0 0 0-.426 1.738l.127 14.152a3.628 3.628 0 0 0 3.627 3.596l77.472.025a3.629 3.629 0 0 0 3.63-3.661l-.122-13.627a3.633 3.633 0 0 0-.309-1.434l-6.503-14.721-.22.002-6.185-21.76c-.987-3.473-3.989-5.837-7.374-5.807z"/><path fill="#A6D5DA" d="M331.354 217.367l-46.008.412c-2.398.021-4.1-2.505-3.327-4.939l5.243-16.519c.476-1.5 1.783-2.512 3.261-2.525l36.009-.323c1.536-.014 2.901 1.055 3.356 2.63l4.755 16.429c.692 2.389-.958 4.815-3.289 4.835z"/><path d="M333.497 208.849c-3.254-1.797-6.607-3.416-9.925-5.089-4.158-2.096-8.255-4.328-12.405-6.444a349.56 349.56 0 0 1-6.487-3.376l-14.158.127a3.28 3.28 0 0 0-1.694.493l.073.039c2.166 1.178 4.34 2.342 6.51 3.515 3.881 2.098 7.749 4.225 11.526 6.507 3.754 2.268 7.407 4.69 11.192 6.909 3.55 2.082 7.143 4.089 10.717 6.131l2.507-.022c2.331-.021 3.981-2.446 3.29-4.835l-1.146-3.955zm-18.639 3.282c-3.876-2.323-7.63-4.838-11.535-7.113-3.866-2.252-7.808-4.37-11.746-6.491a847.083 847.083 0 0 1-4.191-2.27c-.046.109-.089.22-.125.334l-2.421 7.626c1.103.679 2.222 1.335 3.311 2.019 6.426 4.038 12.845 8.127 19.586 11.612l16.758-.15c-3.227-1.83-6.455-3.659-9.637-5.567z" opacity=".14" fill="#FDF9EB"/><path fill="#D44B4A" d="M342.226 213.976l2.464-1.263a2.125 2.125 0 0 1 1.44-.18l3.103.711a2.118 2.118 0 0 1 .393 3.998l-3.355 1.503a2.12 2.12 0 0 1-.968.183l-1.992-.095a2.118 2.118 0 0 1-1.951-1.59l-.22-.856a2.118 2.118 0 0 1 1.086-2.411z"/><path fill="#425D7B" d="M274.483 214.583l-2.486-1.219a2.123 2.123 0 0 0-1.443-.154l-3.089.766a2.119 2.119 0 0 0-.321 4.006l3.381 1.443c.306.131.639.187.971.166l1.99-.131a2.119 2.119 0 0 0 1.922-1.624l.204-.86a2.12 2.12 0 0 0-1.129-2.393z"/><path opacity=".1" fill="#FFF" d="M350.786 238.49l.077 8.547a3.628 3.628 0 0 1-3.63 3.661l-77.472-.025a3.628 3.628 0 0 1-3.627-3.596l.202-7.618 84.45-.969z"/><path opacity=".1" d="M269.119 250.615l12.073.061.034 3.795-12.094-2.449zm67.052.182l12.072.062.034 3.794-12.094-2.449z"/><circle fill="#F3F3F3" cx="340.28" cy="235.013" r="5.34"/><path opacity=".1" d="M342.526 238.123c.919-.449 1.741-1.164 2.143-2.104a3.083 3.083 0 0 1-1.199 2.573 4.952 4.952 0 0 1-.867.502 5.08 5.08 0 0 1-.991.377 3.143 3.143 0 0 1-2.69-.621c.24.196 1.283-.014 1.542-.066.71-.144 1.412-.343 2.062-.661z"/><circle fill="#F3F3F3" cx="275.782" cy="237.082" r="5.34"/><path opacity=".1" d="M278.029 240.192c.919-.449 1.741-1.164 2.143-2.104a3.083 3.083 0 0 1-1.199 2.573 4.952 4.952 0 0 1-.867.502 5.08 5.08 0 0 1-.991.377 3.142 3.142 0 0 1-2.69-.621c.24.196 1.283-.014 1.542-.066.709-.144 1.411-.343 2.062-.661z"/></svg>