<svg xmlns="http://www.w3.org/2000/svg" width="278.356" height="192.39" viewBox="-114.8 -31.955 278.356 192.39"><path fill="#5D5E59" d="M-40.784-31.955S-40.994-.149-7.837-.149h67.684s32.187-3.937 29.54-31.806H-40.784z"/><path fill="none" stroke="#5D5E59" stroke-width="4" stroke-linecap="round" stroke-miterlimit="10" d="M24.379 145.565v-9.18"/><path fill="none" stroke="#5D5E59" stroke-width="3" stroke-linecap="round" stroke-miterlimit="10" d="M24.379 125.914v-6.697"/><path fill="#5D5E59" d="M8.284-1.573h32.155v26.31H8.284z"/><g fill="#5D5E59"><path d="M24.379 160.329H-88.368c-18.585 1.239-19.824-8.761-19.824-8.761-14.868-54.603 0-119.762 0-119.762s1.239-9.003 13.629-7.764H35.529"/><path d="M24.379 160.329h112.747c18.585 1.239 19.824-8.761 19.824-8.761 14.868-54.603 0-119.762 0-119.762s-1.239-9.003-13.629-7.764H35.529"/><path d="M121.009 151.385h-193.26a4 4 0 0 1-4-4V36.974a4 4 0 0 1 4-4h193.26a4 4 0 0 1 4 4v110.411a4 4 0 0 1-4 4z"/></g><path fill="#56A0E0" d="M122.009 88.249H-73.595a3 3 0 0 1-3-3V35.183a3 3 0 0 1 3-3h195.603a3 3 0 0 1 3 3v50.066a2.998 2.998 0 0 1-2.999 3z"/><path fill="#A3C32A" d="M-76.595 79.424h201.603v72.368H-76.595z"/><path fill="#F2F2F2" d="M125.47 151.859L32.712 78.803H19.908l-95.044 73.056"/><path fill="none" stroke="#959595" stroke-width="6" stroke-linecap="round" stroke-miterlimit="10" d="M24.856 148.021V132"/><path fill="none" stroke="#959595" stroke-width="5" stroke-linecap="round" stroke-miterlimit="10" d="M24.856 122.983v-10.73"/><path fill="none" stroke="#959595" stroke-width="3" stroke-linecap="round" stroke-miterlimit="10" d="M24.856 105.498v-7.23"/><path fill="none" stroke="#959595" stroke-width="2" stroke-linecap="round" stroke-miterlimit="10" d="M24.856 92.562v-4.313"/><path fill="none" stroke="#959595" stroke-linecap="round" stroke-miterlimit="10" d="M24.856 83.331v-3.146"/><path fill="#3A445A" d="M15.906 122.524a3.747 3.747 0 0 1-3.781-3.714l-.066-7.368 7.496-.067.066 7.368a3.75 3.75 0 0 1-3.715 3.781zm-39.161.351l-4.944.044a1.275 1.275 0 0 1-1.287-1.264l-.088-9.84 7.496-.067.088 9.84a1.276 1.276 0 0 1-1.265 1.287z"/><path fill="#D44B4A" d="M8.368 79.021l-26.412.237c-2.022.018-3.81 1.411-4.45 3.468l-4.299 13.805h-.007l-4.397 8.26a2.243 2.243 0 0 0-.264 1.079l.079 8.788a2.253 2.253 0 0 0 2.252 2.233l48.107.016a2.253 2.253 0 0 0 2.254-2.273l-.076-8.462a2.252 2.252 0 0 0-.192-.89l-4.038-9.141-.137.001-3.841-13.512c-.613-2.16-2.477-3.628-4.579-3.609z"/><path fill="#A6D5DA" d="M9.117 96.208l-28.569.256c-1.489.013-2.546-1.555-2.066-3.067l3.256-10.258c.296-.931 1.107-1.56 2.025-1.568l22.36-.2c.954-.009 1.801.655 2.084 1.633l2.953 10.202c.429 1.484-.596 2.989-2.043 3.002z"/><path d="M10.447 90.919c-2.02-1.116-4.103-2.121-6.163-3.16-2.582-1.302-5.126-2.688-7.703-4.002a216.426 216.426 0 0 1-4.028-2.097l-8.792.079a2.044 2.044 0 0 0-1.052.306l.045.025c1.345.732 2.695 1.454 4.042 2.183 2.41 1.303 4.812 2.623 7.157 4.041 2.331 1.408 4.6 2.912 6.95 4.29 2.205 1.293 4.436 2.539 6.655 3.807l1.557-.014c1.447-.013 2.472-1.519 2.043-3.002l-.711-2.456zm-11.574 2.038c-2.407-1.443-4.738-3.004-7.163-4.417-2.401-1.398-4.848-2.714-7.294-4.031a652.96 652.96 0 0 1-2.602-1.409 2.704 2.704 0 0 0-.078.208l-1.503 4.736c.685.422 1.38.829 2.056 1.254 3.99 2.508 7.976 5.046 12.162 7.21l10.406-.093c-2.003-1.137-4.008-2.273-5.984-3.458z" opacity=".14" fill="#FDF9EB"/><path fill="#D44B4A" d="M15.868 94.103l1.53-.784c.276-.141.592-.181.894-.112l1.927.441a1.317 1.317 0 0 1 .245 2.483l-2.083.934a1.321 1.321 0 0 1-.601.114l-1.237-.059a1.317 1.317 0 0 1-1.212-.987l-.136-.532a1.313 1.313 0 0 1 .673-1.498z"/><path fill="#425D7B" d="M-26.198 94.479l-1.544-.757a1.32 1.32 0 0 0-.896-.096l-1.918.476a1.315 1.315 0 0 0-.199 2.487l2.099.896c.19.081.397.116.603.103l1.236-.081a1.317 1.317 0 0 0 1.194-1.009l.127-.534a1.318 1.318 0 0 0-.702-1.485z"/><path opacity=".1" fill="#FFF" d="M21.183 109.325l.048 5.307a2.252 2.252 0 0 1-2.254 2.273l-48.107-.016a2.253 2.253 0 0 1-2.252-2.233l.125-4.731 52.44-.6z"/><path opacity=".1" d="M-29.529 116.854l7.497.038.021 2.356-7.51-1.52zm41.637.113l7.496.038.021 2.357-7.509-1.521z"/><circle fill="#F3F3F3" cx="14.659" cy="107.166" r="3.316"/><path opacity=".1" d="M16.054 109.097c.571-.279 1.081-.723 1.331-1.307a1.913 1.913 0 0 1-.744 1.598 3.167 3.167 0 0 1-.538.312 3.163 3.163 0 0 1-.616.234 1.952 1.952 0 0 1-1.67-.386c.149.122.797-.008.958-.041a5.318 5.318 0 0 0 1.279-.41z"/><circle fill="#F3F3F3" cx="-25.391" cy="108.451" r="3.316"/><path opacity=".1" d="M-23.996 110.382c.571-.279 1.081-.723 1.331-1.307a1.913 1.913 0 0 1-.744 1.598 3.167 3.167 0 0 1-.538.312 3.163 3.163 0 0 1-.616.234 1.952 1.952 0 0 1-1.67-.386c.149.122.797-.008.958-.041a5.318 5.318 0 0 0 1.279-.41z"/></svg>