<svg xmlns="http://www.w3.org/2000/svg" width="273.049" height="266.535" viewBox="0 0 273.049 266.535"><path fill="#F0D964" d="M183.544 214.812a.39.39 0 0 1 .214-.299l-.388-.067.024.355.15.011zm-31.951-5.882l-.856-.149c.282.084.565.166.847.248.004-.032.006-.066.009-.099zm-45.134-.148l-.143.025.001.017.142-.042z"/><circle fill="#5D5E59" cx="141.794" cy="5.939" r="5.939"/><path fill="none" stroke="#5D5E59" stroke-width="2" stroke-miterlimit="10" d="M8 58.677L140.263 6.215l124.786 52.462"/><path fill="#E1E5E8" d="M4 54.677h265.049v207.858H4z"/><path fill="#5D5E59" d="M265.049 58.677v199.858H8V58.677h257.049m8-8H0v215.858h273.049V50.677z"/><path fill="#F3F3F3" d="M259.618 258.312l-1.789-19.797 6.612-41.408-.008 61.205"/><path fill="#69403D" d="M111.732 139.889c-.756-.585-1.58-1.126-2.422-1.352-.421-.101-.812-.066-1.065.152-.264.199-.427.607-.589 1.019-.286.835-.43 1.748-.478 2.67-.07.918-.045 1.868.013 2.778l-.361-.383c.505.123.965.279 1.423.519.436.241.945.535 1.157 1.15.044.155.08.307.044.463a.81.81 0 0 1-.129.418c-.115.269-.328.419-.497.607-.203.143-.391.3-.599.421-.21.118-.429.22-.639.328.354-.323.706-.631.994-.982.262-.364.421-.772.268-1.041-.142-.281-.528-.504-.924-.658a7.403 7.403 0 0 0-1.265-.344l-.312-.056-.049-.327c-.149-.992-.168-1.963-.122-2.956.08-.984.223-1.988.64-2.938.215-.447.433-.986.986-1.331.543-.354 1.22-.288 1.691-.079.494.199.896.507 1.26.838.364.33.697.686.975 1.084z"/><circle fill="#FFF" cx="106.407" cy="151.806" r="2.366"/><path fill="#2C2835" d="M70.964 99.402l-.963-3.37s-18.776-7.703-31.776 6.259c-12.103 13-8.666 33.461-8.666 33.461s-11.796 0-11.314 9.87c.482 9.87 9.148 8.425 9.148 8.425s-13.481-1.444-11.073 12.999c2.407 14.443 10.351 3.852 10.351 3.852s-5.296-4.814-12.277 2.407c-6.981 7.222-1.685 17.573 6.981 16.369 0 0-5.296 10.351 11.073 10.833 16.369.481 39.479-15.166 39.479-15.166l-7.222-47.423 6.259-38.516z"/><path fill="#BB7272" d="M64.978 158.568l-.453 25.419-24.273 5.218 24.546 24.889 36.71-22.774-14.897-4.776.711-34.863z"/><path fill="#BB7272" d="M74.391 102.103s-29.176 1.201-34.299 34.072c-5.123 32.871 19.739 40.833 35.904 38.057 16.165-2.776 26.194-18.577 28.428-28.37 2.235-9.793-3.574-43.598-30.033-43.759z"/><path fill="#091528" d="M67.751 126.766c1.141-.988 2.544-1.624 4.005-2.022a11.9 11.9 0 0 1 4.567-.32c.773.074 1.524.296 2.267.515.708.327 1.452.56 2.079 1.027 1.332.777 2.382 1.947 3.158 3.21-1.36-.667-2.551-1.375-3.855-1.813-.628-.26-1.287-.419-1.925-.609-.663-.114-1.304-.291-1.974-.345a22.18 22.18 0 0 0-4.062-.13 47.362 47.362 0 0 0-4.26.487zm-23.003-2.414c.803-1.165 1.941-2.054 3.218-2.706 1.279-.644 2.769-1.027 4.293-.916.765.032 1.508.258 2.224.515.671.367 1.362.686 1.882 1.231.599.447.982 1.085 1.405 1.651.362.613.628 1.278.851 1.932-.595-.412-1.054-.89-1.583-1.278-.548-.36-1.021-.783-1.583-1.038-.281-.124-.516-.325-.804-.41l-.825-.313c-.572-.122-1.124-.283-1.711-.297-1.158-.081-2.367.065-3.594.375-1.226.32-2.469.749-3.773 1.254z"/><path fill="#69403D" d="M58.928 131.178c-.342 2.7-.933 5.326-1.558 7.941-.664 2.604-1.374 5.194-2.201 7.749l-.264-.929a21.434 21.434 0 0 1 1.764 1.895c.543.682 1.068 1.385 1.492 2.201-.86-.326-1.62-.764-2.36-1.224a21.285 21.285 0 0 1-2.089-1.53l-.422-.354.159-.575c.713-2.589 1.543-5.143 2.418-7.684.914-2.527 1.863-5.046 3.061-7.49z" opacity=".5"/><path fill="#FFF" d="M53.511 152.843l20.401-.181c.001 0-9.929 7.042-20.401.181z"/><path fill="#2C2835" d="M130.182 206.043s-7.964-17.204-23.832-16.128c-14.203.963-21.447.225-23.35-12.036-2.167-13.962 12.036-26.48 12.036-26.48s5.705.998 7.944-6.018c3.611-11.314-6.259-9.629-6.259-9.629l-1.444 10.833c-9.87-2.889-1.926-13.962-6.018-21.184-4.092-7.222-8.425-6.981-18.776-7.462-10.351-.481-10.351-10.351-10.351-10.351s.241-13.24 16.61-15.406c16.369-2.167 31.053 12.518 34.424 23.832 3.37 11.314-3.37 19.258 1.926 29.368 0 0 5.296-4.574 12.036 1.204 6.74 5.777-.481 14.203-.481 14.203s7.703-3.37 13.24 3.611-4.815 15.406-4.815 15.406 8.185 2.167 8.185 9.87-8.666 8.425-8.666 8.425 3.128 4.09-2.409 7.942z"/><path fill="#241E2D" d="M79.514 139.393c-.569-1.148-1.31-2.05-2.146-2.82-.83-.759-1.779-1.364-2.72-1.593-.94-.251-1.826-.027-2.654.664-.862.662-1.459 1.729-2.234 2.756.088-1.26.339-2.592 1.235-3.713.209-.282.508-.515.777-.765.286-.236.659-.378.999-.558.37-.097.763-.198 1.145-.218.378.031.786-.004 1.135.121 1.464.368 2.579 1.318 3.36 2.403.762 1.093 1.262 2.428 1.103 3.723zm-24.831-2.134c-.569-1.148-1.31-2.05-2.146-2.82-.83-.759-1.779-1.364-2.72-1.593-.94-.252-1.826-.028-2.653.663-.862.662-1.459 1.729-2.234 2.756.088-1.26.338-2.592 1.235-3.713.209-.282.507-.515.776-.765.286-.236.659-.378.999-.558.37-.097.763-.198 1.146-.217.377.031.786-.004 1.135.121 1.464.369 2.579 1.318 3.359 2.403.762 1.093 1.262 2.428 1.103 3.723z"/><path fill="#F7F7F7" d="M119.734 195.392s-10.672 28.636-15.072 63.143H35.104l-17.209-70.827s13.661-6.627 42.532-6.592c0 0-.048-.924 6.488 2.547 5.012 2.663 6.737 20.832 6.737 20.832s.979-18.253 3.811-19.751c4.359-2.305 3.581-1.812 7.174-2.771 10.88.751 22.193 4.061 34.88 6.151l.217 7.268z"/><path fill="#EAEAE8" d="M51.597 180.804l9.454 15.237 6.639-12.346-13.813-8.952zm40.844.408l-7.029 15.532-7.949-12 12.501-8.322z"/><path fill="#F7F7F7" d="M31.098 258.535l-1.591-29.419-11.612-41.408-9.514 70.622m108.158.205l-8.409-29.419 11.611-41.408 19.514 70.622"/><path fill="#EBB6AC" d="M147.764 154.024l-4.147 27.28-21.981 5.094 25.937 26.3 38.791-24.065-17.248-4.862 2.258-37.024z"/><path fill="#EBB6AC" d="M152.89 93.945s-27.771 2.046-31.279 42.095c-2.865 32.706 12.862 42.972 36.249 34.495 9.511-3.448 14.769-11.215 17.913-18.916 1.886-4.62 4.964-5.171 5.79-8.795.589-2.583-1.132-11.022-1.609-16.077-1.307-13.857-7.931-32.686-27.064-32.802z"/><ellipse fill="#241E2D" cx="155.776" cy="134.226" rx="2.142" ry="5.007"/><ellipse fill="#241E2D" cx="131.496" cy="132.035" rx="2.142" ry="5.007"/><path fill="#C5A468" d="M146.736 121.238s.179-.239.563-.569a8.738 8.738 0 0 1 1.727-1.166 9.396 9.396 0 0 1 1.28-.552c.465-.182.978-.296 1.511-.419.537-.092 1.102-.18 1.681-.193.581-.01 1.173-.013 1.763.079l.88.136c.289.069.573.158.855.238.571.135 1.093.403 1.595.642.512.217.941.559 1.355.846.42.28.761.619 1.06.941.297.324.574.603.765.905.201.291.351.565.477.783.247.439.354.707.354.707s-.295-.085-.751-.262c-.227-.09-.503-.19-.792-.329-.291-.136-.663-.216-1.017-.359-.358-.138-.734-.291-1.154-.392-.412-.113-.814-.285-1.264-.363-.441-.1-.877-.236-1.343-.3-.229-.044-.461-.079-.689-.136l-.706-.083c-.466-.093-.946-.092-1.416-.149l-1.404-.071c-.46.01-.915-.03-1.348-.01-.437-.006-.853.004-1.245.012-.785.008-1.464.03-1.951.044l-.786.02zm-22.994.832s.105-.26.377-.652c.263-.401.701-.913 1.309-1.463.32-.246.657-.544 1.07-.776.4-.253.849-.486 1.346-.672.479-.224 1.039-.32 1.589-.454.576-.045 1.158-.154 1.76-.07l.892.104c.292.07.577.169.86.257.58.141 1.067.482 1.546.757.488.268.829.691 1.193 1.017.373.325.579.749.815 1.089.218.356.416.672.511 1.001.121.31.197.595.262.821.127.456.162.725.162.725s-.26-.133-.648-.378c-.192-.124-.429-.266-.667-.444-.23-.189-.555-.323-.856-.502-.316-.159-.596-.407-.963-.527-.357-.128-.673-.361-1.053-.45-.374-.098-.721-.273-1.113-.314-.19-.038-.381-.072-.568-.124l-.591-.041c-.387-.085-.802.007-1.203-.035-.407.067-.819.04-1.225.126-.407.05-.81.114-1.197.196-.395.054-.759.168-1.12.227l-2.488.582z"/><path fill="#C27E79" d="M140.027 125.809c-1.175 3.134-2.551 6.165-3.954 9.182-1.435 3.001-2.906 5.983-4.471 8.917l-.245-.991c.976.71 1.92 1.466 2.843 2.252.915.798 1.815 1.616 2.64 2.542-1.151-.46-2.228-1.028-3.29-1.616a48.123 48.123 0 0 1-3.086-1.905l-.551-.372.306-.619c1.474-2.981 3.041-5.913 4.646-8.827 1.637-2.899 3.3-5.782 5.162-8.563z"/><path fill="#C5A468" d="M172.449 158.863s1.823-8.384 2.005-9.66c0 0 6.561-.182 6.197-9.842-.364-9.66-6.379-10.389-7.291-4.01l-.182 5.65-3.645-1.094.364-12.759s-3.463-6.379-3.281-15.675c0 0-18.627 6.842-33.95.784l10.256-1.878s-19.502 1.276-26.793-16.404c0 0 8.931 3.281 16.768.911 0 0-10.389.729-14.034-5.65 0 0 8.931 3.827 17.497 1.823 8.566-2.005 34.812-12.759 41.374 10.024 0 0 8.445-.738 10.571 13.67 3.282 22.239-15.856 44.11-15.856 44.11z"/><path fill="#C27E79" d="M155.474 152.669c-1.237 1.483-2.813 2.673-4.51 3.62-1.696.965-3.566 1.625-5.488 2.03-.958.22-1.946.283-2.921.371-.984-.023-1.967.034-2.936-.148-1.948-.197-3.817-.86-5.526-1.715 1.92.222 3.754.512 5.608.469 1.841.023 3.669-.16 5.455-.544 3.595-.705 7.013-2.161 10.318-4.083zm24.231-13.862a16.426 16.426 0 0 0-1.815-2.953c-.351-.428-.738-.872-1.149-1.061-.209-.125-.356-.071-.489-.051a1.078 1.078 0 0 0-.375.427c-.199.402-.285.948-.3 1.493-.023.548.016 1.111.066 1.676.112 1.126.311 2.274.555 3.385l-.145-.22c.402.363.722.75.993 1.215.261.449.452 1.051.258 1.629-.199.584-.716.865-1.156 1.074-.24.073-.471.165-.709.219l-.721.116c.451-.184.891-.365 1.291-.603.377-.26.701-.589.769-.955.073-.364-.103-.747-.343-1.097a4.537 4.537 0 0 0-.914-.932l-.104-.081-.041-.14a20.112 20.112 0 0 1-.716-3.509 10.072 10.072 0 0 1-.059-1.826c.037-.615.111-1.265.475-1.896.177-.312.465-.604.851-.782.422-.137.907-.067 1.193.146.615.386.966.901 1.286 1.417.315.519.573 1.058.785 1.614.208.553.416 1.11.514 1.695z"/><path fill="#FFF" d="M203.996 195.169s-10.672 28.636-15.072 63.143h-69.558l-17.209-70.827s13.661-6.627 42.532-6.592c0 0-.048-.924 6.488 2.547 5.012 2.663 6.737 20.832 6.737 20.832s.979-18.253 3.811-19.751c4.359-2.305 3.581-1.812 7.174-2.771 10.88.751 22.193 4.061 34.88 6.151l.217 7.268z"/><path fill="#EAEAE8" d="M135.86 180.581l9.453 15.237 6.639-12.346-13.813-8.952zm40.843.408l-7.029 15.532-7.949-12 12.501-8.322z"/><path fill="#FFF" d="M105.36 258.312l8.409-29.419-11.612-41.408-19.514 70.622m118.158.205l-8.409-29.419 11.612-41.408 19.513 70.622"/><path fill="#BB7272" d="M217.039 164.684l-4.17 24.156-22.102 4.51 26.08 23.288 39.005-21.309-17.343-4.305 2.27-32.783z"/><path fill="#BB7272" d="M216.937 183.637c-8.996.663-20.262-6.203-20.534-16.752-.378-14.613 5.459-54.514 5.459-54.514s1.629-7.346 27.422.02c15.577 4.448 14.57 15.261 14.57 15.261s.643 6.387-.206 16.334c1.567-1.929 4.081-2.634 6.556-1.414 5.245 2.587.365 19.284-7.718 17.381-.606 4.703-2.852 10.307-3.526 11.547"/><path fill="#FFF" d="M226.8 163.427l-22.008-.398s5.934 12.884 22.008.398z"/><path fill="#F3F3F3" d="M264.433 203.791c-.623 5.476-7.177 33.135-10.086 54.521h-69.558l-17.195-62.205s13.661-6.627 42.532-6.592c0 0-.048-.924 6.488 2.547 5.012 2.663 6.737 20.832 6.737 20.832s.979-18.253 3.811-19.751c4.359-2.305 3.581-1.812 7.174-2.771 10.88.751 17.193 4.061 29.88 6.151l.217 7.268zm-92.716 54.623l7.489-18.899-11.612-41.408L149 258.209"/><path fill="#69403D" d="M212.037 136.354c-1.168 3.506-2.528 6.899-3.847 10.294-.643 1.703-1.332 3.383-1.914 5.086a31.894 31.894 0 0 0-.822 2.54c-.22.821-.451 1.745-.393 2.333l-.083-.234c.089.24.777.681 1.406.928.658.269 1.37.494 2.088.705 1.445.404 2.934.744 4.436 1.099a23.22 23.22 0 0 1-4.64-.046 13.289 13.289 0 0 1-2.341-.434 7.16 7.16 0 0 1-1.195-.445c-.397-.207-.834-.467-1.188-1.034l-.065-.104-.019-.13c-.174-1.24.055-2.139.267-3.084.232-.926.509-1.821.81-2.703.634-1.751 1.318-3.467 2.109-5.134a72.406 72.406 0 0 1 2.5-4.924 54.57 54.57 0 0 1 2.891-4.713z" opacity=".5"/><path fill="#091528" d="M232.174 133.641c-1.277-.339-2.409-.65-3.518-.901a20.582 20.582 0 0 0-3.218-.486c-.527-.065-1.047-.021-1.579-.042-.522.06-1.065.049-1.604.156-1.113.106-2.206.447-3.533.686.675-1.12 1.668-2.085 2.902-2.653.598-.338 1.269-.488 1.937-.663.679-.09 1.372-.173 2.057-.104a8.597 8.597 0 0 1 3.831 1.207c1.123.693 2.12 1.603 2.725 2.8zm-20.975-.388c-1.118-.458-2.091-.858-3.026-1.164-.933-.306-1.805-.485-2.648-.515-.839-.014-1.697.031-2.61.338l-.357.083-.347.136a13.67 13.67 0 0 1-.742.252c-.505.186-.992.434-1.606.597.192-.569.474-1.1.805-1.609.188-.232.388-.462.598-.686.201-.236.435-.439.701-.608.98-.788 2.351-1.178 3.672-1.127 1.335.052 2.591.579 3.549 1.348.951.779 1.701 1.766 2.011 2.955z"/><path fill="#222321" d="M191.766 111.015c1.629-3.911 5.406-1.689 5.406-1.689s-5.912-7.94-.507-10.98c5.406-3.041 9.629 4.73 9.629 4.73s-4.223-9.46 4.054-10.98c8.277-1.52 8.446 8.953 8.446 8.953s2.872-11.149 9.46-9.122c6.588 2.027 4.054 8.784 4.054 8.784s3.716-8.615 9.967-4.899 3.21 9.291 3.21 9.291 6.027-6.123 11.487 1.52c4.223 5.912-3.547 12.501-3.547 12.501s5.912-2.196 7.433 3.379c1.52 5.575-5.068 6.419-5.068 6.419s7.264 2.027 5.575 6.757c-1.689 4.73-6.926 3.885-6.926 3.885s2.872 2.365 1.858 5.406c-1.014 3.041-3.885 2.534-3.885 2.534-.281-4.913-4.167-5.043-5.477-4.947-2.553.855-3.151 3.224-3.151 3.224l-.984 7.628-4.226-.673.628-16.236c-2.798-1.677-3.606-4.332-3.606-4.332s.212-3.254.34-6.758c-5.447-.491-6.161-7.3-6.161-7.3s-3.041 5.406-6.25 5.912-4.73-5.406-4.73-5.406-3.21 5.575-7.771 5.068-4.561-4.899-4.561-4.899c-9.123 5.913-18.076.338-14.697-7.77z"/><ellipse fill="#241E2D" cx="205.777" cy="140.32" rx="2.031" ry="4.748"/><ellipse fill="#241E2D" cx="227.339" cy="141.589" rx="2.031" ry="4.748"/><path fill="#EAEAE8" d="M247.343 190.1l-3.886-8.784-16.386 11.318 5.068 14.865zm-41.401-7.94l-4.561 6.082 10.304 19.257 7.264-13.683z"/></svg>