<svg xmlns="http://www.w3.org/2000/svg" width="142.703" height="194.542" viewBox="0 0 142.703 194.542"><path fill="#F0D964" d="M84.168 197.766a.39.39 0 0 1 .214-.299l-.388-.067.024.355c.05.002.1.007.15.011zm-31.952-5.882l-.856-.149c.282.084.565.166.847.248l.009-.099zm-45.133-.149l-.143.025.001.017c.047-.014.095-.027.142-.042zM123.278 5.717a.371.371 0 0 1 .203-.284l-.368-.064.023.336.142.012zM92.986.141L92.175 0c.267.08.535.157.803.235l.008-.094zM50.196 0l-.136.024.001.016.135-.04z"/><path fill="#FAF101" d="M115.66 7.129a920.944 920.944 0 0 0-2.33 20.039c-1.643 15.603-3.275 35.223-3.373 51.641 4.949.011 9.838.019 14.299.019 3.516 0 6.771-.005 9.575-.015l.013-.119.065-.528c-1.278-.427-2.503-.935-3.696-1.657-4.656-2.823-8.93-7.283-11.014-12.366-2.45-5.974-2.242-12.685-1.626-18.986.796-8.141 2.039-16.23 2.775-24.379.459-5.084.606-10.164.656-15.25l.005-.523-4.964-.862-.104.796c-.087.678-.182 1.409-.281 2.19zM73.297 92.303l.053 13.756c.008 2.104.017 4.207.032 6.311l2.898.014c3.303.016 7.933.037 13.238.058 10.611.042 23.928.083 34.738.083 2.758 0 5.355-.002 7.7-.009.057-1.704.129-3.407.214-5.108.249-4.986.447-9.975.679-14.962-2.581.008-5.484.011-8.593.011-18.134.002-43.225-.116-50.959-.154zM94.772.911c.079 2.763-.451 5.405-1.115 8.072-1.22 4.907-2.903 9.769-5.174 14.293-1.178 2.347-2.487 4.639-4.021 6.775a42.066 42.066 0 0 1-2.319 2.984c-.735.852-1.633 1.586-2.346 2.446-1.826 2.2-4.114 4.622-6.638 6.218a.715.715 0 0 1-.193.565c.001.007.003.015.003.023.383 10.179.217 20.392.255 30.579l.023 5.806 3.034.015c3.303.016 7.933.037 13.239.058l6.807.025c.105-17.235 1.781-37.15 3.447-53.025a925.1 925.1 0 0 1 2.74-23.232c.032-.241.062-.475.093-.701L94.757.45l.011.281c-.001.058.002.119.004.18zM73.591 126.004c-.008 1.741-.012 3.48.071 5.211.201 4.183.011 8.382.101 12.577.025 1.178-.08 2.338-.05 3.521.025.993.135 2.027.055 3.018-.162 2.018-.008 4.015.005 6.037.013 2.177-.086 4.355-.051 6.539.032 2.016-.06 4.016-.027 6.036.067 4.18-.137 8.371-.122 12.553.01 2.831-.024 5.665-.086 8.498l.677.002c17.807 0 31.049-2.166 40.902-5.132 9.856-2.969 16.323-6.727 20.643-9.983a47.35 47.35 0 0 0 4.448-3.805c-.627-1.696-1.111-3.442-1.574-5.189-.959-3.62-1.904-7.242-2.856-10.863-2.486-9.46-3.557-19.146-3.835-28.876-2.334.006-4.905.008-7.636.009-17.909.001-42.605-.114-50.665-.153zM42.323 25.743c1.666 15.875 3.343 35.79 3.448 53.025l6.807-.025a15290.03 15290.03 0 0 0 17.874-.081l.053-13.825c.028-7.441-.055-14.891.217-22.327-.017-.009-.035-.013-.052-.023a.71.71 0 0 1-.758-.8c-2.638-1.719-4.667-4.297-6.905-6.454-3.614-3.483-6.413-7.81-8.597-12.308-2.211-4.552-3.914-9.391-5.092-14.312-.642-2.683-1.12-5.304-1.009-8.074.001-.032 0-.062.002-.094l.007-.12-8.82 1.531.094.713a928.608 928.608 0 0 1 2.731 23.174zM32.139 78.809c-.098-16.417-1.73-36.037-3.373-51.641a920.944 920.944 0 0 0-2.608-22.191l-.103-.788-5.186.9.002.485c.01 2.264.047 4.528.154 6.789.389 8.225 1.357 16.382 2.37 24.549.909 7.33 2.113 14.873.767 22.224-.955 5.216-3.478 9.62-7.293 13.284-2.298 2.207-4.775 4.181-7.752 5.392-.219.089-.444.171-.668.255l.076.626.014.12c2.741.009 5.899.014 9.3.014 4.462 0 9.351-.007 14.3-.018zm-18.958 99.876c9.911 5.6 26.771 11.309 55.721 11.313.427 0 .857-.002 1.289-.004v-.01c-.009-5.513-.173-11.027-.124-16.538.025-2.845-.185-5.717-.127-8.553.028-1.341.045-2.683.067-4.024.022-1.347-.094-2.687-.086-4.025.033-5.538-.031-11.065.088-16.6.09-4.19-.118-8.384.051-12.576.022-.557.037-1.115.055-1.672-5.651.029-32.925.163-52.276.163-2.624-.001-5.1-.003-7.36-.009-.279 9.73-1.35 19.416-3.836 28.875-.951 3.621-1.897 7.244-2.856 10.863-.417 1.575-.853 3.147-1.393 4.684.132.132.269.266.41.403 2.186 2.125 5.416 4.903 10.377 7.71zm39.397-66.242c5.305-.022 9.935-.042 13.238-.058l4.497-.022c.041-6.689.063-13.379.087-20.068-4.945.026-32.86.164-52.561.164-2.999 0-5.807-.003-8.318-.01.231 4.986.43 9.975.679 14.961.085 1.701.157 3.404.214 5.109 2.273.006 4.774.008 7.425.008 10.81-.001 24.128-.042 34.739-.084z"/><path fill="#4F5347" d="M120.349 20.777c-.737 8.149-1.979 16.238-2.775 24.379-.616 6.301-.824 13.013 1.626 18.986 2.084 5.083 6.358 9.544 11.014 12.366 1.192.723 2.417 1.231 3.696 1.657l.078-.638.089-.727c.089-.711.18-1.421.278-2.13l.068-.499c.025-.179.053-.358.079-.537a6.439 6.439 0 0 1-.523-.236 8.18 8.18 0 0 1-.501-.279c-.735-.444-1.421-.998-2.081-1.498-1.17-.886-2.367-1.734-3.515-2.651-2.61-2.085-4.385-4.663-5.487-7.81-2.049-5.852-1.491-12.388-.569-18.402.476-3.104 1.126-6.176 1.583-9.283.514-3.5.835-7.029 1.08-10.556.24-3.457.32-6.921.348-10.386a248.6 248.6 0 0 0-.016-5.109c-.003-.25-.004-.523-.028-.787a2.836 2.836 0 0 0-.063-.412 1.43 1.43 0 0 0-.165-.423.897.897 0 0 0-.179-.213c-.166-.142-.395-.224-.716-.206a.482.482 0 0 0-.189.048.369.369 0 0 0-.203.284l-.142-.011-.023-.336-1.043-.181-1.06-.184-.005.523c-.05 5.087-.196 10.167-.656 15.251zM16.869 72.421c3.815-3.664 6.338-8.069 7.293-13.284 1.345-7.351.142-14.894-.767-22.224-1.013-8.167-1.981-16.324-2.37-24.549a158.416 158.416 0 0 1-.154-6.789l-.002-.485-1.012.176-.968.168a.498.498 0 0 0-.189-.049c-.322-.018-.55.063-.716.206a.878.878 0 0 0-.179.213 1.447 1.447 0 0 0-.165.423 2.98 2.98 0 0 0-.063.412c-.023.264-.025.537-.027.787a248.6 248.6 0 0 0-.016 5.109c.028 3.465.108 6.928.348 10.386.245 3.527.566 7.057 1.08 10.556.457 3.107 1.106 6.179 1.582 9.283.922 6.014 1.481 12.55-.568 18.402-1.102 3.147-2.877 5.725-5.486 7.81-1.148.917-2.345 1.765-3.515 2.651-.66.5-1.347 1.053-2.081 1.498a8.242 8.242 0 0 1-.501.279 6.132 6.132 0 0 1-.524.236l.08.537c.024.166.046.333.068.499.087.636.17 1.273.25 1.91l.095.764.089.723c.223-.084.448-.165.668-.255 2.975-1.213 5.452-3.186 7.75-5.393z"/><path fill="#505448" d="M73.695 168.945c-.033-2.02.06-4.02.027-6.036-.035-2.185.064-4.363.051-6.539-.012-2.022-.167-4.019-.005-6.037.08-.991-.031-2.025-.055-3.018-.03-1.183.075-2.343.05-3.521-.09-4.195.1-8.394-.101-12.577-.083-1.731-.08-3.471-.071-5.211.012-2.458.035-4.919-.161-7.367-.158-1.968-.032-4.053-.047-6.037l-.001-.23c-.015-2.104-.023-4.208-.032-6.311l-.053-13.756-.053-13.633-.023-5.806c-.039-10.187.128-20.4-.255-30.579 0-.008-.002-.016-.003-.023a1.296 1.296 0 0 0-.088-.392c-.126-.327-.378-.618-.732-.672a.276.276 0 0 1-.161-.074c-.107-.107-.082-.302-.099-.456-.005-.046-.066-.047-.071-.001-.023.201.029.487-.254.53a.768.768 0 0 0-.236.081 1.046 1.046 0 0 0-.431.433 1.295 1.295 0 0 0-.153.472c-.003.029-.008.058-.01.086l-.002.066-.005.149-.001.026c-.272 7.436-.188 14.885-.217 22.327l-.053 13.825-.043 11.26-.008 2.372c-.024 6.69-.046 13.379-.087 20.068l-.016 2.73c-.026 3.629-.064 7.275-.182 10.903-.018.558-.033 1.116-.055 1.672-.168 4.192.039 8.386-.051 12.576-.119 5.535-.055 11.062-.088 16.6-.008 1.338.107 2.678.086 4.025-.022 1.341-.039 2.683-.067 4.024-.059 2.836.152 5.707.127 8.553-.049 5.511.115 11.025.124 16.538v.01c.391-.002.785-.006 1.18-.01v-.003l.175.002.15-.001v.003l.153.001c.551.006 1.097.009 1.639.011.062-2.832.096-5.667.086-8.498-.015-4.185.189-8.375.122-12.555zm-2.694-90.286h.093v.001h-.047l-.046-.001zm0 33.7h.093-.093z"/><path fill="#4F5347" d="M142.703 174.926c-.109-.256-.341-.436-.712-.389-.039.005-.045.014-.045.017-.001-.003-.007-.014-.036-.04-.17-.147-.292-.331-.412-.517-.433-.663-.749-1.41-1.043-2.142a36.652 36.652 0 0 1-.299-.778 46.946 46.946 0 0 1-4.448 3.805c-4.32 3.256-10.787 7.014-20.643 9.983-9.853 2.966-23.095 5.132-40.902 5.132l-.677-.002c-.542-.002-1.087-.005-1.639-.011l-.153-.001v-.003a7.55 7.55 0 0 1-.15.001l-.175-.002v.003c-.395.004-.789.008-1.18.01-.432.003-.862.004-1.289.004-28.95-.004-45.81-5.713-55.721-11.313-4.96-2.807-8.191-5.585-10.377-7.709a53.942 53.942 0 0 1-.41-.403c-.151.43-.31.859-.479 1.283-.294.732-.61 1.479-1.043 2.142-.121.186-.243.369-.412.517-.029.025-.036.037-.037.04 0-.003-.005-.012-.044-.017a.737.737 0 0 0-.379.046 51.204 51.204 0 0 0 4.142 3.562c4.648 3.592 11.612 7.713 22.017 10.91 5.587 1.717 12.166 3.171 19.921 4.15 6.692.845 14.258 1.336 22.822 1.336.465 0 .933-.001 1.404-.005.404-.002.812-.007 1.22-.011l.323.003c.51.005 1.016.009 1.519.01l.796.003h.025c8.853 0 16.642-.526 23.5-1.426 16.011-2.101 26.94-6.238 34.432-10.475 4.832-2.727 8.22-5.495 10.584-7.713z"/><path fill="#FFF" d="M99.772 25.743c-1.666 15.875-3.342 35.79-3.447 53.025l-6.807-.025a15295.057 15295.057 0 0 1-16.273-.073l.053 13.633c7.734.038 32.825.156 50.958.156 3.11 0 6.012-.003 8.593-.011.051-1.093.101-2.187.156-3.279.174-3.457.414-6.919.826-10.356-2.805.01-6.059.015-9.575.015-4.461 0-9.35-.007-14.299-.019.098-16.417 1.73-36.037 3.373-51.641a920.944 920.944 0 0 1 2.612-22.229l.104-.796-13.442-2.333-.093.701a932.054 932.054 0 0 0-2.739 23.232z"/><path fill="#E3E9D3" d="M71.001 78.659h.046-.046z"/><path fill="#FFF" d="M89.518 112.443c-5.306-.022-9.935-.042-13.238-.058l-2.898-.014.001.23c.014 1.984-.111 4.069.047 6.037.197 2.448.174 4.909.161 7.367 8.06.04 32.756.155 50.665.155 2.73-.001 5.302-.003 7.636-.009-.13-4.541-.088-9.091.064-13.632-2.345.007-4.942.009-7.7.009-10.81-.002-24.127-.043-34.738-.085z"/><path fill="#E3E9D3" d="M71.001 112.359h.046-.046z"/><path fill="#FFF" d="M70.4 92.295l.008-2.372.043-11.26-4.636.023c-3.303.016-7.933.037-13.238.058l-6.807.025c-.105-17.235-1.781-37.15-3.448-53.025A922.053 922.053 0 0 0 39.59 2.571l-.094-.713L26.055 4.19l.103.788a920.944 920.944 0 0 1 2.608 22.191c1.643 15.603 3.275 35.223 3.373 51.641-4.949.011-9.838.019-14.299.019-3.401 0-6.559-.005-9.3-.014.411 3.437.651 6.898.826 10.355.055 1.093.105 2.187.156 3.28 2.511.007 5.318.01 8.318.01 19.701-.001 47.616-.14 52.56-.165z"/><path fill="#E3E9D3" d="M71.094 78.659h-.047.047z"/><path fill="#FFF" d="M70.115 125.996c.118-3.628.156-7.274.182-10.903.007-.91.011-1.82.016-2.73l-4.497.022c-3.303.016-7.933.037-13.238.058-10.611.042-23.929.083-34.739.083-2.65 0-5.151-.002-7.425-.008.153 4.541.195 9.091.065 13.632 2.26.006 4.736.008 7.36.009 19.351-.001 46.625-.134 52.276-.163z"/><path fill="#E3E9D3" d="M71.094 112.359h-.047.047z"/></svg>