<svg xmlns="http://www.w3.org/2000/svg" width="443.526" height="746.351" viewBox="0 0 443.526 746.351"><path fill="#FFF" d="M206.916 199.821s-3.191 98.198-9.547 148.038c0 0-24.318 10.888-63.055 9.31-27.364-1.114-35.252-6.966-35.252-6.966L69.371 185.378s10.187-6.226 51.886-6.175c0 0-.07-1.335 9.371 3.678 7.239 3.846 9.73 30.087 9.73 30.087s1.414-26.363 5.504-28.527c6.295-3.329 5.171-2.617 10.362-4.001 15.714 1.085 32.054 5.866 50.378 8.884l.314 10.497z"/><path fill="#5D5E59" d="M430.212 101.558L285.066 368.233l-2.301 4.053s-2.133 3.288-.361 4.864c0 0 2.592 2.526 6.088 3.341 0 0 3.226 1.462 5.998-4.446l31.41-59.361 27.52-54.869 24.326-47.77 28.249-55.705 33.24-64.56 3.874-7.271s1.187-1.023-.45-2.923c0 0-1.736-.573-2.887 1.453l-9.56 16.519z"/><path fill="#F0D964" d="M193.752 181.628a.39.39 0 0 1 .214-.299l-.388-.067.024.355c.05.002.1.007.15.011zm-31.952-5.882l-.856-.149c.282.084.565.166.847.248l.009-.099zm-45.133-.149l-.143.025.001.017c.047-.014.095-.027.142-.042z"/><path fill="#4F5347" d="M136.397 376.002l-27.745-2.419 1.963 5.71 8.793.83 15.7-.899z"/><path fill="#F0D964" d="M151.307 182.915l-.811-.141c.267.08.535.157.803.235l.008-.094zm-42.789-.14l-.136.024.001.016.135-.04z"/><path fill="#FAF101" d="M185.716 183.117a973.953 973.953 0 0 0-2.458 21.136c-1.733 16.458-3.455 37.153-3.557 54.469 5.22.012 10.377.02 15.083.02 3.709 0 7.142-.005 10.1-.016l.014-.125.068-.556c-1.348-.45-2.64-.986-3.898-1.748-4.912-2.977-9.419-7.682-11.617-13.043-2.584-6.301-2.365-13.38-1.715-20.026.84-8.587 2.15-17.119 2.927-25.714.485-5.363.639-10.721.692-16.085l.005-.551-5.236-.909-.11.839c-.093.714-.193 1.485-.298 2.309zm-44.683 89.839l.056 14.51c.009 2.219.018 4.438.033 6.657l3.056.015c3.484.017 8.367.039 13.963.062 11.192.044 25.239.088 36.641.088 2.909 0 5.648-.002 8.122-.009.061-1.797.136-3.594.226-5.388.263-5.26.472-10.522.716-15.782-2.723.008-5.784.011-9.064.011-19.126 0-45.591-.124-53.749-.164zm22.651-96.398c.084 2.914-.476 5.701-1.176 8.515-1.287 5.176-3.062 10.304-5.458 15.075-1.243 2.476-2.624 4.893-4.242 7.146-.775 1.079-1.578 2.142-2.446 3.148-.776.898-1.722 1.673-2.475 2.58-1.926 2.321-4.339 4.875-7.002 6.558a.755.755 0 0 1-.204.596l.003.024c.404 10.737.228 21.509.269 32.254l.024 6.124 3.2.016a15167.078 15167.078 0 0 0 21.144.087c.11-18.179 1.879-39.185 3.636-55.929a976.89 976.89 0 0 1 2.89-24.504l.098-.74-8.28-1.437a30.395 30.395 0 0 1 .019.487zm-22.341 131.945c-.009 1.836-.013 3.671.075 5.497.212 4.412.012 8.841.107 13.266.026 1.242-.084 2.466-.053 3.714.026 1.048.142 2.138.058 3.184-.171 2.129-.008 4.235.005 6.368.014 2.296-.09 4.593-.053 6.897.034 2.127-.063 4.236-.029 6.367.071 4.409-.145 8.829-.129 13.241.011 2.986-.026 5.976-.091 8.963l.714.002c18.782 0 32.75-2.284 43.142-5.413 10.395-3.132 17.217-7.096 21.774-10.53a49.885 49.885 0 0 0 4.691-4.014c-.661-1.789-1.172-3.63-1.66-5.473-1.011-3.818-2.009-7.639-3.012-11.458-2.622-9.978-3.751-20.195-4.045-30.457-2.462.006-5.174.009-8.054.01-18.89-.001-44.938-.122-53.44-.164zm-32.98-105.752c1.758 16.745 3.526 37.75 3.637 55.929l7.18-.026c5.596-.022 10.479-.044 13.963-.061l4.89-.024.056-14.582c.03-7.849-.058-15.707.229-23.55-.018-.009-.037-.014-.055-.024a.751.751 0 0 1-.8-.844c-2.783-1.813-4.923-4.533-7.283-6.807-3.812-3.673-6.764-8.238-9.067-12.982-2.332-4.802-4.128-9.905-5.371-15.096-.678-2.83-1.182-5.594-1.065-8.516.001-.033 0-.066.002-.099l.007-.126-9.303 1.614.099.752a980.194 980.194 0 0 1 2.881 24.442zm-20.482 55.991c-.005-.042 0-.042 0 0 0 4.706 4.519-.008 9.739-.02-.103-17.317-1.825-38.011-3.558-54.469a973.953 973.953 0 0 0-2.751-23.406l-.109-.831-5.47.949.002.511c.01 2.388.05 4.776.162 7.161.41 8.675 1.431 17.279 2.5 25.893.959 7.732 1.228 15.688-.191 23.441-1.007 5.501 3.073.284-.596 9.431-1.25 3.121.709 5.864.272 11.34m31.298 35.457c5.596-.023 10.479-.045 13.963-.062l4.743-.023c.044-7.056.066-14.111.092-21.167-5.216.027-27.827.162-48.608.162 0 0 2.649.008 0 0 .244 5.26.454 10.522.716 15.781.089 1.794.165 3.591.225 5.389 2.398.006-.398.006 2.398.006 11.404 0 15.278-.041 26.471-.086z"/><path fill="#4F5347" d="M190.662 197.513c-.777 8.596-2.087 17.127-2.927 25.714-.65 6.646-.869 13.725 1.715 20.026 2.199 5.361 6.706 10.066 11.617 13.043 1.258.762 2.55 1.298 3.898 1.748l.082-.673.094-.766c.094-.75.19-1.499.293-2.247.024-.175.047-.351.072-.526.027-.189.056-.378.084-.566a6.967 6.967 0 0 1-1.08-.544c-.775-.469-1.499-1.052-2.195-1.58-1.234-.934-2.497-1.829-3.707-2.796-2.753-2.199-4.625-4.919-5.787-8.238-2.162-6.172-1.572-13.067-.6-19.41.503-3.274 1.188-6.514 1.669-9.792.542-3.691.881-7.414 1.139-11.135.253-3.647.337-7.3.367-10.954.015-1.796.005-3.592-.017-5.389-.003-.263-.004-.551-.029-.83a3.123 3.123 0 0 0-.066-.434 1.509 1.509 0 0 0-.174-.446.954.954 0 0 0-.189-.225c-.175-.15-.416-.236-.755-.217a.49.49 0 0 0-.199.051.388.388 0 0 0-.214.299l-.149-.012-.024-.355-1.1-.191-1.118-.194-.005.551c-.055 5.367-.21 10.725-.695 16.088zM72.02 253.266l.084.566"/><path fill="#505448" d="M141.453 353.796c-.034-2.131.063-4.241.029-6.367-.037-2.304.067-4.602.053-6.897-.013-2.132-.176-4.239-.005-6.368.084-1.045-.032-2.136-.058-3.184-.031-1.248.079-2.472.053-3.714-.095-4.425.106-8.854-.107-13.266-.088-1.826-.084-3.661-.075-5.497.013-2.593.037-5.189-.17-7.77-.166-2.076-.034-4.275-.049-6.367l-.001-.242c-.016-2.219-.025-4.438-.033-6.657l-.056-14.51-.055-14.379-.024-6.124c-.041-10.745.135-21.517-.269-32.254l-.003-.024a1.369 1.369 0 0 0-.093-.413c-.133-.345-.399-.652-.772-.709a.3.3 0 0 1-.17-.078c-.112-.113-.086-.319-.105-.481a.038.038 0 0 0-.075-.001c-.024.212.03.514-.268.559a.798.798 0 0 0-.249.085 1.1 1.1 0 0 0-.454.457c-.087.158-.141.33-.161.498-.003.03-.009.061-.01.09l-.002.069-.005.158-.001.028c-.287 7.843-.199 15.701-.229 23.55l-.056 14.582-.046 11.877-.009 2.502c-.026 7.056-.048 14.112-.092 21.167-.006.96-.01 1.92-.017 2.88-.027 3.828-.067 7.673-.192 11.5-.019.588-.035 1.177-.058 1.764-.177 4.422.041 8.845-.053 13.265-.125 5.838-.058 11.668-.093 17.509-.009 1.412.113 2.825.09 4.246-.023 1.415-.042 2.83-.071 4.244-.062 2.991.16 6.02.133 9.021-.052 5.813.121 11.628.131 17.444V376c.412-.002.828-.006 1.244-.011v-.003l.184.002.158-.001v.003l.162.001c.581.006 1.157.01 1.728.012.065-2.987.101-5.977.091-8.963-.015-4.415.2-8.835.13-13.244zm-2.842-95.231h.098v.001h-.049l-.049-.001zm0 35.546h.098-.098z"/><path fill="#4F5347" d="M64.168 359.712c0-.003-.005-.012-.047-.018m48.204 19.692c7.058.891 15.039 1.409 24.072 1.409.491 0 .984-.001 1.481-.005.426-.002.856-.007 1.287-.012l.34.003c.538.005 1.072.009 1.602.011l.84.003h.027c9.337 0 17.553-.555 24.787-1.504 16.888-2.216 28.416-6.58 36.318-11.049 5.094-2.878 8.668-5.798 11.162-8.137-.115-.27-.36-.459-.751-.411-.042.005-.047.014-.047.018a.151.151 0 0 0-.038-.042c-.179-.155-.307-.349-.435-.545-.457-.699-.79-1.487-1.1-2.259a30.17 30.17 0 0 1-.315-.821 49.885 49.885 0 0 1-4.691 4.014c-4.557 3.434-11.378 7.399-21.774 10.53-10.393 3.129-24.36 5.413-43.142 5.413l-.714-.002c-.571-.002-1.147-.005-1.728-.012l-.162-.001v-.003l-.158.001-.184-.002v.003l-1.244.011c-.456.003-.909.004-1.36.004"/><path fill="#FFF" d="M168.958 202.751c-1.757 16.745-3.525 37.75-3.636 55.929l-7.18-.026c-5.597-.022-10.48-.044-13.964-.061l-3.2-.016.055 14.379c8.157.04 34.623.164 53.75.164 3.28 0 6.341-.003 9.064-.011.053-1.153.107-2.306.165-3.459.184-3.647.437-7.297.871-10.923-2.958.011-6.391.016-10.1.016-4.706 0-9.863-.008-15.083-.02.103-17.317 1.825-38.011 3.557-54.469a973.953 973.953 0 0 1 2.756-23.446l.11-.839-14.178-2.461-.098.74a976.53 976.53 0 0 0-2.889 24.503z"/><path fill="#E3E9D3" d="M138.611 258.565h.049-.049z"/><path fill="#FFF" d="M158.142 294.199a18992.124 18992.124 0 0 1-17.019-.077l.001.242c.015 2.093-.117 4.291.049 6.367.207 2.582.183 5.177.17 7.77 8.502.042 34.551.163 53.44.164 2.88-.001 5.592-.003 8.054-.01-.138-4.789-.093-9.589.068-14.379-2.474.007-5.213.01-8.122.009-11.402.002-25.449-.041-36.641-.086z"/><path fill="#E3E9D3" d="M138.611 294.111h.049-.049z"/><path fill="#FFF" d="M137.978 272.947l.009-2.502.046-11.877-4.89.024a15178.368 15178.368 0 0 1-21.143.087c-.111-18.179-1.879-39.185-3.637-55.929a975.168 975.168 0 0 0-2.981-25.195l-14.178 2.461.109.831a973.953 973.953 0 0 1 2.751 23.406c1.733 16.458 3.455 37.153 3.558 54.469-5.22.012-14.445.02-9.739.02 5.343 0 2.892-.005 0-.015.434 3.626.687 7.276.871 10.922.058 1.153.111 2.307.165 3.46 2.649.008 0 .011 0 .011-.002-.01 43.843-.146 49.059-.173z"/><path fill="#E3E9D3" d="M138.709 258.565h-.049.049z"/><path fill="#FFF" d="M137.732 308.494c.091-3.827.121-7.672.141-11.5l.013-2.88-3.479.023c-2.555.017-6.137.039-10.241.062-8.209.044-18.511.088-26.873.088-2.05 0-3.985-.002-5.744-.008.118 4.79.151 9.589.05 14.378 1.748.007 3.664.009 5.693.009 14.97 0 36.069-.141 40.44-.172z"/><path fill="#E3E9D3" d="M138.709 294.111h-.049.049z"/><path fill="#FAF101" d="M137.677 308.494H91.549l16.956 45.024s3.248 21.018 29.251 22.469l-.079-67.493zm-49.796-49.752l-3.09-18.634 7.807-4.043 1.829 11.472z"/><path fill="#4F5347" d="M84.791 240.108c2.162-6.172 1.572-13.067.6-19.41-.502-3.274-1.187-6.514-1.669-9.792-.542-3.691-.881-7.414-1.139-11.135-.253-3.647-.337-7.3-.367-10.954-.015-1.796-.005-3.592.017-5.389.003-.263.004-.551.029-.83.014-.15.034-.296.067-.434.038-.165.095-.316.174-.446a.954.954 0 0 1 .189-.225c.175-.15.416-.236.756-.217a.494.494 0 0 1 .199.051l1.021-.177 1.067-.185.002.511c.01 2.388.05 4.776.162 7.161.41 8.675 1.431 17.279 2.5 25.893.959 7.732 3.152 23.695-2.664 31.259"/><path fill="#FAF101" d="M137.756 375.987l-29.104-2.404-1.255-3.227 4.356-2.525-4.911-22.416 18.955 14.189z"/></svg>