<svg xmlns="http://www.w3.org/2000/svg" width="1156.487" height="502.404" viewBox="0 0 1156.487 502.404"><path fill="#B7B5CA" d="M41.443 71.426h1063.636v168.522H41.443z"/><path fill="#524F63" d="M42.963 72.748h17.903v429.656H42.963zm1056.236 0h17.898v429.656h-17.898z"/><linearGradient id="a" gradientUnits="userSpaceOnUse" x1="572.955" y1="147.71" x2="648.22" y2="-199.67"><stop offset="0" stop-color="#666374" stop-opacity="0"/><stop offset="1" stop-color="#524f63" stop-opacity=".7"/></linearGradient><path fill="url(#a)" d="M1117.025 170.93L40.148 72.507h1076.877z"/><path fill="#DDE0E9" d="M0 54.844h1156.487v28.649H0z"/><path fill="#1C2730" d="M1008.965 38.019c5.571 0 10.09 4.516 10.09 10.09 0 5.573-4.519 10.092-10.09 10.092h-2.797V38.019h2.797zm52.679 0c5.571 0 10.09 4.516 10.09 10.09 0 5.573-4.519 10.092-10.09 10.092h-2.799V38.019h2.799z"/><path fill="#1C2730" d="M1008.965 38.019c5.571 0 10.09 4.516 10.09 10.09 0 5.573-4.519 10.092-10.09 10.092h-2.797V38.019h2.797z"/><circle fill="#1C2730" cx="1028.052" cy="46.226" r="10.09"/><path fill="#1C2730" d="M1084.722 36.135c5.571 0 10.09 4.517 10.09 10.09 0 5.572-4.519 10.09-10.09 10.09h-2.797v-20.18h2.797z"/><circle fill="#1C2730" cx="1081.924" cy="46.226" r="10.092"/><path fill="#DEBF7A" d="M1038.143 0h41.403v41.403h-41.403z"/><path fill="#C5A468" d="M1038.143 17.521h41.403v6.361h-41.403z"/><path fill="#9F7A45" d="M1054.524 17.521h8.64v6.361h-8.64z"/><path fill="#C5A468" d="M1055.665 0h6.359v41.403h-6.359z"/><path fill="#C5A46A" d="M1079.546 0h31.051v41.403h-31.051z"/><path fill="#9F7A45" d="M1079.546 17.521h31.051v6.361h-31.051z"/><path fill="#8E6E3F" d="M1090.626 17.521h8.64v6.361h-8.64z"/><path fill="#9F7A45" d="M1091.766 0h6.359v41.403h-6.359z"/><path fill="#2E435A" d="M986.271 48.109h93.275v-6.705h-93.275a.772.772 0 0 0-.772.772v5.161c0 .426.345.772.772.772z"/><path fill="#3E6779" d="M987.49 41.403h50.653V0h-25.382c-4.954 0-9.587 2.46-12.361 6.566L990.045 21.89a14.913 14.913 0 0 0-2.555 8.352v11.161z"/><path fill="#F2F2F2" d="M1025.986 24.499V4.66h-13.225a10.239 10.239 0 0 0-8.499 4.515l-10.355 15.324h32.079z"/><path fill="#282B48" d="M1032.043 0h6.1v41.403h-6.1z"/><path fill="#1C2730" d="M1058.379 36.135c6.614 0 11.974 5.36 11.974 11.973h-23.947c-.001-6.613 5.359-11.973 11.973-11.973zm-52.677 0c6.611 0 11.974 5.36 11.974 11.973h-23.949c-.001-6.613 5.361-11.973 11.975-11.973z"/><circle fill="#282B48" cx="1058.844" cy="48.109" r="10.09"/><circle fill="#F2F2F2" cx="1058.844" cy="48.109" r="4.965"/><circle fill="#282B48" cx="1006.168" cy="48.109" r="10.09"/><circle fill="#F2F2F2" cx="1006.166" cy="48.109" r="4.966"/><path fill="#B53834" d="M1079.546 34.076h4.325v4.116h-4.325z"/><path fill="#E2504B" d="M1075.221 34.076h4.325v4.116h-4.325z"/><path fill="#B53834" d="M1106.275 34.076h4.323v4.116h-4.323zm-86.306-5.746h5.527a.49.49 0 0 0 .49-.49v-1.68h-6.508v1.679c0 .271.22.491.491.491z"/><path fill="#282B48" d="M1019.969 27.792h5.527a.49.49 0 0 0 .49-.49V26.16h-6.508v1.142c0 .271.22.49.491.49z"/><path fill="#F2F2F2" d="M991.42 36.135a3.93 3.93 0 0 0-3.93-3.932v7.864a3.933 3.933 0 0 0 3.93-3.932z"/><path fill="#273543" d="M1110.597 41.403h-31.051c-1.1 0-1.991.89-1.991 1.99v2.724c0 1.1.891 1.991 1.991 1.991h31.051a1.99 1.99 0 0 0 1.991-1.991v-2.724c.001-1.1-.89-1.99-1.991-1.99z"/><circle fill="#F2F2F2" cx="1081.709" cy="44.755" r="1.425"/><circle fill="#F2F2F2" cx="1084.874" cy="44.755" r=".714"/><circle fill="#F2F2F2" cx="1108.436" cy="44.755" r="1.424"/><circle fill="#F2F2F2" cx="1105.27" cy="44.755" r=".713"/></svg>