<svg xmlns="http://www.w3.org/2000/svg" width="238.335" height="109.144" viewBox="0 0 238.335 109.144"><path fill="#1C2730" d="M44.006 71.297c10.448 0 18.922 8.47 18.922 18.922 0 10.451-8.474 18.925-18.922 18.925h-5.245V71.297h5.245zm98.79 0c10.448 0 18.923 8.47 18.923 18.922 0 10.451-8.474 18.925-18.923 18.925h-5.25V71.297h5.25z"/><path fill="#1C2730" d="M44.006 71.297c10.448 0 18.922 8.47 18.922 18.922 0 10.451-8.474 18.925-18.922 18.925h-5.245V71.297h5.245z"/><circle fill="#1C2730" cx="79.802" cy="86.688" r="18.922"/><path fill="#1C2730" d="M186.076 67.765c10.448 0 18.923 8.47 18.923 18.923 0 10.45-8.475 18.922-18.923 18.922h-5.245V67.765h5.245z"/><path fill="#1C2730" d="M161.903 86.688c0-10.453 8.474-18.923 18.927-18.923 10.448 0 18.923 8.47 18.923 18.923 0 10.45-8.474 18.922-18.923 18.922-10.452 0-18.927-8.472-18.927-18.922z"/><path fill="#DEBF7A" d="M98.724 0h77.645v77.645H98.724z"/><path fill="#C5A468" d="M98.724 32.857h77.645v11.928H98.724z"/><path fill="#9F7A45" d="M129.445 32.857h16.203v11.928h-16.203z"/><path fill="#C5A468" d="M131.584 0h11.926v77.645h-11.926z"/><path fill="#C5A46A" d="M176.369 0H234.6v77.645h-58.231z"/><path fill="#9F7A45" d="M176.369 32.857H234.6v11.928h-58.231z"/><path fill="#8E6E3F" d="M197.147 32.857h16.203v11.928h-16.203z"/><path fill="#9F7A45" d="M199.285 0h11.926v77.645h-11.926z"/><path fill="#2E435A" d="M.773 90.219H176.37V77.645H.772a.772.772 0 0 0-.772.772v11.03c0 .426.346.772.773.772z"/><path fill="#3E6779" d="M3.735 77.645h94.99V0H51.126a27.978 27.978 0 0 0-23.181 12.313L8.527 41.051a27.979 27.979 0 0 0-4.792 15.663v20.931z"/><path fill="#F2F2F2" d="M75.926 45.944V8.739h-24.8a19.2 19.2 0 0 0-15.938 8.468L15.769 45.944h60.157z"/><path fill="#282B48" d="M87.285 0h11.439v77.645H87.285z"/><path fill="#1C2730" d="M136.673 67.765c12.403 0 22.454 10.051 22.454 22.454h-44.908c0-12.402 10.052-22.454 22.454-22.454zm-98.786 0c12.398 0 22.454 10.051 22.454 22.454H15.429c0-12.402 10.056-22.454 22.458-22.454z"/><circle fill="#282B48" cx="137.547" cy="90.219" r="18.923"/><circle fill="#F2F2F2" cx="137.547" cy="90.219" r="9.31"/><path fill="#282B48" d="M19.838 90.219c0-10.453 8.47-18.922 18.923-18.922 10.448 0 18.923 8.47 18.923 18.922 0 10.451-8.475 18.925-18.923 18.925-10.453 0-18.923-8.474-18.923-18.925z"/><circle fill="#F2F2F2" cx="38.759" cy="90.219" r="9.312"/><path fill="#B53834" d="M176.369 63.904h8.111v7.719h-8.111z"/><path fill="#E2504B" d="M168.258 63.904h8.111v7.719h-8.111z"/><path fill="#B53834" d="M226.493 63.904h8.107v7.719h-8.107zM64.213 53.128h11.223a.49.49 0 0 0 .49-.49v-3.579H63.722v3.579c0 .27.22.49.491.49z"/><path fill="#282B48" d="M64.213 52.12h11.223a.49.49 0 0 0 .49-.49v-2.571H63.722v2.571c0 .27.22.49.491.49z"/><path fill="#F2F2F2" d="M11.104 67.765c0-4.075-3.3-7.375-7.37-7.375v14.747a7.372 7.372 0 0 0 7.37-7.372z"/><path fill="#273543" d="M234.6 77.645h-58.231a3.732 3.732 0 0 0-3.735 3.732v5.109a3.733 3.733 0 0 0 3.735 3.734H234.6a3.734 3.734 0 0 0 3.735-3.734v-5.109a3.732 3.732 0 0 0-3.735-3.732z"/><path fill="#F2F2F2" d="M183.097 83.931a2.675 2.675 0 0 0-2.673-2.673 2.674 2.674 0 0 0-2.672 2.673 2.674 2.674 0 0 0 2.672 2.672 2.675 2.675 0 0 0 2.673-2.672zm4.603 0a1.338 1.338 0 1 0-2.677 0 1.339 1.339 0 0 0 2.677 0zm40.177 0a2.671 2.671 0 1 0 5.34 0 2.672 2.672 0 0 0-2.668-2.673 2.672 2.672 0 0 0-2.672 2.673zm-4.603 0a1.335 1.335 0 1 0 2.67.002 1.335 1.335 0 0 0-2.67-.002z"/></svg>