<svg xmlns="http://www.w3.org/2000/svg" width="601.534" height="746.351" viewBox="0 0 601.534 746.351"><path fill="#F0D964" d="M320.792 148.427a.39.39 0 0 1 .214-.299l-.388-.067.024.355.15.011zm-31.952-5.882l-.856-.149c.282.084.565.166.847.248.004-.032.007-.066.009-.099zm-45.133-.148l-.143.025.001.017.142-.042zm-62.108 46.095a.371.371 0 0 1 .203-.284l-.368-.064.023.336.142.012zm-73.082-5.717l-.136.024.001.016.135-.04z"/><path fill="#E3E9D3" d="M129.322 261.433h.046-.046z"/><path fill="#F2CAAC" d="M286.225 363.852c-5.574-4.371-11.077-4.232-18.165-3.38-10.621-17.987-39.239-66.836-39.239-66.836l-6.681 18.471s-1.598 10.94 5.849 21.414c8.915 12.539 15.761 28.708 24.774 39.227-.143.226-.231.374-.231.374-.913 6.593 3.871 12.392 6.488 16.241 2.608 3.853 3.399 5.944 5.934 10.111 2.169 3.563 5.803 9.393 7.727 7.129 1.917-2.263-5.465-13.425-4.47-14.321 1.285-1.162 17.591 22.719 19.763 15.934.709-2.205-10.907-15.315-11.42-18.382-.516-3.067 18.177 18.257 21.514 13.856 2.018-2.66-17.842-20.306-14.604-19.011 4.156 1.659 16.149 10.946 18.625 10.963 2.477.016 5.563.335-4.614-9.143-7.454-6.947-13.927-11.282-13.963-13.781-.051-3.087 4.947.121 4.947.121 12.569 5.051 12.333-1.244 12.444-3.265.101-2.02-8.839-1.138-14.678-5.722z"/><path fill="#FFF" d="M269.7 353.81l-33.998-80.386-30.708-83.525c-12.441-2.006-37.823 2.468-18.097 47.256l25.2 62.494 29.212 70.425L269.7 353.81z"/><path fill="#FFF" d="M206.916 199.821s-3.191 98.198-9.547 148.038c0 0-24.318 10.888-63.055 9.31-27.364-1.114-35.252-6.966-35.252-6.966L69.371 185.378s10.187-6.226 51.886-6.175c0 0-.07-1.335 9.371 3.678 7.239 3.846 9.73 30.087 9.73 30.087s1.414-26.363 5.504-28.527c6.295-3.329 5.172-2.617 10.362-4.001 15.714 1.085 32.054 5.866 50.378 8.884l.314 10.497z"/><path fill="#EAEAE8" d="M108.505 178.752l13.654 22.007 9.588-17.832-19.95-12.929z"/><path fill="#F2CAAC" d="M89.305 359.237s4.131 55.705 10.611 58.091c0 0 2.004 3.172 6.612 1.752 0 0 2.675 4.258 7.386.781 0 0 1.893 3.082 4.11 4.064 3.448 1.528 7.992-2.584 2.879-14.226 0 0 2.984 2.988 7.181 2.799 5.707-.257.311-6.22.311-6.22s-3.167-6.475-8.105-14.971c-4.938-8.496-8.621-9.092-8.621-9.092L86.306 311.99l2.999 47.247z"/><path fill="#FFF" d="M69.371 185.378l-.717 121.954 14.896 78.91 28.203-18.411-11.871-63.518-8.509-122.895z"/><path fill="#EAEAE8" d="M167.496 179.342l-10.153 22.433-11.481-17.333 18.057-12.019z"/><path fill="#FFF" d="M69.371 185.378s-18.081 3.293-7.511 54.175l6.525 65.09h30.984l6.489-48.839-19.914-52.031-16.573-18.395z"/><path fill="#F4D4CA" d="M332.125 326.826l-28.687 14.46L298 310.377l20.201-1.39z"/><path fill="#F2CAAC" d="M277.46 308.527s9.556 1.483 13.166 1.085 12.263-2.192 13.519-1.765c1.256.427 23.722 25.243 24.257 26.742.66 1.851-2.547 5.02-5.002 4.053 0 0 1.528 1.758.388 2.905-.813.818-3.929 4.57-6.601 2.415 0 0 1.625 1.912-2.837 4.388-2.585 1.434-4.331.174-4.331.174s-2.733 4.105-5.253 3.125c-1.46-.568-42.527-28.897-42.527-28.897l14.967-13.807"/><path fill="#F4D4CA" d="M318.201 309.296l-17.418 3.35s-3.488 2.416-6.983 4.368c-2.115 1.182-4.232 2.19-5.586 2.393-1.441.216-2.506-.206-3.264-.788l3.815-7.113c3.384-3.074 7.335-6.504 8.6-6.98 2.355-.879 12.843 3.657 12.843 3.657l7.993 1.113z"/><path fill="#F0D964" d="M516.497 173.017l.811-.141c-.267.08-.535.157-.804.235l-.007-.094zm42.79-.141l.136.024-.001.016-.135-.04z"/><path fill="#E3E9D3" d="M505.9 251.535h-.046.046z"/><path fill="#F4D4CA" d="M276.674 337.867c-1.061 1.049-2.94.868-4.196-.403-1.256-1.271-1.414-3.151-.353-4.2l4.775-4.719c1.061-1.049 2.94-.868 4.196.403 1.256 1.271 1.414 3.151.353 4.2l-4.775 4.719z"/><path fill="#F4D4CA" d="M281.986 342.415c-1.251 1.237-3.466 1.024-4.947-.475-1.48-1.498-1.667-3.714-.416-4.951l5.629-5.562c1.251-1.236 3.466-1.023 4.946.475 1.481 1.499 1.667 3.716.416 4.952l-5.628 5.561z"/><path fill="#F4D4CA" d="M279.919 342.213c-.764-.005-1.553-.362-2.164-.98-1.088-1.101-1.278-2.684-.424-3.527l5.629-5.562c.434-.428.979-.516 1.36-.513.764.005 1.553.361 2.163.98 1.088 1.101 1.278 2.684.424 3.528l-5.629 5.562c-.433.427-.978.514-1.359.512zm7.632 4.566c-1.181 1.167-3.272.966-4.671-.448-1.398-1.415-1.574-3.507-.392-4.675l5.315-5.252c1.181-1.167 3.273-.966 4.67.448 1.398 1.415 1.574 3.508.392 4.675l-5.314 5.252z"/><path fill="#F4D4CA" d="M285.6 346.532c-.707-.004-1.437-.335-2.003-.908-1.005-1.018-1.185-2.476-.401-3.252l5.315-5.252c.396-.391.895-.47 1.243-.468.707.004 1.437.335 2.003.908 1.005 1.018 1.185 2.476.401 3.251l-5.315 5.252c-.396.391-.894.471-1.243.469zm7.208 3.823c-1.044 1.032-2.893.854-4.128-.396-1.236-1.25-1.391-3.1-.347-4.132l4.698-4.642c1.044-1.031 2.892-.854 4.128.396 1.236 1.251 1.391 3.101.347 4.133l-4.698 4.641zm1.469-34.127l-.478.786-1.685 2.478c-4.223 4.63-8.143.954-8.143.954l.977-1.827 3.815-7.113 5.514 4.722z"/><path fill="#EED764" d="M601.534 393.402l-.786-.136c.259.078.519.152.778.228.004-.031.006-.061.008-.092zm-41.44-.136l-.132.023.001.015.131-.038z"/><path fill="#E6CBC4" d="M479.483 135.87l-7.217 41.806-38.252 7.807 45.137 40.305 67.507-36.881-30.016-7.45 3.929-56.739z"/><path fill="#F0D2C8" d="M500.677 45.364c26.959 7.699 25.216 26.413 25.216 26.413s1.113 11.055-.357 28.27c2.712-3.339 7.064-4.559 11.346-2.447 9.077 4.477.632 33.376-13.357 30.082-1.049 8.139-4.936 17.838-6.103 19.984-4.415 8.113-22.545 19.858-38.115 21.005-15.57 1.148-35.067-10.735-35.539-28.993-.654-25.29 9.448-94.348 9.448-94.348s2.819-12.715 47.461.034z"/><path fill="#FFF" d="M496.378 133.693l-38.091-.689c0 .001 10.271 22.299 38.091.689z"/><path fill="#E6A455" d="M512.061 54.255c7.364.376 17.002 7.65 24.375 7.876-.027.051-.063.096-.087.148-1.394 3.127-1.612 34.767-1.612 34.767-7.424-.049-8.969 6.105-8.969 6.105l-1.703 13.201-7.314-1.164 1.087-28.099c-4.843-2.903-6.241-7.497-6.241-7.497s1.329-20.273.464-25.337z"/><path fill="#C17E79" d="M472.643 92.354c-.53 1.296-1.101 2.571-1.666 3.85a157.94 157.94 0 0 1-1.724 3.82 339.63 339.63 0 0 1-3.609 7.557 210.735 210.735 0 0 1-1.864 3.749l-1.893 3.733c-1.286 2.477-2.569 4.955-3.9 7.409l-.438-.99c2.481.725 4.956 1.472 7.42 2.259 1.235.382 2.461.797 3.689 1.209 1.228.409 2.456.817 3.674 1.263-1.276-.231-2.542-.499-3.809-.767-1.267-.265-2.535-.526-3.794-.821a307.478 307.478 0 0 1-7.545-1.799l-.817-.205.38-.785c1.215-2.513 2.478-5.001 3.738-7.492l1.926-3.717c.639-1.24 1.292-2.473 1.955-3.701a335.237 335.237 0 0 1 4.028-7.343c.681-1.218 1.38-2.428 2.095-3.63.709-1.204 1.411-2.412 2.154-3.599z" opacity=".7"/><path fill="#D3805F" d="M505.678 79.803l-1.01-.453a52.023 52.023 0 0 0-2.624-1.068 43.662 43.662 0 0 0-1.748-.604c-.61-.227-1.285-.355-1.952-.559-.681-.15-1.38-.318-2.093-.434-.718-.085-1.436-.24-2.166-.241-.363-.02-.726-.063-1.088-.069-.361.021-.721.024-1.079.034-.721-.023-1.413.123-2.099.187-.694.037-1.329.259-1.964.368-.638.109-1.21.321-1.757.491-.532.198-1.079.285-1.502.491-.43.191-.825.337-1.15.464-.652.251-1.052.376-1.052.376s.259-.306.761-.811c.252-.25.558-.563.932-.897.355-.364.848-.636 1.361-.985.519-.341 1.079-.737 1.756-.98.666-.26 1.345-.653 2.126-.796.77-.178 1.566-.426 2.404-.45l1.26-.097c.422-.001.845.035 1.269.054.852.024 1.679.203 2.492.368.412.062.795.216 1.182.332.383.129.771.228 1.128.389.719.309 1.408.611 2.018.979.631.325 1.18.712 1.679 1.073.506.346.926.731 1.301 1.054.367.338.673.643.91.913.485.523.705.871.705.871zm-36.301 1.667l-.845-.533-.956-.578c-.368-.216-.794-.44-1.238-.692-.464-.226-.946-.49-1.478-.708-.513-.257-1.081-.443-1.648-.66-.577-.18-1.172-.361-1.776-.481-.305-.051-.612-.093-.916-.156-.305-.065-.616-.033-.924-.057-.618-.088-1.227.033-1.837.063-.61.043-1.187.261-1.777.352-.571.171-1.11.411-1.651.583-.28.069-.512.227-.757.343l-.712.347c-.459.226-.904.416-1.251.66-.357.229-.69.412-.963.568-.549.311-.892.475-.892.475s.174-.319.53-.852c.18-.266.396-.596.67-.955.25-.385.606-.747 1.024-1.121.42-.369.83-.846 1.386-1.194.561-.337 1.144-.736 1.807-1.042l1.056-.379c.361-.123.721-.271 1.115-.302.774-.118 1.568-.254 2.366-.173.396.036.801.021 1.186.105.387.077.768.173 1.146.26.386.067.729.241 1.081.373.344.15.706.253 1.011.448.634.347 1.234.693 1.741 1.104.534.372.963.813 1.367 1.198 1.578 1.602 2.135 3.004 2.135 3.004z"/><path fill="#E6A455" d="M517.02 57.561s-32.067 8.926-57.523-2.645l18.844-4.298s-23.639-.497-32.067-8.926c-11.24-11.24-1.958-31.737-1.958-31.737s12.893 14.216 23.803 15.868c0 0-10.909-4.152-13.885-14.215 0 0 52.232-8.595 60.497 15.537 0 0-5.951-12.563-8.265-13.554-2.314-.992 26.447 5.62 33.059 18.843s-4.787 64.609-4.787 64.609L517.02 57.561z"/><path opacity=".5" fill="#D3805F" d="M485.187 60.707c18.446-7.87 34.906-24.84 30.813-44.429 8.358 3.024 19.681 8.471 23.525 16.159 6.612 13.223-4.787 64.609-4.787 64.609-7.424-.049-8.969 6.105-8.969 6.105l-1.703 13.201-7.314-1.164 1.087-28.099c-4.843-2.903-6.241-7.497-6.241-7.497s.863-13.206.741-20.962c-5.642 1.13-15.811 2.663-27.152 2.077z"/><path fill="#222129" d="M463.12 93.048c0 4.575-2.043 8.288-4.552 8.288-2.516 0-4.555-3.713-4.555-8.288 0-4.581 2.039-8.294 4.555-8.294 2.509 0 4.552 3.713 4.552 8.294zm35.557-.001c0 4.576-2.041 8.29-4.555 8.29-2.511 0-4.555-3.713-4.555-8.29 0-4.58 2.044-8.293 4.555-8.293 2.514 0 4.555 3.713 4.555 8.293z"/><path opacity=".1" fill="#1C1918" d="M332.614 726.268c0 7.815 52.361 14.15 115.089 14.15s109.069-6.335 109.069-14.15c0-7.814-49.341-14.15-112.07-14.15-62.727 0-112.088 6.336-112.088 14.15z"/><path fill="#53242F" d="M419.212 670.248l2.298 38.033-15.3 1.456-4.067-41.353z"/><path fill="#715541" d="M399.796 691.502s-7.644 12.174-20.512 17.421c-12.867 5.246-21.348 11.453-19.62 19.332 0 0 17.635 7.772 48.601-6.002l.32 3.372 20.914-2.918-2.655-27.901-17.331 2.886 1.03-2.882-10.747-3.308z"/><path fill="#553D30" d="M394.382 723.965c-27.966 10.099-33.021 2.608-34.752 2.198a5.503 5.503 0 0 0 .033 2.091s17.635 7.772 48.601-6.002l.32 3.372 20.914-2.918-.529-5.565c-7.454 1.167-13.968-.622-34.587 6.824z"/><path fill="#53242F" d="M523.487 673.093l-1.316 38.079h-15.369l-.131-41.552z"/><path fill="#715541" d="M502.145 692.412s-8.763 11.395-22.07 15.4c-13.306 4.003-25.324 9.095-24.351 17.102 0 0 19.807 9.693 51.938-1.087v3.388l21.096-.924v-28.027l-17.526 1.232 1.298-2.772-10.385-4.312z"/><path fill="#553D30" d="M493.68 724.216c-28.797 7.405-36.108-.816-37.79-1.388a5.467 5.467 0 0 0-.166 2.085s19.807 9.693 51.938-1.087v3.388l21.096-.924v-5.59c-7.531.455-13.846-1.943-35.078 3.516z"/><path fill="#393E5C" d="M431.602 339.321l.86.001c6.352 2.5 32.388 11.622 70.847 10.054 21.351-.871 32.356-4.248 37.226-6.325l-8.367 348.127c-23.331 8.749-35.969-.973-35.969-.973l-7.478-285.629h-13.148l-42.306 117.871-1.781 167.425c-29.165 4.861-36.941-5.833-36.941-5.833l-6.024-159.124 43.081-185.594z"/><path d="M443.691 348.187c-9.31-2.286-13.827-5.286-13.93-5.325-2.728-1.028-2.367 1.961-2.667 5.122-.396 4.173.241 6.404 2.691 7.267.448.158 2.603 2.708 11.871 5.251.684-4.104 1.365-8.209 2.035-12.315zm66.698 3.521c-10.348 1.088-21.673 1.288-33.942.931a156.866 156.866 0 0 1-25.074-2.784c.236 4.279-.253 8.523-.881 12.754a149.057 149.057 0 0 0 25.753 2.994c3.996.118 7.903.139 11.718.068 8.548-.158 16.425-.667 23.818-1.616-.82-4.053-1.314-8.163-1.392-12.347zm30.339-.986c-.531-3.134-.869-5.917-3.588-4.883-6.093 2.302-12.761 3.928-19.97 5.029.25 4.085.789 8.132 1.337 12.179 7.484-1.326 14.45-3.205 20.956-5.899 1.894-.783 1.802-3.259 1.265-6.426z" fill="#715541"/><path fill="#A7A7A7" d="M469.336 350.593l.285 15.417 24.072 1.437-.307-16.614-24.05-.24zm20.228 13.996l-15.91-.949-.188-10.19 15.896.158.202 10.981z"/><path fill="#FFF" d="M425.779 197.115s3.192 98.219 9.549 148.069c0 0 24.323 10.89 63.068 9.312 27.37-1.115 35.259-6.967 35.259-6.967l36.584-161.514s-17.076-9.573-58.784-9.522c0 0 .07-1.335-9.373 3.679-7.24 3.847-9.732 30.094-9.732 30.094s-1.414-26.369-5.505-28.533c-6.297-3.329-5.173-2.618-10.364-4.002-15.718 1.086-32.06 5.867-50.388 8.885l-.314 10.499z"/><path fill="#FFF" d="M321.675 298.826l62.616-60.829 44.768-49.768c12.244 2.996 33.889 16.999-1.721 50.585l-31.642 30.539-56.799 46.665-17.222-17.192z"/><path fill="#E8E8E6" d="M465.207 176.632l10.154 22.438 11.484-17.337-18.061-12.022z"/><path fill="#EED764" d="M470.987 176.89a.371.371 0 0 0-.203-.284l.368-.064-.023.336-.142.012zm30.298-5.577l.811-.141c-.267.08-.536.157-.804.235l-.007-.094zm42.799-.141l.136.024-.001.016-.135-.04z"/><path fill="#E1E7D1" d="M490.686 249.847h-.046.046z"/><path fill="#E8E8E6" d="M524.21 176.042l-13.657 22.012-9.59-17.836 19.954-12.932z"/><path opacity=".4" fill="#B27660" d="M535.265 102.587c-4.833-2.447-9.108 5.337-9.31 13.646 3.957-.595 4.624 4.013 2.42 7.27 7.855 1.667 12.018-18.319 6.89-20.916z"/><path fill="#F0D2C8" d="M579.333 344.523s6.965 48.749 1.835 52.027c0 0-1.126 3.11-5.363 2.758 0 0-1.499 4.172-6.212 2.068 0 0-1.048 3.011-2.771 4.276-2.681 1.967-7.37-.715-5.166-11.707 0 0-2.005 3.137-5.655 3.766-4.963.856-1.442-5.298-1.442-5.298s1.504-6.174 4.151-14.423c2.648-8.248 5.706-9.458 5.706-9.458l-5.996-62.065 20.913 38.056z"/><path fill="#FFF" d="M582.013 354.33l-5.163-89.872-6.164-79.481c-10.238-4.755-33.206-7.071-27.094 36.34l6.529 60.006 8.343 77.348 23.549-4.341zm-249.71-25.051l13.671-8.982-21.855-23.818-10.81 9.942z"/><path fill="#FFF" d="M588.727 356.886l-.46-16.359-32.039 6.28 2.801 14.413zM286.72 307.045l-143.767-40.451-86.293-79.407c-13.423 4.538-17.35 43.49 13.978 73.139l55.79 33.737 145.07 37.207 15.222-24.225z"/><path fill="#78384A" d="M129.738 187.411s6 9.214 17.979-.461l5.146 7.832-5.562 11.932 16.279 113.184-15.664 19.504-18.89-19.043 7.832-114.874-11.268-11.164 2.304-6.45"/><path fill="#3A414A" d="M63.451 263.363l18.737 166.116 63.403 6.67s.732-132.065-41.687-257.622c0 0-25.013 1.031-43.248 5.356-6.078 1.442-2.403 3.249-5.798 5.506l8.593 73.974zm106.994-82.848s-2.193 171.558 0 257.214l50.804-9.829-6.214-123.112 19.859 58.284 35.474-16.148-51.359-156.48-48.564-9.929z"/><path fill="#2A2E35" d="M103.904 178.527l-10.944.585-12.427 40.722 27.047 10.531-3.655 16.85 30.701 52.657s-21.24-109.293-30.722-121.345zm66.541 1.988l-.731 120.762 22.661-56.169-11.696-11.935 17.544-8.425-16.082-42.828z"/><path fill="#3A414A" d="M280.512 303.045l-140.767-46.451L58.677 184.5c-13.423 4.538-27.26 45.413 8.754 77.826l55.79 33.737 145.07 37.207 12.221-30.225z"/></svg>